<?xml version="1.0" encoding="UTF-8" standalone="no"?>
<!DOCTYPE svg PUBLIC "-//W3C//DTD SVG 1.1//EN"
 "http://www.w3.org/Graphics/SVG/1.1/DTD/svg11.dtd">
<!-- Generated by graphviz version 2.30.1 (20130612.0156)
 -->
<!-- Title: dskvs.test; 37.0 MB Pages: 1 -->
<svg width="100%" height="100%"
  xmlns="http://www.w3.org/2000/svg" xmlns:xlink="http://www.w3.org/1999/xlink">
<script type="text/ecmascript"><![CDATA[
// SVGPan
// http://www.cyberz.org/blog/2009/12/08/svgpan-a-javascript-svg-panzoomdrag-library/
// Local modification: if(true || ...) below to force panning, never moving.
// Local modification: add clamping to fix bug in handleMouseWheel.

/**
 *  SVGPan library 1.2
 * ====================
 *
 * Given an unique existing element with id "viewport", including the
 * the library into any SVG adds the following capabilities:
 *
 *  - Mouse panning
 *  - Mouse zooming (using the wheel)
 *  - Object dargging
 *
 * Known issues:
 *
 *  - Zooming (while panning) on Safari has still some issues
 *
 * Releases:
 *
 * 1.2, Sat Mar 20 08:42:50 GMT 2010, Zeng Xiaohui
 *	Fixed a bug with browser mouse handler interaction
 *
 * 1.1, Wed Feb  3 17:39:33 GMT 2010, Zeng Xiaohui
 *	Updated the zoom code to support the mouse wheel on Safari/Chrome
 *
 * 1.0, Andrea Leofreddi
 *	First release
 *
 * This code is licensed under the following BSD license:
 *
 * Copyright 2009-2010 Andrea Leofreddi <a.leofreddi@itcharm.com>. All rights reserved.
 *
 * Redistribution and use in source and binary forms, with or without modification, are
 * permitted provided that the following conditions are met:
 *
 *    1. Redistributions of source code must retain the above copyright notice, this list of
 *       conditions and the following disclaimer.
 *
 *    2. Redistributions in binary form must reproduce the above copyright notice, this list
 *       of conditions and the following disclaimer in the documentation and/or other materials
 *       provided with the distribution.
 *
 * THIS SOFTWARE IS PROVIDED BY Andrea Leofreddi ``AS IS'' AND ANY EXPRESS OR IMPLIED
 * WARRANTIES, INCLUDING, BUT NOT LIMITED TO, THE IMPLIED WARRANTIES OF MERCHANTABILITY AND
 * FITNESS FOR A PARTICULAR PURPOSE ARE DISCLAIMED. IN NO EVENT SHALL Andrea Leofreddi OR
 * CONTRIBUTORS BE LIABLE FOR ANY DIRECT, INDIRECT, INCIDENTAL, SPECIAL, EXEMPLARY, OR
 * CONSEQUENTIAL DAMAGES (INCLUDING, BUT NOT LIMITED TO, PROCUREMENT OF SUBSTITUTE GOODS OR
 * SERVICES; LOSS OF USE, DATA, OR PROFITS; OR BUSINESS INTERRUPTION) HOWEVER CAUSED AND ON
 * ANY THEORY OF LIABILITY, WHETHER IN CONTRACT, STRICT LIABILITY, OR TORT (INCLUDING
 * NEGLIGENCE OR OTHERWISE) ARISING IN ANY WAY OUT OF THE USE OF THIS SOFTWARE, EVEN IF
 * ADVISED OF THE POSSIBILITY OF SUCH DAMAGE.
 *
 * The views and conclusions contained in the software and documentation are those of the
 * authors and should not be interpreted as representing official policies, either expressed
 * or implied, of Andrea Leofreddi.
 */

var root = document.documentElement;

var state = 'none', stateTarget, stateOrigin, stateTf;

setupHandlers(root);

/**
 * Register handlers
 */
function setupHandlers(root){
	setAttributes(root, {
		"onmouseup" : "add(evt)",
		"onmousedown" : "handleMouseDown(evt)",
		"onmousemove" : "handleMouseMove(evt)",
		"onmouseup" : "handleMouseUp(evt)",
		//"onmouseout" : "handleMouseUp(evt)", // Decomment this to stop the pan functionality when dragging out of the SVG element
	});

	if(navigator.userAgent.toLowerCase().indexOf('webkit') >= 0)
		window.addEventListener('mousewheel', handleMouseWheel, false); // Chrome/Safari
	else
		window.addEventListener('DOMMouseScroll', handleMouseWheel, false); // Others

	var g = svgDoc.getElementById("svg");
	g.width = "100%";
	g.height = "100%";
}

/**
 * Instance an SVGPoint object with given event coordinates.
 */
function getEventPoint(evt) {
	var p = root.createSVGPoint();

	p.x = evt.clientX;
	p.y = evt.clientY;

	return p;
}

/**
 * Sets the current transform matrix of an element.
 */
function setCTM(element, matrix) {
	var s = "matrix(" + matrix.a + "," + matrix.b + "," + matrix.c + "," + matrix.d + "," + matrix.e + "," + matrix.f + ")";

	element.setAttribute("transform", s);
}

/**
 * Dumps a matrix to a string (useful for debug).
 */
function dumpMatrix(matrix) {
	var s = "[ " + matrix.a + ", " + matrix.c + ", " + matrix.e + "\n  " + matrix.b + ", " + matrix.d + ", " + matrix.f + "\n  0, 0, 1 ]";

	return s;
}

/**
 * Sets attributes of an element.
 */
function setAttributes(element, attributes){
	for (i in attributes)
		element.setAttributeNS(null, i, attributes[i]);
}

/**
 * Handle mouse move event.
 */
function handleMouseWheel(evt) {
	if(evt.preventDefault)
		evt.preventDefault();

	evt.returnValue = false;

	var svgDoc = evt.target.ownerDocument;

	var delta;

	if(evt.wheelDelta)
		delta = evt.wheelDelta / 3600; // Chrome/Safari
	else
		delta = evt.detail / -90; // Mozilla

	var z = 1 + delta; // Zoom factor: 0.9/1.1

	// Clamp to reasonable values.
	// The 0.1 check is important because
	// a very large scroll can turn into a
	// negative z, which rotates the image 180 degrees.
	if(z < 0.1)
		z = 0.1;
	if(z > 10.0)
		z = 10.0;

	var g = svgDoc.getElementById("viewport");

	var p = getEventPoint(evt);

	p = p.matrixTransform(g.getCTM().inverse());

	// Compute new scale matrix in current mouse position
	var k = root.createSVGMatrix().translate(p.x, p.y).scale(z).translate(-p.x, -p.y);

        setCTM(g, g.getCTM().multiply(k));

	stateTf = stateTf.multiply(k.inverse());
}

/**
 * Handle mouse move event.
 */
function handleMouseMove(evt) {
	if(evt.preventDefault)
		evt.preventDefault();

	evt.returnValue = false;

	var svgDoc = evt.target.ownerDocument;

	var g = svgDoc.getElementById("viewport");

	if(state == 'pan') {
		// Pan mode
		var p = getEventPoint(evt).matrixTransform(stateTf);

		setCTM(g, stateTf.inverse().translate(p.x - stateOrigin.x, p.y - stateOrigin.y));
	} else if(state == 'move') {
		// Move mode
		var p = getEventPoint(evt).matrixTransform(g.getCTM().inverse());

		setCTM(stateTarget, root.createSVGMatrix().translate(p.x - stateOrigin.x, p.y - stateOrigin.y).multiply(g.getCTM().inverse()).multiply(stateTarget.getCTM()));

		stateOrigin = p;
	}
}

/**
 * Handle click event.
 */
function handleMouseDown(evt) {
	if(evt.preventDefault)
		evt.preventDefault();

	evt.returnValue = false;

	var svgDoc = evt.target.ownerDocument;

	var g = svgDoc.getElementById("viewport");

	if(true || evt.target.tagName == "svg") {
		// Pan mode
		state = 'pan';

		stateTf = g.getCTM().inverse();

		stateOrigin = getEventPoint(evt).matrixTransform(stateTf);
	} else {
		// Move mode
		state = 'move';

		stateTarget = evt.target;

		stateTf = g.getCTM().inverse();

		stateOrigin = getEventPoint(evt).matrixTransform(stateTf);
	}
}

/**
 * Handle mouse button release event.
 */
function handleMouseUp(evt) {
	if(evt.preventDefault)
		evt.preventDefault();

	evt.returnValue = false;

	var svgDoc = evt.target.ownerDocument;

	if(state == 'pan' || state == 'move') {
		// Quit pan mode
		state = '';
	}
}

]]></script>
<g id="viewport" transform="translate(0,0)">
<g id="viewport" class="graph" transform="scale(1 1) rotate(0) translate(4 1938)">
<title>dskvs.test; 37.0 MB</title>
<polygon fill="white" stroke="white" points="-4,5 -4,-1938 1030,-1938 1030,5 -4,5"/>
<!-- Legend -->
<g id="node1" class="node"><title>Legend</title>
<text text-anchor="start" x="139.484" y="-1906" font-family="Times,serif" font-size="24.00">dskvs.test</text>
<text text-anchor="start" x="139.484" y="-1877.2" font-family="Times,serif" font-size="24.00">Total MB: 37.0</text>
<text text-anchor="start" x="139.484" y="-1848.4" font-family="Times,serif" font-size="24.00">Focusing on: 37.0</text>
<text text-anchor="start" x="139.484" y="-1819.6" font-family="Times,serif" font-size="24.00">Dropped nodes with &lt;= 0.2 abs(MB)</text>
<text text-anchor="start" x="139.484" y="-1790.8" font-family="Times,serif" font-size="24.00">Dropped edges with &lt;= 0.0 MB</text>
</g>
<!-- N1 -->
<g id="node2" class="node"><title>N1</title>
<polygon fill="none" stroke="black" points="590.994,-1876.3 521.006,-1876.3 521.006,-1839.7 590.994,-1839.7 590.994,-1876.3"/>
<text text-anchor="middle" x="556" y="-1864.4" font-family="Times,serif" font-size="8.00">gosched0</text>
<text text-anchor="end" x="583.328" y="-1854.8" font-family="Times,serif" font-size="8.00">0.0 (0.0%)</text>
<text text-anchor="end" x="583.328" y="-1845.2" font-family="Times,serif" font-size="8.00">of 37.0 (100.0%)</text>
</g>
<!-- N3 -->
<g id="node4" class="node"><title>N3</title>
<polygon fill="none" stroke="black" points="648.994,-1727.3 583.006,-1727.3 583.006,-1690.7 648.994,-1690.7 648.994,-1727.3"/>
<text text-anchor="middle" x="616" y="-1715.4" font-family="Times,serif" font-size="8.00">testing.tRunner</text>
<text text-anchor="end" x="641.328" y="-1705.8" font-family="Times,serif" font-size="8.00">0.0 (0.0%)</text>
<text text-anchor="end" x="641.328" y="-1696.2" font-family="Times,serif" font-size="8.00">of 20.0 (54.1%)</text>
</g>
<!-- N1&#45;&gt;N3 -->
<g id="edge4" class="edge"><title>N1&#45;&gt;N3</title>
<path fill="none" stroke="black" stroke-width="2" d="M563.118,-1839.56C573.493,-1814.14 592.857,-1766.7 605.053,-1736.82"/>
<polygon fill="black" stroke="black" points="608.352,-1738 608.891,-1727.42 601.871,-1735.35 608.352,-1738"/>
<text text-anchor="middle" x="611.25" y="-1749.4" font-family="Times,serif" font-size="14.00">20.0</text>
</g>
<!-- N8 -->
<g id="node9" class="node"><title>N8</title>
<polygon fill="none" stroke="black" points="561.326,-1671.3 408.674,-1671.3 408.674,-1634.7 561.326,-1634.7 561.326,-1671.3"/>
<text text-anchor="middle" x="485" y="-1659.4" font-family="Times,serif" font-size="8.00">github.com/aybabtme/dskvs.doPutRequest</text>
<text text-anchor="end" x="553.217" y="-1649.8" font-family="Times,serif" font-size="8.00">0.0 (0.0%)</text>
<text text-anchor="end" x="553.217" y="-1640.2" font-family="Times,serif" font-size="8.00">of 17.0 (45.9%)</text>
</g>
<!-- N1&#45;&gt;N8 -->
<g id="edge28" class="edge"><title>N1&#45;&gt;N8</title>
<path fill="none" stroke="black" stroke-width="2" d="M549.947,-1839.69C537.585,-1804.35 509.36,-1723.65 494.52,-1681.22"/>
<polygon fill="black" stroke="black" points="497.744,-1679.84 491.139,-1671.55 491.137,-1682.15 497.744,-1679.84"/>
<text text-anchor="middle" x="534.25" y="-1749.4" font-family="Times,serif" font-size="14.00">17.0</text>
</g>
<!-- N2 -->
<g id="node3" class="node"><title>N2</title>
<polygon fill="none" stroke="black" points="526.156,-1523.3 379.844,-1523.3 379.844,-1486.7 526.156,-1486.7 526.156,-1523.3"/>
<text text-anchor="middle" x="453" y="-1511.4" font-family="Times,serif" font-size="8.00">github.com/aybabtme/dskvs.(*Store).Put</text>
<text text-anchor="end" x="518.438" y="-1501.8" font-family="Times,serif" font-size="8.00">0.0 (0.0%)</text>
<text text-anchor="end" x="518.438" y="-1492.2" font-family="Times,serif" font-size="8.00">of 20.0 (54.1%)</text>
</g>
<!-- N4 -->
<g id="node5" class="node"><title>N4</title>
<polygon fill="none" stroke="black" points="377.147,-1422.3 212.853,-1422.3 212.853,-1385.7 377.147,-1385.7 377.147,-1422.3"/>
<text text-anchor="middle" x="295" y="-1410.4" font-family="Times,serif" font-size="8.00">github.com/aybabtme/dskvs.(*collections).put</text>
<text text-anchor="end" x="369.098" y="-1400.8" font-family="Times,serif" font-size="8.00">0.0 (0.0%)</text>
<text text-anchor="end" x="369.098" y="-1391.2" font-family="Times,serif" font-size="8.00">of 19.5 (52.7%)</text>
</g>
<!-- N2&#45;&gt;N4 -->
<g id="edge5" class="edge"><title>N2&#45;&gt;N4</title>
<path fill="none" stroke="black" stroke-width="2" d="M425.116,-1486.53C399.024,-1470.18 359.893,-1445.66 331.359,-1427.78"/>
<polygon fill="black" stroke="black" points="333.202,-1424.81 322.87,-1422.46 329.486,-1430.74 333.202,-1424.81"/>
<text text-anchor="middle" x="404.25" y="-1453.4" font-family="Times,serif" font-size="14.00">19.5</text>
</g>
<!-- N29 -->
<g id="node30" class="node"><title>N29</title>
<polygon fill="none" stroke="black" points="533.158,-1422.3 394.842,-1422.3 394.842,-1385.7 533.158,-1385.7 533.158,-1422.3"/>
<text text-anchor="middle" x="464" y="-1410.4" font-family="Times,serif" font-size="8.00">github.com/aybabtme/dskvs.splitKeys</text>
<text text-anchor="end" x="525.105" y="-1400.8" font-family="Times,serif" font-size="8.00">0.0 (0.0%)</text>
<text text-anchor="end" x="525.105" y="-1391.2" font-family="Times,serif" font-size="8.00">of 0.5 (1.4%)</text>
</g>
<!-- N2&#45;&gt;N29 -->
<g id="edge8" class="edge"><title>N2&#45;&gt;N29</title>
<path fill="none" stroke="black" d="M454.967,-1486.3C456.625,-1471.38 459.026,-1449.77 460.936,-1432.58"/>
<polygon fill="black" stroke="black" points="464.425,-1432.87 462.05,-1422.55 457.467,-1432.1 464.425,-1432.87"/>
<text text-anchor="middle" x="466.75" y="-1453.4" font-family="Times,serif" font-size="14.00">0.5</text>
</g>
<!-- N7 -->
<g id="node8" class="node"><title>N7</title>
<polygon fill="none" stroke="black" points="736.223,-1615.3 495.777,-1615.3 495.777,-1578.7 736.223,-1578.7 736.223,-1615.3"/>
<text text-anchor="middle" x="616" y="-1603.4" font-family="Times,serif" font-size="8.00">github.com/aybabtme/dskvs.TestMultipleOperationsPersistAfterClose</text>
<text text-anchor="end" x="728.148" y="-1593.8" font-family="Times,serif" font-size="8.00">0.0 (0.0%)</text>
<text text-anchor="end" x="728.148" y="-1584.2" font-family="Times,serif" font-size="8.00">of 17.0 (45.9%)</text>
</g>
<!-- N3&#45;&gt;N7 -->
<g id="edge1" class="edge"><title>N3&#45;&gt;N7</title>
<path fill="none" stroke="black" stroke-width="2" d="M616,-1690.33C616,-1672.93 616,-1646.09 616,-1625.83"/>
<polygon fill="black" stroke="black" points="619.5,-1625.63 616,-1615.63 612.5,-1625.63 619.5,-1625.63"/>
<text text-anchor="middle" x="628.25" y="-1647.4" font-family="Times,serif" font-size="14.00">17.0</text>
</g>
<!-- N19 -->
<g id="node20" class="node"><title>N19</title>
<polygon fill="none" stroke="black" points="1025.14,-1615.3 754.862,-1615.3 754.862,-1578.7 1025.14,-1578.7 1025.14,-1615.3"/>
<text text-anchor="middle" x="890" y="-1603.4" font-family="Times,serif" font-size="8.00">github.com/aybabtme/dskvs.TestOneOperationWithMultipleConcurrentRequest</text>
<text text-anchor="end" x="1017.76" y="-1593.8" font-family="Times,serif" font-size="8.00">0.0 (0.0%)</text>
<text text-anchor="end" x="1017.76" y="-1584.2" font-family="Times,serif" font-size="8.00">of 3.0 (8.1%)</text>
</g>
<!-- N3&#45;&gt;N19 -->
<g id="edge25" class="edge"><title>N3&#45;&gt;N19</title>
<path fill="none" stroke="black" d="M649.051,-1694.73C695.74,-1675.99 781.504,-1641.56 837.111,-1619.23"/>
<polygon fill="black" stroke="black" points="838.469,-1622.46 846.446,-1615.49 835.861,-1615.96 838.469,-1622.46"/>
<text text-anchor="middle" x="801.75" y="-1647.4" font-family="Times,serif" font-size="14.00">3.0</text>
</g>
<!-- N5 -->
<g id="node6" class="node"><title>N5</title>
<polygon fill="none" stroke="black" points="389.291,-1321.06 30.7093,-1321.06 30.7093,-1242.94 389.291,-1242.94 389.291,-1321.06"/>
<text text-anchor="middle" x="210" y="-1297.68" font-family="Times,serif" font-size="19.60">github.com/aybabtme/dskvs.(*member).put</text>
<text text-anchor="end" x="381.194" y="-1274.16" font-family="Times,serif" font-size="19.60">2.0 (5.4%)</text>
<text text-anchor="end" x="381.194" y="-1250.64" font-family="Times,serif" font-size="19.60">of 19.5 (52.7%)</text>
</g>
<!-- N4&#45;&gt;N5 -->
<g id="edge12" class="edge"><title>N4&#45;&gt;N5</title>
<path fill="none" stroke="black" stroke-width="2" d="M282.64,-1385.55C272.246,-1370.88 256.896,-1349.21 242.981,-1329.56"/>
<polygon fill="black" stroke="black" points="245.76,-1327.43 237.124,-1321.29 240.048,-1331.48 245.76,-1327.43"/>
<text text-anchor="middle" x="275.25" y="-1343.4" font-family="Times,serif" font-size="14.00">19.5</text>
</g>
<!-- N6 -->
<g id="node7" class="node"><title>N6</title>
<polygon fill="none" stroke="black" points="281.478,-1175.3 138.522,-1175.3 138.522,-1138.7 281.478,-1138.7 281.478,-1175.3"/>
<text text-anchor="middle" x="210" y="-1163.4" font-family="Times,serif" font-size="8.00">github.com/aybabtme/dskvs.(*page).set</text>
<text text-anchor="end" x="273.652" y="-1153.8" font-family="Times,serif" font-size="8.00">0.0 (0.0%)</text>
<text text-anchor="end" x="273.652" y="-1144.2" font-family="Times,serif" font-size="8.00">of 17.5 (47.3%)</text>
</g>
<!-- N5&#45;&gt;N6 -->
<g id="edge16" class="edge"><title>N5&#45;&gt;N6</title>
<path fill="none" stroke="black" stroke-width="2" d="M210,-1242.76C210,-1224.36 210,-1202.71 210,-1185.89"/>
<polygon fill="black" stroke="black" points="213.5,-1185.62 210,-1175.62 206.5,-1185.62 213.5,-1185.62"/>
<text text-anchor="middle" x="222.25" y="-1209.4" font-family="Times,serif" font-size="14.00">17.5</text>
</g>
<!-- N10 -->
<g id="node11" class="node"><title>N10</title>
<polygon fill="none" stroke="black" points="246.149,-1039.3 173.851,-1039.3 173.851,-1002.7 246.149,-1002.7 246.149,-1039.3"/>
<text text-anchor="middle" x="210" y="-1027.4" font-family="Times,serif" font-size="8.00">runtime.deferproc</text>
<text text-anchor="end" x="238.764" y="-1017.8" font-family="Times,serif" font-size="8.00">0.0 (0.0%)</text>
<text text-anchor="end" x="238.764" y="-1008.2" font-family="Times,serif" font-size="8.00">of 16.5 (44.6%)</text>
</g>
<!-- N6&#45;&gt;N10 -->
<g id="edge31" class="edge"><title>N6&#45;&gt;N10</title>
<path fill="none" stroke="black" stroke-width="2" d="M210,-1138.48C210,-1115.91 210,-1076.41 210,-1049.74"/>
<polygon fill="black" stroke="black" points="213.5,-1049.52 210,-1039.52 206.5,-1049.52 213.5,-1049.52"/>
<text text-anchor="middle" x="222.25" y="-1083.4" font-family="Times,serif" font-size="14.00">16.5</text>
</g>
<!-- N15 -->
<g id="node16" class="node"><title>N15</title>
<polygon fill="none" stroke="black" points="628.144,-773.301 551.856,-773.301 551.856,-736.699 628.144,-736.699 628.144,-773.301"/>
<text text-anchor="middle" x="590" y="-761.4" font-family="Times,serif" font-size="8.00">runtime.cnewarray</text>
<text text-anchor="end" x="620.096" y="-751.8" font-family="Times,serif" font-size="8.00">0.0 (0.0%)</text>
<text text-anchor="end" x="620.096" y="-742.2" font-family="Times,serif" font-size="8.00">of 9.5 (25.7%)</text>
</g>
<!-- N6&#45;&gt;N15 -->
<g id="edge35" class="edge"><title>N6&#45;&gt;N15</title>
<path fill="none" stroke="black" d="M192.237,-1138.55C140.605,-1085.76 -0.559924,-925.444 84,-828 143.004,-760.006 426.377,-754.566 541.362,-755.233"/>
<polygon fill="black" stroke="black" points="541.6,-758.735 551.627,-755.311 541.654,-751.735 541.6,-758.735"/>
<text text-anchor="middle" x="82.75" y="-957.4" font-family="Times,serif" font-size="14.00">1.0</text>
</g>
<!-- N13 -->
<g id="node14" class="node"><title>N13</title>
<polygon fill="none" stroke="black" points="681.99,-1523.3 556.01,-1523.3 556.01,-1486.7 681.99,-1486.7 681.99,-1523.3"/>
<text text-anchor="middle" x="619" y="-1511.4" font-family="Times,serif" font-size="8.00">github.com/aybabtme/dskvs.setUp</text>
<text text-anchor="end" x="674.326" y="-1501.8" font-family="Times,serif" font-size="8.00">0.0 (0.0%)</text>
<text text-anchor="end" x="674.326" y="-1492.2" font-family="Times,serif" font-size="8.00">of 12.0 (32.4%)</text>
</g>
<!-- N7&#45;&gt;N13 -->
<g id="edge7" class="edge"><title>N7&#45;&gt;N13</title>
<path fill="none" stroke="black" stroke-width="1.94595" d="M616.578,-1578.65C617.003,-1565.91 617.589,-1548.33 618.078,-1533.67"/>
<polygon fill="black" stroke="black" points="621.578,-1533.72 618.413,-1523.61 614.582,-1533.48 621.578,-1533.72"/>
<text text-anchor="middle" x="629.25" y="-1545.4" font-family="Times,serif" font-size="14.00">12.0</text>
</g>
<!-- N27 -->
<g id="node28" class="node"><title>N27</title>
<polygon fill="none" stroke="black" points="267.135,-1523.3 116.865,-1523.3 116.865,-1486.7 267.135,-1486.7 267.135,-1523.3"/>
<text text-anchor="middle" x="192" y="-1511.4" font-family="Times,serif" font-size="8.00">github.com/aybabtme/dskvs.generateData</text>
<text text-anchor="end" x="259.09" y="-1501.8" font-family="Times,serif" font-size="8.00">0.0 (0.0%)</text>
<text text-anchor="end" x="259.09" y="-1492.2" font-family="Times,serif" font-size="8.00">of 2.0 (5.4%)</text>
</g>
<!-- N7&#45;&gt;N27 -->
<g id="edge13" class="edge"><title>N7&#45;&gt;N27</title>
<path fill="none" stroke="black" d="M534.249,-1578.65C460.321,-1562.95 351.894,-1539.94 276.982,-1524.04"/>
<polygon fill="black" stroke="black" points="277.61,-1520.59 267.101,-1521.94 276.156,-1527.44 277.61,-1520.59"/>
<text text-anchor="middle" x="449.75" y="-1545.4" font-family="Times,serif" font-size="14.00">2.0</text>
</g>
<!-- N7&#45;&gt;N2 -->
<g id="edge37" class="edge"><title>N7&#45;&gt;N2</title>
<path fill="none" stroke="black" d="M585.022,-1578.67C565.995,-1568.04 541.114,-1554.19 519,-1542 510.857,-1537.51 502.135,-1532.74 493.788,-1528.18"/>
<polygon fill="black" stroke="black" points="495.377,-1525.06 484.922,-1523.34 492.024,-1531.2 495.377,-1525.06"/>
<text text-anchor="middle" x="559.75" y="-1545.4" font-family="Times,serif" font-size="14.00">3.0</text>
</g>
<!-- N8&#45;&gt;N2 -->
<g id="edge3" class="edge"><title>N8&#45;&gt;N2</title>
<path fill="none" stroke="black" stroke-width="2" d="M471.774,-1634.52C468.158,-1628.89 464.648,-1622.43 462.5,-1616 453.523,-1589.13 451.746,-1556.61 451.846,-1533.93"/>
<polygon fill="black" stroke="black" points="455.351,-1533.72 452.023,-1523.66 448.352,-1533.6 455.351,-1533.72"/>
<text text-anchor="middle" x="474.25" y="-1591.4" font-family="Times,serif" font-size="14.00">17.0</text>
</g>
<!-- N9 -->
<g id="node10" class="node"><title>N9</title>
<polygon fill="none" stroke="black" points="326.482,-935.861 93.5181,-935.861 93.5181,-828.139 326.482,-828.139 326.482,-935.861"/>
<text text-anchor="middle" x="210" y="-890.28" font-family="Times,serif" font-size="41.40">newdefer</text>
<text text-anchor="end" x="318.655" y="-840.6" font-family="Times,serif" font-size="41.40">16.5 (44.6%)</text>
</g>
<!-- N10&#45;&gt;N9 -->
<g id="edge29" class="edge"><title>N10&#45;&gt;N9</title>
<path fill="none" stroke="black" stroke-width="2" d="M210,-1002.65C210,-988.232 210,-966.791 210,-946.026"/>
<polygon fill="black" stroke="black" points="213.5,-945.92 210,-935.92 206.5,-945.92 213.5,-945.92"/>
<text text-anchor="middle" x="222.25" y="-957.4" font-family="Times,serif" font-size="14.00">16.5</text>
</g>
<!-- N11 -->
<g id="node12" class="node"><title>N11</title>
<polygon fill="none" stroke="black" points="702.981,-1422.3 551.019,-1422.3 551.019,-1385.7 702.981,-1385.7 702.981,-1422.3"/>
<text text-anchor="middle" x="627" y="-1410.4" font-family="Times,serif" font-size="8.00">github.com/aybabtme/dskvs.(*Store).Load</text>
<text text-anchor="end" x="695.32" y="-1400.8" font-family="Times,serif" font-size="8.00">0.0 (0.0%)</text>
<text text-anchor="end" x="695.32" y="-1391.2" font-family="Times,serif" font-size="8.00">of 12.0 (32.4%)</text>
</g>
<!-- N12 -->
<g id="node13" class="node"><title>N12</title>
<polygon fill="none" stroke="black" points="768.349,-1310.68 485.651,-1310.68 485.651,-1253.32 768.349,-1253.32 768.349,-1310.68"/>
<text text-anchor="middle" x="627" y="-1293.04" font-family="Times,serif" font-size="13.80">github.com/aybabtme/dskvs.(*janitor).loadStore</text>
<text text-anchor="end" x="760.566" y="-1276.48" font-family="Times,serif" font-size="13.80">0.5 (1.4%)</text>
<text text-anchor="end" x="760.566" y="-1259.92" font-family="Times,serif" font-size="13.80">of 12.0 (32.4%)</text>
</g>
<!-- N11&#45;&gt;N12 -->
<g id="edge36" class="edge"><title>N11&#45;&gt;N12</title>
<path fill="none" stroke="black" stroke-width="1.94595" d="M627,-1385.55C627,-1368.68 627,-1342.56 627,-1320.91"/>
<polygon fill="black" stroke="black" points="630.5,-1320.7 627,-1310.7 623.5,-1320.7 630.5,-1320.7"/>
<text text-anchor="middle" x="639.25" y="-1343.4" font-family="Times,serif" font-size="14.00">12.0</text>
</g>
<!-- N16 -->
<g id="node17" class="node"><title>N16</title>
<polygon fill="none" stroke="black" points="714.349,-1185.68 465.651,-1185.68 465.651,-1128.32 714.349,-1128.32 714.349,-1185.68"/>
<text text-anchor="middle" x="590" y="-1168.04" font-family="Times,serif" font-size="13.80">github.com/aybabtme/dskvs.readFromFile</text>
<text text-anchor="end" x="706.899" y="-1151.48" font-family="Times,serif" font-size="13.80">0.5 (1.4%)</text>
<text text-anchor="end" x="706.899" y="-1134.92" font-family="Times,serif" font-size="13.80">of 8.5 (23.0%)</text>
</g>
<!-- N12&#45;&gt;N16 -->
<g id="edge19" class="edge"><title>N12&#45;&gt;N16</title>
<path fill="none" stroke="black" stroke-width="1.37838" d="M618.604,-1253.09C613.471,-1236.03 606.842,-1213.99 601.257,-1195.42"/>
<polygon fill="black" stroke="black" points="604.595,-1194.37 598.363,-1185.8 597.892,-1196.38 604.595,-1194.37"/>
<text text-anchor="middle" x="617.75" y="-1209.4" font-family="Times,serif" font-size="14.00">8.5</text>
</g>
<!-- N21 -->
<g id="node22" class="node"><title>N21</title>
<polygon fill="none" stroke="black" points="804.495,-1175.3 733.505,-1175.3 733.505,-1138.7 804.495,-1138.7 804.495,-1175.3"/>
<text text-anchor="middle" x="769" y="-1163.4" font-family="Times,serif" font-size="8.00">path/filepath.Join</text>
<text text-anchor="end" x="796.664" y="-1153.8" font-family="Times,serif" font-size="8.00">0.0 (0.0%)</text>
<text text-anchor="end" x="796.664" y="-1144.2" font-family="Times,serif" font-size="8.00">of 3.0 (8.1%)</text>
</g>
<!-- N12&#45;&gt;N21 -->
<g id="edge22" class="edge"><title>N12&#45;&gt;N21</title>
<path fill="none" stroke="black" d="M659.222,-1253.09C683.924,-1231.69 717.659,-1202.47 741.189,-1182.09"/>
<polygon fill="black" stroke="black" points="743.482,-1184.73 748.749,-1175.54 738.899,-1179.44 743.482,-1184.73"/>
<text text-anchor="middle" x="718.75" y="-1209.4" font-family="Times,serif" font-size="14.00">3.0</text>
</g>
<!-- N13&#45;&gt;N11 -->
<g id="edge14" class="edge"><title>N13&#45;&gt;N11</title>
<path fill="none" stroke="black" stroke-width="1.94595" d="M620.43,-1486.3C621.636,-1471.38 623.382,-1449.77 624.771,-1432.58"/>
<polygon fill="black" stroke="black" points="628.265,-1432.8 625.582,-1422.55 621.288,-1432.23 628.265,-1432.8"/>
<text text-anchor="middle" x="635.25" y="-1453.4" font-family="Times,serif" font-size="14.00">12.0</text>
</g>
<!-- N14 -->
<g id="node15" class="node"><title>N14</title>
<polygon fill="none" stroke="black" points="693.031,-681.72 486.969,-681.72 486.969,-556.28 693.031,-556.28 693.031,-681.72"/>
<text text-anchor="middle" x="590" y="-645.16" font-family="Times,serif" font-size="32.70">cnew</text>
<text text-anchor="end" x="685.354" y="-605.92" font-family="Times,serif" font-size="32.70">9.0 (24.3%)</text>
<text text-anchor="end" x="685.354" y="-566.68" font-family="Times,serif" font-size="32.70">of 9.5 (25.7%)</text>
</g>
<!-- N33 -->
<g id="node34" class="node"><title>N33</title>
<polygon fill="none" stroke="black" points="618.994,-501.301 561.006,-501.301 561.006,-464.699 618.994,-464.699 618.994,-501.301"/>
<text text-anchor="middle" x="590" y="-489.4" font-family="Times,serif" font-size="8.00">runtime.gc</text>
<text text-anchor="end" x="611.328" y="-479.8" font-family="Times,serif" font-size="8.00">0.0 (0.0%)</text>
<text text-anchor="end" x="611.328" y="-470.2" font-family="Times,serif" font-size="8.00">of 0.5 (1.4%)</text>
</g>
<!-- N14&#45;&gt;N33 -->
<g id="edge20" class="edge"><title>N14&#45;&gt;N33</title>
<path fill="none" stroke="black" d="M590,-556.099C590,-540.455 590,-524.439 590,-511.487"/>
<polygon fill="black" stroke="black" points="593.5,-511.404 590,-501.404 586.5,-511.404 593.5,-511.404"/>
<text text-anchor="middle" x="598.75" y="-523.4" font-family="Times,serif" font-size="14.00">0.5</text>
</g>
<!-- N15&#45;&gt;N14 -->
<g id="edge38" class="edge"><title>N15&#45;&gt;N14</title>
<path fill="none" stroke="black" stroke-width="1.54054" d="M590,-736.482C590,-724.85 590,-708.721 590,-692.17"/>
<polygon fill="black" stroke="black" points="593.5,-691.846 590,-681.846 586.5,-691.846 593.5,-691.846"/>
<text text-anchor="middle" x="598.75" y="-703.4" font-family="Times,serif" font-size="14.00">9.5</text>
</g>
<!-- N17 -->
<g id="node18" class="node"><title>N17</title>
<polygon fill="none" stroke="black" points="626.164,-1039.3 553.836,-1039.3 553.836,-1002.7 626.164,-1002.7 626.164,-1039.3"/>
<text text-anchor="middle" x="590" y="-1027.4" font-family="Times,serif" font-size="8.00">io/ioutil.ReadFile</text>
<text text-anchor="end" x="618.109" y="-1017.8" font-family="Times,serif" font-size="8.00">0.0 (0.0%)</text>
<text text-anchor="end" x="618.109" y="-1008.2" font-family="Times,serif" font-size="8.00">of 8.0 (21.6%)</text>
</g>
<!-- N16&#45;&gt;N17 -->
<g id="edge21" class="edge"><title>N16&#45;&gt;N17</title>
<path fill="none" stroke="black" stroke-width="1.2973" d="M590,-1128.24C590,-1105.21 590,-1072.63 590,-1049.63"/>
<polygon fill="black" stroke="black" points="593.5,-1049.51 590,-1039.51 586.5,-1049.51 593.5,-1049.51"/>
<text text-anchor="middle" x="598.75" y="-1083.4" font-family="Times,serif" font-size="14.00">8.0</text>
</g>
<!-- N18 -->
<g id="node19" class="node"><title>N18</title>
<polygon fill="none" stroke="black" points="623.492,-900.301 556.508,-900.301 556.508,-863.699 623.492,-863.699 623.492,-900.301"/>
<text text-anchor="middle" x="590" y="-888.4" font-family="Times,serif" font-size="8.00">io/ioutil.readAll</text>
<text text-anchor="end" x="615.662" y="-878.8" font-family="Times,serif" font-size="8.00">0.0 (0.0%)</text>
<text text-anchor="end" x="615.662" y="-869.2" font-family="Times,serif" font-size="8.00">of 8.0 (21.6%)</text>
</g>
<!-- N17&#45;&gt;N18 -->
<g id="edge34" class="edge"><title>N17&#45;&gt;N18</title>
<path fill="none" stroke="black" stroke-width="1.2973" d="M590,-1002.65C590,-979.512 590,-938.286 590,-910.792"/>
<polygon fill="black" stroke="black" points="593.5,-910.643 590,-900.643 586.5,-910.643 593.5,-910.643"/>
<text text-anchor="middle" x="598.75" y="-957.4" font-family="Times,serif" font-size="14.00">8.0</text>
</g>
<!-- N18&#45;&gt;N15 -->
<g id="edge33" class="edge"><title>N18&#45;&gt;N15</title>
<path fill="none" stroke="black" stroke-width="1.2973" d="M590,-863.619C590,-842.933 590,-808.127 590,-783.713"/>
<polygon fill="black" stroke="black" points="593.5,-783.636 590,-773.636 586.5,-783.636 593.5,-783.636"/>
<text text-anchor="middle" x="598.75" y="-795.4" font-family="Times,serif" font-size="14.00">8.0</text>
</g>
<!-- N20 -->
<g id="node21" class="node"><title>N20</title>
<polygon fill="none" stroke="black" points="955.401,-1523.3 824.599,-1523.3 824.599,-1486.7 955.401,-1486.7 955.401,-1523.3"/>
<text text-anchor="middle" x="890" y="-1511.4" font-family="Times,serif" font-size="8.00">github.com/aybabtme/dskvs.runTest</text>
<text text-anchor="end" x="947.934" y="-1501.8" font-family="Times,serif" font-size="8.00">0.0 (0.0%)</text>
<text text-anchor="end" x="947.934" y="-1492.2" font-family="Times,serif" font-size="8.00">of 3.0 (8.1%)</text>
</g>
<!-- N19&#45;&gt;N20 -->
<g id="edge9" class="edge"><title>N19&#45;&gt;N20</title>
<path fill="none" stroke="black" d="M890,-1578.65C890,-1565.91 890,-1548.33 890,-1533.67"/>
<polygon fill="black" stroke="black" points="893.5,-1533.61 890,-1523.61 886.5,-1533.61 893.5,-1533.61"/>
<text text-anchor="middle" x="898.75" y="-1545.4" font-family="Times,serif" font-size="14.00">3.0</text>
</g>
<!-- N23 -->
<g id="node24" class="node"><title>N23</title>
<polygon fill="none" stroke="black" points="925.32,-1422.3 854.68,-1422.3 854.68,-1385.7 925.32,-1385.7 925.32,-1422.3"/>
<text text-anchor="middle" x="890" y="-1410.4" font-family="Times,serif" font-size="8.00">runtime.newproc</text>
<text text-anchor="end" x="917.213" y="-1400.8" font-family="Times,serif" font-size="8.00">0.0 (0.0%)</text>
<text text-anchor="end" x="917.213" y="-1391.2" font-family="Times,serif" font-size="8.00">of 3.0 (8.1%)</text>
</g>
<!-- N20&#45;&gt;N23 -->
<g id="edge17" class="edge"><title>N20&#45;&gt;N23</title>
<path fill="none" stroke="black" d="M890,-1486.3C890,-1471.38 890,-1449.77 890,-1432.58"/>
<polygon fill="black" stroke="black" points="893.5,-1432.55 890,-1422.55 886.5,-1432.55 893.5,-1432.55"/>
<text text-anchor="middle" x="898.75" y="-1453.4" font-family="Times,serif" font-size="14.00">3.0</text>
</g>
<!-- N25 -->
<g id="node26" class="node"><title>N25</title>
<polygon fill="none" stroke="black" points="827.324,-1051.78 710.676,-1051.78 710.676,-990.219 827.324,-990.219 827.324,-1051.78"/>
<text text-anchor="middle" x="769" y="-1025.44" font-family="Times,serif" font-size="22.20">strings.Join</text>
<text text-anchor="end" x="819.882" y="-998.8" font-family="Times,serif" font-size="22.20">3.0 (8.1%)</text>
</g>
<!-- N21&#45;&gt;N25 -->
<g id="edge2" class="edge"><title>N21&#45;&gt;N25</title>
<path fill="none" stroke="black" d="M769,-1138.48C769,-1119.15 769,-1087.41 769,-1061.94"/>
<polygon fill="black" stroke="black" points="772.5,-1061.82 769,-1051.82 765.5,-1061.82 772.5,-1061.82"/>
<text text-anchor="middle" x="777.75" y="-1083.4" font-family="Times,serif" font-size="14.00">3.0</text>
</g>
<!-- N22 -->
<g id="node23" class="node"><title>N22</title>
<polygon fill="none" stroke="black" points="957.242,-1187.78 822.758,-1187.78 822.758,-1126.22 957.242,-1126.22 957.242,-1187.78"/>
<text text-anchor="middle" x="890" y="-1161.44" font-family="Times,serif" font-size="22.20">runtime.malg</text>
<text text-anchor="end" x="949.494" y="-1134.8" font-family="Times,serif" font-size="22.20">3.0 (8.1%)</text>
</g>
<!-- N24 -->
<g id="node25" class="node"><title>N24</title>
<polygon fill="none" stroke="black" points="927.32,-1300.3 852.68,-1300.3 852.68,-1263.7 927.32,-1263.7 927.32,-1300.3"/>
<text text-anchor="middle" x="890" y="-1288.4" font-family="Times,serif" font-size="8.00">runtime.newproc1</text>
<text text-anchor="end" x="919.213" y="-1278.8" font-family="Times,serif" font-size="8.00">0.0 (0.0%)</text>
<text text-anchor="end" x="919.213" y="-1269.2" font-family="Times,serif" font-size="8.00">of 3.0 (8.1%)</text>
</g>
<!-- N23&#45;&gt;N24 -->
<g id="edge15" class="edge"><title>N23&#45;&gt;N24</title>
<path fill="none" stroke="black" d="M890,-1385.55C890,-1365.91 890,-1333.74 890,-1310.66"/>
<polygon fill="black" stroke="black" points="893.5,-1310.47 890,-1300.47 886.5,-1310.47 893.5,-1310.47"/>
<text text-anchor="middle" x="898.75" y="-1343.4" font-family="Times,serif" font-size="14.00">3.0</text>
</g>
<!-- N24&#45;&gt;N22 -->
<g id="edge27" class="edge"><title>N24&#45;&gt;N22</title>
<path fill="none" stroke="black" d="M890,-1263.64C890,-1246.72 890,-1220.37 890,-1198.23"/>
<polygon fill="black" stroke="black" points="893.5,-1198.07 890,-1188.07 886.5,-1198.07 893.5,-1198.07"/>
<text text-anchor="middle" x="898.75" y="-1209.4" font-family="Times,serif" font-size="14.00">3.0</text>
</g>
<!-- N26 -->
<g id="node27" class="node"><title>N26</title>
<polygon fill="none" stroke="black" points="194.317,-1431.54 -0.316839,-1431.54 -0.316839,-1376.46 194.317,-1376.46 194.317,-1431.54"/>
<text text-anchor="middle" x="97" y="-1407.92" font-family="Times,serif" font-size="19.60">encoding/json.Marshal</text>
<text text-anchor="end" x="186.545" y="-1384.4" font-family="Times,serif" font-size="19.60">2.0 (5.4%)</text>
</g>
<!-- N27&#45;&gt;N26 -->
<g id="edge18" class="edge"><title>N27&#45;&gt;N26</title>
<path fill="none" stroke="black" d="M175.016,-1486.3C162.541,-1473.3 145.195,-1455.22 130.027,-1439.42"/>
<polygon fill="black" stroke="black" points="132.236,-1436.66 122.787,-1431.87 127.185,-1441.51 132.236,-1436.66"/>
<text text-anchor="middle" x="164.75" y="-1453.4" font-family="Times,serif" font-size="14.00">2.0</text>
</g>
<!-- N28 -->
<g id="node29" class="node"><title>N28</title>
<polygon fill="none" stroke="black" points="618.994,-409.301 561.006,-409.301 561.006,-372.699 618.994,-372.699 618.994,-409.301"/>
<text text-anchor="middle" x="590" y="-397.4" font-family="Times,serif" font-size="8.00">gc</text>
<text text-anchor="end" x="611.328" y="-387.8" font-family="Times,serif" font-size="8.00">0.0 (0.0%)</text>
<text text-anchor="end" x="611.328" y="-378.2" font-family="Times,serif" font-size="8.00">of 0.5 (1.4%)</text>
</g>
<!-- N34 -->
<g id="node35" class="node"><title>N34</title>
<polygon fill="none" stroke="black" points="632.32,-317.301 547.68,-317.301 547.68,-280.699 632.32,-280.699 632.32,-317.301"/>
<text text-anchor="middle" x="590" y="-305.4" font-family="Times,serif" font-size="8.00">runtime.starttheworld</text>
<text text-anchor="end" x="624.547" y="-295.8" font-family="Times,serif" font-size="8.00">0.0 (0.0%)</text>
<text text-anchor="end" x="624.547" y="-286.2" font-family="Times,serif" font-size="8.00">of 0.5 (1.4%)</text>
</g>
<!-- N28&#45;&gt;N34 -->
<g id="edge10" class="edge"><title>N28&#45;&gt;N34</title>
<path fill="none" stroke="black" d="M590,-372.647C590,-359.905 590,-342.334 590,-327.665"/>
<polygon fill="black" stroke="black" points="593.5,-327.607 590,-317.607 586.5,-327.607 593.5,-327.607"/>
<text text-anchor="middle" x="598.75" y="-339.4" font-family="Times,serif" font-size="14.00">0.5</text>
</g>
<!-- N35 -->
<g id="node36" class="node"><title>N35</title>
<polygon fill="none" stroke="black" points="467.173,-1300.3 406.827,-1300.3 406.827,-1263.7 467.173,-1263.7 467.173,-1300.3"/>
<text text-anchor="middle" x="437" y="-1288.4" font-family="Times,serif" font-size="8.00">strings.SplitN</text>
<text text-anchor="end" x="459.115" y="-1278.8" font-family="Times,serif" font-size="8.00">0.0 (0.0%)</text>
<text text-anchor="end" x="459.115" y="-1269.2" font-family="Times,serif" font-size="8.00">of 0.5 (1.4%)</text>
</g>
<!-- N29&#45;&gt;N35 -->
<g id="edge6" class="edge"><title>N29&#45;&gt;N35</title>
<path fill="none" stroke="black" d="M460.074,-1385.55C455.635,-1365.82 448.35,-1333.45 443.154,-1310.35"/>
<polygon fill="black" stroke="black" points="446.541,-1309.46 440.931,-1300.47 439.711,-1310.99 446.541,-1309.46"/>
<text text-anchor="middle" x="461.75" y="-1343.4" font-family="Times,serif" font-size="14.00">0.5</text>
</g>
<!-- N30 -->
<g id="node31" class="node"><title>N30</title>
<polygon fill="none" stroke="black" points="618.994,-225.301 561.006,-225.301 561.006,-188.699 618.994,-188.699 618.994,-225.301"/>
<text text-anchor="middle" x="590" y="-213.4" font-family="Times,serif" font-size="8.00">procresize</text>
<text text-anchor="end" x="611.328" y="-203.8" font-family="Times,serif" font-size="8.00">0.0 (0.0%)</text>
<text text-anchor="end" x="611.328" y="-194.2" font-family="Times,serif" font-size="8.00">of 0.5 (1.4%)</text>
</g>
<!-- N32 -->
<g id="node33" class="node"><title>N32</title>
<polygon fill="none" stroke="black" points="618.994,-133.301 561.006,-133.301 561.006,-96.6995 618.994,-96.6995 618.994,-133.301"/>
<text text-anchor="middle" x="590" y="-121.4" font-family="Times,serif" font-size="8.00">runqput</text>
<text text-anchor="end" x="611.328" y="-111.8" font-family="Times,serif" font-size="8.00">0.0 (0.0%)</text>
<text text-anchor="end" x="611.328" y="-102.2" font-family="Times,serif" font-size="8.00">of 0.5 (1.4%)</text>
</g>
<!-- N30&#45;&gt;N32 -->
<g id="edge32" class="edge"><title>N30&#45;&gt;N32</title>
<path fill="none" stroke="black" d="M590,-188.647C590,-175.905 590,-158.334 590,-143.665"/>
<polygon fill="black" stroke="black" points="593.5,-143.607 590,-133.607 586.5,-143.607 593.5,-143.607"/>
<text text-anchor="middle" x="598.75" y="-155.4" font-family="Times,serif" font-size="14.00">0.5</text>
</g>
<!-- N31 -->
<g id="node32" class="node"><title>N31</title>
<polygon fill="none" stroke="black" points="626.979,-41.6202 553.021,-41.6202 553.021,-0.379824 626.979,-0.379824 626.979,-41.6202"/>
<text text-anchor="middle" x="590" y="-23.76" font-family="Times,serif" font-size="13.80">runqgrow</text>
<text text-anchor="end" x="619.318" y="-7.2" font-family="Times,serif" font-size="13.80">0.5 (1.4%)</text>
</g>
<!-- N32&#45;&gt;N31 -->
<g id="edge23" class="edge"><title>N32&#45;&gt;N31</title>
<path fill="none" stroke="black" d="M590,-96.6955C590,-84.13 590,-66.8082 590,-52.0087"/>
<polygon fill="black" stroke="black" points="593.5,-51.7822 590,-41.7822 586.5,-51.7822 593.5,-51.7822"/>
<text text-anchor="middle" x="598.75" y="-63.4" font-family="Times,serif" font-size="14.00">0.5</text>
</g>
<!-- N33&#45;&gt;N28 -->
<g id="edge30" class="edge"><title>N33&#45;&gt;N28</title>
<path fill="none" stroke="black" d="M590,-464.647C590,-451.905 590,-434.334 590,-419.665"/>
<polygon fill="black" stroke="black" points="593.5,-419.607 590,-409.607 586.5,-419.607 593.5,-419.607"/>
<text text-anchor="middle" x="598.75" y="-431.4" font-family="Times,serif" font-size="14.00">0.5</text>
</g>
<!-- N34&#45;&gt;N30 -->
<g id="edge24" class="edge"><title>N34&#45;&gt;N30</title>
<path fill="none" stroke="black" d="M590,-280.647C590,-267.905 590,-250.334 590,-235.665"/>
<polygon fill="black" stroke="black" points="593.5,-235.607 590,-225.607 586.5,-235.607 593.5,-235.607"/>
<text text-anchor="middle" x="598.75" y="-247.4" font-family="Times,serif" font-size="14.00">0.5</text>
</g>
<!-- N36 -->
<g id="node37" class="node"><title>N36</title>
<polygon fill="none" stroke="black" points="514.003,-1107.3 447.997,-1107.3 447.997,-1070.7 514.003,-1070.7 514.003,-1107.3"/>
<text text-anchor="middle" x="481" y="-1095.4" font-family="Times,serif" font-size="8.00">strings.genSplit</text>
<text text-anchor="end" x="506.002" y="-1085.8" font-family="Times,serif" font-size="8.00">0.0 (0.0%)</text>
<text text-anchor="end" x="506.002" y="-1076.2" font-family="Times,serif" font-size="8.00">of 0.5 (1.4%)</text>
</g>
<!-- N35&#45;&gt;N36 -->
<g id="edge11" class="edge"><title>N35&#45;&gt;N36</title>
<path fill="none" stroke="black" d="M436.458,-1263.61C436.12,-1234.24 437.928,-1173.37 456,-1126 457.326,-1122.53 459.056,-1119.07 460.989,-1115.74"/>
<polygon fill="black" stroke="black" points="463.932,-1117.63 466.438,-1107.34 458.06,-1113.83 463.932,-1117.63"/>
<text text-anchor="middle" x="446.75" y="-1209.4" font-family="Times,serif" font-size="14.00">0.5</text>
</g>
<!-- N36&#45;&gt;N15 -->
<g id="edge26" class="edge"><title>N36&#45;&gt;N15</title>
<path fill="none" stroke="black" d="M483.655,-1070.41C490.491,-1027.64 510.753,-915.313 547,-828 553.622,-812.049 563.34,-795.42 571.863,-782.168"/>
<polygon fill="black" stroke="black" points="574.94,-783.858 577.52,-773.582 569.095,-780.007 574.94,-783.858"/>
<text text-anchor="middle" x="514.75" y="-957.4" font-family="Times,serif" font-size="14.00">0.5</text>
</g>
</g>
</g></svg>
