<?xml version="1.0" encoding="UTF-8" standalone="no"?>
<!DOCTYPE svg PUBLIC "-//W3C//DTD SVG 1.1//EN"
 "http://www.w3.org/Graphics/SVG/1.1/DTD/svg11.dtd">
<!-- Generated by graphviz version 2.30.1 (20130612.0156)
 -->
<!-- Title: dskvs.test; 33.5 MB Pages: 1 -->
<svg width="100%" height="100%"
  xmlns="http://www.w3.org/2000/svg" xmlns:xlink="http://www.w3.org/1999/xlink">
<script type="text/ecmascript"><![CDATA[
// SVGPan
// http://www.cyberz.org/blog/2009/12/08/svgpan-a-javascript-svg-panzoomdrag-library/
// Local modification: if(true || ...) below to force panning, never moving.
// Local modification: add clamping to fix bug in handleMouseWheel.

/**
 *  SVGPan library 1.2
 * ====================
 *
 * Given an unique existing element with id "viewport", including the
 * the library into any SVG adds the following capabilities:
 *
 *  - Mouse panning
 *  - Mouse zooming (using the wheel)
 *  - Object dargging
 *
 * Known issues:
 *
 *  - Zooming (while panning) on Safari has still some issues
 *
 * Releases:
 *
 * 1.2, Sat Mar 20 08:42:50 GMT 2010, Zeng Xiaohui
 *	Fixed a bug with browser mouse handler interaction
 *
 * 1.1, Wed Feb  3 17:39:33 GMT 2010, Zeng Xiaohui
 *	Updated the zoom code to support the mouse wheel on Safari/Chrome
 *
 * 1.0, Andrea Leofreddi
 *	First release
 *
 * This code is licensed under the following BSD license:
 *
 * Copyright 2009-2010 Andrea Leofreddi <a.leofreddi@itcharm.com>. All rights reserved.
 *
 * Redistribution and use in source and binary forms, with or without modification, are
 * permitted provided that the following conditions are met:
 *
 *    1. Redistributions of source code must retain the above copyright notice, this list of
 *       conditions and the following disclaimer.
 *
 *    2. Redistributions in binary form must reproduce the above copyright notice, this list
 *       of conditions and the following disclaimer in the documentation and/or other materials
 *       provided with the distribution.
 *
 * THIS SOFTWARE IS PROVIDED BY Andrea Leofreddi ``AS IS'' AND ANY EXPRESS OR IMPLIED
 * WARRANTIES, INCLUDING, BUT NOT LIMITED TO, THE IMPLIED WARRANTIES OF MERCHANTABILITY AND
 * FITNESS FOR A PARTICULAR PURPOSE ARE DISCLAIMED. IN NO EVENT SHALL Andrea Leofreddi OR
 * CONTRIBUTORS BE LIABLE FOR ANY DIRECT, INDIRECT, INCIDENTAL, SPECIAL, EXEMPLARY, OR
 * CONSEQUENTIAL DAMAGES (INCLUDING, BUT NOT LIMITED TO, PROCUREMENT OF SUBSTITUTE GOODS OR
 * SERVICES; LOSS OF USE, DATA, OR PROFITS; OR BUSINESS INTERRUPTION) HOWEVER CAUSED AND ON
 * ANY THEORY OF LIABILITY, WHETHER IN CONTRACT, STRICT LIABILITY, OR TORT (INCLUDING
 * NEGLIGENCE OR OTHERWISE) ARISING IN ANY WAY OUT OF THE USE OF THIS SOFTWARE, EVEN IF
 * ADVISED OF THE POSSIBILITY OF SUCH DAMAGE.
 *
 * The views and conclusions contained in the software and documentation are those of the
 * authors and should not be interpreted as representing official policies, either expressed
 * or implied, of Andrea Leofreddi.
 */

var root = document.documentElement;

var state = 'none', stateTarget, stateOrigin, stateTf;

setupHandlers(root);

/**
 * Register handlers
 */
function setupHandlers(root){
	setAttributes(root, {
		"onmouseup" : "add(evt)",
		"onmousedown" : "handleMouseDown(evt)",
		"onmousemove" : "handleMouseMove(evt)",
		"onmouseup" : "handleMouseUp(evt)",
		//"onmouseout" : "handleMouseUp(evt)", // Decomment this to stop the pan functionality when dragging out of the SVG element
	});

	if(navigator.userAgent.toLowerCase().indexOf('webkit') >= 0)
		window.addEventListener('mousewheel', handleMouseWheel, false); // Chrome/Safari
	else
		window.addEventListener('DOMMouseScroll', handleMouseWheel, false); // Others

	var g = svgDoc.getElementById("svg");
	g.width = "100%";
	g.height = "100%";
}

/**
 * Instance an SVGPoint object with given event coordinates.
 */
function getEventPoint(evt) {
	var p = root.createSVGPoint();

	p.x = evt.clientX;
	p.y = evt.clientY;

	return p;
}

/**
 * Sets the current transform matrix of an element.
 */
function setCTM(element, matrix) {
	var s = "matrix(" + matrix.a + "," + matrix.b + "," + matrix.c + "," + matrix.d + "," + matrix.e + "," + matrix.f + ")";

	element.setAttribute("transform", s);
}

/**
 * Dumps a matrix to a string (useful for debug).
 */
function dumpMatrix(matrix) {
	var s = "[ " + matrix.a + ", " + matrix.c + ", " + matrix.e + "\n  " + matrix.b + ", " + matrix.d + ", " + matrix.f + "\n  0, 0, 1 ]";

	return s;
}

/**
 * Sets attributes of an element.
 */
function setAttributes(element, attributes){
	for (i in attributes)
		element.setAttributeNS(null, i, attributes[i]);
}

/**
 * Handle mouse move event.
 */
function handleMouseWheel(evt) {
	if(evt.preventDefault)
		evt.preventDefault();

	evt.returnValue = false;

	var svgDoc = evt.target.ownerDocument;

	var delta;

	if(evt.wheelDelta)
		delta = evt.wheelDelta / 3600; // Chrome/Safari
	else
		delta = evt.detail / -90; // Mozilla

	var z = 1 + delta; // Zoom factor: 0.9/1.1

	// Clamp to reasonable values.
	// The 0.1 check is important because
	// a very large scroll can turn into a
	// negative z, which rotates the image 180 degrees.
	if(z < 0.1)
		z = 0.1;
	if(z > 10.0)
		z = 10.0;

	var g = svgDoc.getElementById("viewport");

	var p = getEventPoint(evt);

	p = p.matrixTransform(g.getCTM().inverse());

	// Compute new scale matrix in current mouse position
	var k = root.createSVGMatrix().translate(p.x, p.y).scale(z).translate(-p.x, -p.y);

        setCTM(g, g.getCTM().multiply(k));

	stateTf = stateTf.multiply(k.inverse());
}

/**
 * Handle mouse move event.
 */
function handleMouseMove(evt) {
	if(evt.preventDefault)
		evt.preventDefault();

	evt.returnValue = false;

	var svgDoc = evt.target.ownerDocument;

	var g = svgDoc.getElementById("viewport");

	if(state == 'pan') {
		// Pan mode
		var p = getEventPoint(evt).matrixTransform(stateTf);

		setCTM(g, stateTf.inverse().translate(p.x - stateOrigin.x, p.y - stateOrigin.y));
	} else if(state == 'move') {
		// Move mode
		var p = getEventPoint(evt).matrixTransform(g.getCTM().inverse());

		setCTM(stateTarget, root.createSVGMatrix().translate(p.x - stateOrigin.x, p.y - stateOrigin.y).multiply(g.getCTM().inverse()).multiply(stateTarget.getCTM()));

		stateOrigin = p;
	}
}

/**
 * Handle click event.
 */
function handleMouseDown(evt) {
	if(evt.preventDefault)
		evt.preventDefault();

	evt.returnValue = false;

	var svgDoc = evt.target.ownerDocument;

	var g = svgDoc.getElementById("viewport");

	if(true || evt.target.tagName == "svg") {
		// Pan mode
		state = 'pan';

		stateTf = g.getCTM().inverse();

		stateOrigin = getEventPoint(evt).matrixTransform(stateTf);
	} else {
		// Move mode
		state = 'move';

		stateTarget = evt.target;

		stateTf = g.getCTM().inverse();

		stateOrigin = getEventPoint(evt).matrixTransform(stateTf);
	}
}

/**
 * Handle mouse button release event.
 */
function handleMouseUp(evt) {
	if(evt.preventDefault)
		evt.preventDefault();

	evt.returnValue = false;

	var svgDoc = evt.target.ownerDocument;

	if(state == 'pan' || state == 'move') {
		// Quit pan mode
		state = '';
	}
}

]]></script>
<g id="viewport" transform="translate(0,0)">
<g id="viewport" class="graph" transform="scale(1 1) rotate(0) translate(4 1308)">
<title>dskvs.test; 33.5 MB</title>
<polygon fill="white" stroke="white" points="-4,5 -4,-1308 1038,-1308 1038,5 -4,5"/>
<!-- Legend -->
<g id="node1" class="node"><title>Legend</title>
<text text-anchor="start" x="216.484" y="-1276" font-family="Times,serif" font-size="24.00">dskvs.test</text>
<text text-anchor="start" x="216.484" y="-1247.2" font-family="Times,serif" font-size="24.00">Total MB: 33.5</text>
<text text-anchor="start" x="216.484" y="-1218.4" font-family="Times,serif" font-size="24.00">Focusing on: 33.5</text>
<text text-anchor="start" x="216.484" y="-1189.6" font-family="Times,serif" font-size="24.00">Dropped nodes with &lt;= 0.2 abs(MB)</text>
<text text-anchor="start" x="216.484" y="-1160.8" font-family="Times,serif" font-size="24.00">Dropped edges with &lt;= 0.0 MB</text>
</g>
<!-- N1 -->
<g id="node2" class="node"><title>N1</title>
<polygon fill="none" stroke="black" points="667.994,-1246.3 598.006,-1246.3 598.006,-1209.7 667.994,-1209.7 667.994,-1246.3"/>
<text text-anchor="middle" x="633" y="-1234.4" font-family="Times,serif" font-size="8.00">gosched0</text>
<text text-anchor="end" x="660.328" y="-1224.8" font-family="Times,serif" font-size="8.00">0.0 (0.0%)</text>
<text text-anchor="end" x="660.328" y="-1215.2" font-family="Times,serif" font-size="8.00">of 33.5 (100.0%)</text>
</g>
<!-- N9 -->
<g id="node10" class="node"><title>N9</title>
<polygon fill="none" stroke="black" points="603.994,-1097.3 538.006,-1097.3 538.006,-1060.7 603.994,-1060.7 603.994,-1097.3"/>
<text text-anchor="middle" x="571" y="-1085.4" font-family="Times,serif" font-size="8.00">testing.tRunner</text>
<text text-anchor="end" x="596.328" y="-1075.8" font-family="Times,serif" font-size="8.00">0.0 (0.0%)</text>
<text text-anchor="end" x="596.328" y="-1066.2" font-family="Times,serif" font-size="8.00">of 13.5 (40.3%)</text>
</g>
<!-- N1&#45;&gt;N9 -->
<g id="edge4" class="edge"><title>N1&#45;&gt;N9</title>
<path fill="none" stroke="black" stroke-width="2" d="M625.644,-1209.56C614.924,-1184.14 594.915,-1136.7 582.312,-1106.82"/>
<polygon fill="black" stroke="black" points="585.457,-1105.27 578.346,-1097.42 579.007,-1107.99 585.457,-1105.27"/>
<text text-anchor="middle" x="604.25" y="-1119.4" font-family="Times,serif" font-size="14.00">13.5</text>
</g>
<!-- N6 -->
<g id="node7" class="node"><title>N6</title>
<polygon fill="none" stroke="black" points="782.326,-1041.3 629.674,-1041.3 629.674,-1004.7 782.326,-1004.7 782.326,-1041.3"/>
<text text-anchor="middle" x="706" y="-1029.4" font-family="Times,serif" font-size="8.00">github.com/aybabtme/dskvs.doPutRequest</text>
<text text-anchor="end" x="774.217" y="-1019.8" font-family="Times,serif" font-size="8.00">0.0 (0.0%)</text>
<text text-anchor="end" x="774.217" y="-1010.2" font-family="Times,serif" font-size="8.00">of 20.0 (59.7%)</text>
</g>
<!-- N1&#45;&gt;N6 -->
<g id="edge24" class="edge"><title>N1&#45;&gt;N6</title>
<path fill="none" stroke="black" stroke-width="2" d="M639.224,-1209.69C651.933,-1174.35 680.953,-1093.65 696.211,-1051.22"/>
<polygon fill="black" stroke="black" points="699.598,-1052.15 699.688,-1041.55 693.011,-1049.78 699.598,-1052.15"/>
<text text-anchor="middle" x="684.25" y="-1119.4" font-family="Times,serif" font-size="14.00">20.0</text>
</g>
<!-- N2 -->
<g id="node3" class="node"><title>N2</title>
<polygon fill="none" stroke="black" points="816.156,-893.301 669.844,-893.301 669.844,-856.699 816.156,-856.699 816.156,-893.301"/>
<text text-anchor="middle" x="743" y="-881.4" font-family="Times,serif" font-size="8.00">github.com/aybabtme/dskvs.(*Store).Put</text>
<text text-anchor="end" x="808.438" y="-871.8" font-family="Times,serif" font-size="8.00">0.0 (0.0%)</text>
<text text-anchor="end" x="808.438" y="-862.2" font-family="Times,serif" font-size="8.00">of 21.5 (64.2%)</text>
</g>
<!-- N3 -->
<g id="node4" class="node"><title>N3</title>
<polygon fill="none" stroke="black" points="825.147,-796.301 660.853,-796.301 660.853,-759.699 825.147,-759.699 825.147,-796.301"/>
<text text-anchor="middle" x="743" y="-784.4" font-family="Times,serif" font-size="8.00">github.com/aybabtme/dskvs.(*collections).put</text>
<text text-anchor="end" x="817.098" y="-774.8" font-family="Times,serif" font-size="8.00">0.0 (0.0%)</text>
<text text-anchor="end" x="817.098" y="-765.2" font-family="Times,serif" font-size="8.00">of 21.5 (64.2%)</text>
</g>
<!-- N2&#45;&gt;N3 -->
<g id="edge6" class="edge"><title>N2&#45;&gt;N3</title>
<path fill="none" stroke="black" stroke-width="2" d="M743,-856.576C743,-842.648 743,-822.861 743,-806.757"/>
<polygon fill="black" stroke="black" points="746.5,-806.314 743,-796.314 739.5,-806.314 746.5,-806.314"/>
<text text-anchor="middle" x="755.25" y="-823.4" font-family="Times,serif" font-size="14.00">21.5</text>
</g>
<!-- N4 -->
<g id="node5" class="node"><title>N4</title>
<polygon fill="none" stroke="black" points="913.189,-699.46 572.811,-699.46 572.811,-624.54 913.189,-624.54 913.189,-699.46"/>
<text text-anchor="middle" x="743" y="-676.88" font-family="Times,serif" font-size="18.60">github.com/aybabtme/dskvs.(*member).put</text>
<text text-anchor="end" x="905.459" y="-654.56" font-family="Times,serif" font-size="18.60">1.5 (4.5%)</text>
<text text-anchor="end" x="905.459" y="-632.24" font-family="Times,serif" font-size="18.60">of 21.5 (64.2%)</text>
</g>
<!-- N3&#45;&gt;N4 -->
<g id="edge9" class="edge"><title>N3&#45;&gt;N4</title>
<path fill="none" stroke="black" stroke-width="2" d="M743,-759.686C743,-746.46 743,-727.576 743,-710.001"/>
<polygon fill="black" stroke="black" points="746.5,-709.858 743,-699.858 739.5,-709.858 746.5,-709.858"/>
<text text-anchor="middle" x="755.25" y="-721.4" font-family="Times,serif" font-size="14.00">21.5</text>
</g>
<!-- N5 -->
<g id="node6" class="node"><title>N5</title>
<polygon fill="none" stroke="black" points="814.478,-558.301 671.522,-558.301 671.522,-521.699 814.478,-521.699 814.478,-558.301"/>
<text text-anchor="middle" x="743" y="-546.4" font-family="Times,serif" font-size="8.00">github.com/aybabtme/dskvs.(*page).set</text>
<text text-anchor="end" x="806.652" y="-536.8" font-family="Times,serif" font-size="8.00">0.0 (0.0%)</text>
<text text-anchor="end" x="806.652" y="-527.2" font-family="Times,serif" font-size="8.00">of 20.0 (59.7%)</text>
</g>
<!-- N4&#45;&gt;N5 -->
<g id="edge13" class="edge"><title>N4&#45;&gt;N5</title>
<path fill="none" stroke="black" stroke-width="2" d="M743,-624.344C743,-606.364 743,-585.071 743,-568.508"/>
<polygon fill="black" stroke="black" points="746.5,-568.389 743,-558.389 739.5,-568.389 746.5,-568.389"/>
<text text-anchor="middle" x="755.25" y="-591.4" font-family="Times,serif" font-size="14.00">20.0</text>
</g>
<!-- N8 -->
<g id="node9" class="node"><title>N8</title>
<polygon fill="none" stroke="black" points="779.149,-442.301 706.851,-442.301 706.851,-405.699 779.149,-405.699 779.149,-442.301"/>
<text text-anchor="middle" x="743" y="-430.4" font-family="Times,serif" font-size="8.00">runtime.deferproc</text>
<text text-anchor="end" x="771.764" y="-420.8" font-family="Times,serif" font-size="8.00">0.0 (0.0%)</text>
<text text-anchor="end" x="771.764" y="-411.2" font-family="Times,serif" font-size="8.00">of 20.0 (59.7%)</text>
</g>
<!-- N5&#45;&gt;N8 -->
<g id="edge26" class="edge"><title>N5&#45;&gt;N8</title>
<path fill="none" stroke="black" stroke-width="2" d="M743,-521.686C743,-503.356 743,-474.156 743,-452.637"/>
<polygon fill="black" stroke="black" points="746.5,-452.477 743,-442.477 739.5,-452.477 746.5,-452.477"/>
<text text-anchor="middle" x="755.25" y="-477.4" font-family="Times,serif" font-size="14.00">20.0</text>
</g>
<!-- N6&#45;&gt;N2 -->
<g id="edge3" class="edge"><title>N6&#45;&gt;N2</title>
<path fill="none" stroke="black" stroke-width="2" d="M710.39,-1004.68C716.725,-979.678 728.497,-933.228 736.029,-903.507"/>
<polygon fill="black" stroke="black" points="739.437,-904.308 738.501,-893.754 732.651,-902.588 739.437,-904.308"/>
<text text-anchor="middle" x="736.25" y="-961.4" font-family="Times,serif" font-size="14.00">20.0</text>
</g>
<!-- N7 -->
<g id="node8" class="node"><title>N7</title>
<polygon fill="none" stroke="black" points="872.954,-337.84 613.046,-337.84 613.046,-218.16 872.954,-218.16 872.954,-337.84"/>
<text text-anchor="middle" x="743" y="-287.32" font-family="Times,serif" font-size="46.60">newdefer</text>
<text text-anchor="end" x="865.302" y="-231.4" font-family="Times,serif" font-size="46.60">20.0 (59.7%)</text>
</g>
<!-- N8&#45;&gt;N7 -->
<g id="edge25" class="edge"><title>N8&#45;&gt;N7</title>
<path fill="none" stroke="black" stroke-width="2" d="M743,-405.63C743,-391.1 743,-369.37 743,-347.994"/>
<polygon fill="black" stroke="black" points="746.5,-347.894 743,-337.894 739.5,-347.894 746.5,-347.894"/>
<text text-anchor="middle" x="755.25" y="-359.4" font-family="Times,serif" font-size="14.00">20.0</text>
</g>
<!-- N10 -->
<g id="node11" class="node"><title>N10</title>
<polygon fill="none" stroke="black" points="417.223,-985.301 176.777,-985.301 176.777,-948.699 417.223,-948.699 417.223,-985.301"/>
<text text-anchor="middle" x="297" y="-973.4" font-family="Times,serif" font-size="8.00">github.com/aybabtme/dskvs.TestMultipleOperationsPersistAfterClose</text>
<text text-anchor="end" x="409.148" y="-963.8" font-family="Times,serif" font-size="8.00">0.0 (0.0%)</text>
<text text-anchor="end" x="409.148" y="-954.2" font-family="Times,serif" font-size="8.00">of 11.0 (32.8%)</text>
</g>
<!-- N9&#45;&gt;N10 -->
<g id="edge1" class="edge"><title>N9&#45;&gt;N10</title>
<path fill="none" stroke="black" stroke-width="1.97015" d="M537.949,-1064.73C491.26,-1045.99 405.496,-1011.56 349.889,-989.233"/>
<polygon fill="black" stroke="black" points="351.139,-985.963 340.554,-985.485 348.531,-992.459 351.139,-985.963"/>
<text text-anchor="middle" x="486.994" y="-1017.4" font-family="Times,serif" font-size="14.00">11.0</text>
</g>
<!-- N21 -->
<g id="node22" class="node"><title>N21</title>
<polygon fill="none" stroke="black" points="706.138,-985.301 435.862,-985.301 435.862,-948.699 706.138,-948.699 706.138,-985.301"/>
<text text-anchor="middle" x="571" y="-973.4" font-family="Times,serif" font-size="8.00">github.com/aybabtme/dskvs.TestOneOperationWithMultipleConcurrentRequest</text>
<text text-anchor="end" x="698.758" y="-963.8" font-family="Times,serif" font-size="8.00">0.0 (0.0%)</text>
<text text-anchor="end" x="698.758" y="-954.2" font-family="Times,serif" font-size="8.00">of 2.5 (7.5%)</text>
</g>
<!-- N9&#45;&gt;N21 -->
<g id="edge22" class="edge"><title>N9&#45;&gt;N21</title>
<path fill="none" stroke="black" d="M571,-1060.33C571,-1042.93 571,-1016.09 571,-995.825"/>
<polygon fill="black" stroke="black" points="574.5,-995.63 571,-985.63 567.5,-995.63 574.5,-995.63"/>
<text text-anchor="middle" x="579.75" y="-1017.4" font-family="Times,serif" font-size="14.00">2.5</text>
</g>
<!-- N13 -->
<g id="node14" class="node"><title>N13</title>
<polygon fill="none" stroke="black" points="311.99,-893.301 186.01,-893.301 186.01,-856.699 311.99,-856.699 311.99,-893.301"/>
<text text-anchor="middle" x="249" y="-881.4" font-family="Times,serif" font-size="8.00">github.com/aybabtme/dskvs.setUp</text>
<text text-anchor="end" x="304.326" y="-871.8" font-family="Times,serif" font-size="8.00">0.0 (0.0%)</text>
<text text-anchor="end" x="304.326" y="-862.2" font-family="Times,serif" font-size="8.00">of 7.5 (22.4%)</text>
</g>
<!-- N10&#45;&gt;N13 -->
<g id="edge7" class="edge"><title>N10&#45;&gt;N13</title>
<path fill="none" stroke="black" stroke-width="1.34328" d="M287.745,-948.647C280.817,-935.658 271.213,-917.65 263.301,-902.814"/>
<polygon fill="black" stroke="black" points="266.184,-900.783 258.39,-893.607 260.008,-904.077 266.184,-900.783"/>
<text text-anchor="middle" x="286.75" y="-915.4" font-family="Times,serif" font-size="14.00">7.5</text>
</g>
<!-- N27 -->
<g id="node28" class="node"><title>N27</title>
<polygon fill="none" stroke="black" points="483.135,-893.301 332.865,-893.301 332.865,-856.699 483.135,-856.699 483.135,-893.301"/>
<text text-anchor="middle" x="408" y="-881.4" font-family="Times,serif" font-size="8.00">github.com/aybabtme/dskvs.generateData</text>
<text text-anchor="end" x="475.09" y="-871.8" font-family="Times,serif" font-size="8.00">0.0 (0.0%)</text>
<text text-anchor="end" x="475.09" y="-862.2" font-family="Times,serif" font-size="8.00">of 1.0 (3.0%)</text>
</g>
<!-- N10&#45;&gt;N27 -->
<g id="edge10" class="edge"><title>N10&#45;&gt;N27</title>
<path fill="none" stroke="black" d="M318.402,-948.647C335.414,-934.854 359.405,-915.402 378.28,-900.097"/>
<polygon fill="black" stroke="black" points="380.722,-902.623 386.285,-893.607 376.313,-897.186 380.722,-902.623"/>
<text text-anchor="middle" x="371.75" y="-915.4" font-family="Times,serif" font-size="14.00">1.0</text>
</g>
<!-- N16 -->
<g id="node17" class="node"><title>N16</title>
<polygon fill="none" stroke="black" points="279.144,-163.301 202.856,-163.301 202.856,-126.699 279.144,-126.699 279.144,-163.301"/>
<text text-anchor="middle" x="241" y="-151.4" font-family="Times,serif" font-size="8.00">runtime.cnewarray</text>
<text text-anchor="end" x="271.096" y="-141.8" font-family="Times,serif" font-size="8.00">0.0 (0.0%)</text>
<text text-anchor="end" x="271.096" y="-132.2" font-family="Times,serif" font-size="8.00">of 4.5 (13.4%)</text>
</g>
<!-- N10&#45;&gt;N16 -->
<g id="edge15" class="edge"><title>N10&#45;&gt;N16</title>
<path fill="none" stroke="black" d="M395.486,-948.636C479.244,-932.922 588.129,-909.877 602,-894 643.089,-846.97 636.785,-812.145 614,-754 602.066,-723.547 578.683,-729.227 564,-700 543.299,-658.795 545,-644.113 545,-598 545,-598 545,-598 545,-277 545,-166.965 374.948,-148.245 289.214,-145.8"/>
<polygon fill="black" stroke="black" points="289.269,-142.3 279.194,-145.577 289.114,-149.299 289.269,-142.3"/>
<text text-anchor="middle" x="553.75" y="-591.4" font-family="Times,serif" font-size="14.00">0.5</text>
</g>
<!-- N31 -->
<g id="node32" class="node"><title>N31</title>
<polygon fill="none" stroke="black" points="593.485,-893.301 512.515,-893.301 512.515,-856.699 593.485,-856.699 593.485,-893.301"/>
<text text-anchor="middle" x="553" y="-881.4" font-family="Times,serif" font-size="8.00">runtime.concatstring</text>
<text text-anchor="end" x="585.99" y="-871.8" font-family="Times,serif" font-size="8.00">0.0 (0.0%)</text>
<text text-anchor="end" x="585.99" y="-862.2" font-family="Times,serif" font-size="8.00">of 0.5 (1.5%)</text>
</g>
<!-- N10&#45;&gt;N31 -->
<g id="edge20" class="edge"><title>N10&#45;&gt;N31</title>
<path fill="none" stroke="black" d="M346.359,-948.647C391.3,-932.848 457.355,-909.625 502.614,-893.714"/>
<polygon fill="black" stroke="black" points="503.951,-896.954 512.224,-890.335 501.629,-890.35 503.951,-896.954"/>
<text text-anchor="middle" x="456.75" y="-915.4" font-family="Times,serif" font-size="14.00">0.5</text>
</g>
<!-- N10&#45;&gt;N2 -->
<g id="edge31" class="edge"><title>N10&#45;&gt;N2</title>
<path fill="none" stroke="black" d="M417.138,-949.009C420.121,-948.661 423.078,-948.324 426,-948 523.068,-937.247 551.495,-958.19 645,-930 657.424,-926.255 683.569,-911.712 705.731,-898.662"/>
<polygon fill="black" stroke="black" points="707.807,-901.5 714.618,-893.385 704.233,-895.481 707.807,-901.5"/>
<text text-anchor="middle" x="689.75" y="-915.4" font-family="Times,serif" font-size="14.00">1.5</text>
</g>
<!-- N11 -->
<g id="node12" class="node"><title>N11</title>
<polygon fill="none" stroke="black" points="316.981,-796.301 165.019,-796.301 165.019,-759.699 316.981,-759.699 316.981,-796.301"/>
<text text-anchor="middle" x="241" y="-784.4" font-family="Times,serif" font-size="8.00">github.com/aybabtme/dskvs.(*Store).Load</text>
<text text-anchor="end" x="309.32" y="-774.8" font-family="Times,serif" font-size="8.00">0.0 (0.0%)</text>
<text text-anchor="end" x="309.32" y="-765.2" font-family="Times,serif" font-size="8.00">of 7.5 (22.4%)</text>
</g>
<!-- N12 -->
<g id="node13" class="node"><title>N12</title>
<polygon fill="none" stroke="black" points="326.145,-680.301 155.855,-680.301 155.855,-643.699 326.145,-643.699 326.145,-680.301"/>
<text text-anchor="middle" x="241" y="-668.4" font-family="Times,serif" font-size="8.00">github.com/aybabtme/dskvs.(*janitor).loadStore</text>
<text text-anchor="end" x="318.43" y="-658.8" font-family="Times,serif" font-size="8.00">0.0 (0.0%)</text>
<text text-anchor="end" x="318.43" y="-649.2" font-family="Times,serif" font-size="8.00">of 7.5 (22.4%)</text>
</g>
<!-- N11&#45;&gt;N12 -->
<g id="edge30" class="edge"><title>N11&#45;&gt;N12</title>
<path fill="none" stroke="black" stroke-width="1.34328" d="M241,-759.686C241,-741.356 241,-712.156 241,-690.637"/>
<polygon fill="black" stroke="black" points="244.5,-690.477 241,-680.477 237.5,-690.477 244.5,-690.477"/>
<text text-anchor="middle" x="249.75" y="-721.4" font-family="Times,serif" font-size="14.00">7.5</text>
</g>
<!-- N15 -->
<g id="node16" class="node"><title>N15</title>
<polygon fill="none" stroke="black" points="368.161,-569.26 113.839,-569.26 113.839,-510.74 368.161,-510.74 368.161,-569.26"/>
<text text-anchor="middle" x="241" y="-551.28" font-family="Times,serif" font-size="14.10">github.com/aybabtme/dskvs.readFromFile</text>
<text text-anchor="end" x="360.44" y="-534.36" font-family="Times,serif" font-size="14.10">0.5 (1.5%)</text>
<text text-anchor="end" x="360.44" y="-517.44" font-family="Times,serif" font-size="14.10">of 4.5 (13.4%)</text>
</g>
<!-- N12&#45;&gt;N15 -->
<g id="edge16" class="edge"><title>N12&#45;&gt;N15</title>
<path fill="none" stroke="black" d="M241,-643.551C241,-626.904 241,-601.254 241,-579.771"/>
<polygon fill="black" stroke="black" points="244.5,-579.618 241,-569.618 237.5,-579.618 244.5,-579.618"/>
<text text-anchor="middle" x="249.75" y="-591.4" font-family="Times,serif" font-size="14.00">4.5</text>
</g>
<!-- N19 -->
<g id="node20" class="node"><title>N19</title>
<polygon fill="none" stroke="black" points="95.4953,-558.301 24.5047,-558.301 24.5047,-521.699 95.4953,-521.699 95.4953,-558.301"/>
<text text-anchor="middle" x="60" y="-546.4" font-family="Times,serif" font-size="8.00">path/filepath.Join</text>
<text text-anchor="end" x="87.6641" y="-536.8" font-family="Times,serif" font-size="8.00">0.0 (0.0%)</text>
<text text-anchor="end" x="87.6641" y="-527.2" font-family="Times,serif" font-size="8.00">of 3.0 (9.0%)</text>
</g>
<!-- N12&#45;&gt;N19 -->
<g id="edge19" class="edge"><title>N12&#45;&gt;N19</title>
<path fill="none" stroke="black" d="M214.681,-643.551C183.046,-622.577 129.853,-587.312 94.8373,-564.097"/>
<polygon fill="black" stroke="black" points="96.6194,-561.079 86.3507,-558.47 92.7514,-566.913 96.6194,-561.079"/>
<text text-anchor="middle" x="164.75" y="-591.4" font-family="Times,serif" font-size="14.00">3.0</text>
</g>
<!-- N13&#45;&gt;N11 -->
<g id="edge11" class="edge"><title>N13&#45;&gt;N11</title>
<path fill="none" stroke="black" stroke-width="1.34328" d="M247.533,-856.576C246.349,-842.515 244.661,-822.48 243.298,-806.294"/>
<polygon fill="black" stroke="black" points="246.785,-805.985 242.458,-796.314 239.81,-806.572 246.785,-805.985"/>
<text text-anchor="middle" x="254.75" y="-823.4" font-family="Times,serif" font-size="14.00">7.5</text>
</g>
<!-- N14 -->
<g id="node15" class="node"><title>N14</title>
<polygon fill="none" stroke="black" points="311.175,-71.6201 170.825,-71.6201 170.825,-0.379899 311.175,-0.379899 311.175,-71.6201"/>
<text text-anchor="middle" x="241" y="-41.26" font-family="Times,serif" font-size="26.30">cnew</text>
<text text-anchor="end" x="303.45" y="-9.7" font-family="Times,serif" font-size="26.30">4.5 (13.4%)</text>
</g>
<!-- N17 -->
<g id="node18" class="node"><title>N17</title>
<polygon fill="none" stroke="black" points="277.164,-442.301 204.836,-442.301 204.836,-405.699 277.164,-405.699 277.164,-442.301"/>
<text text-anchor="middle" x="241" y="-430.4" font-family="Times,serif" font-size="8.00">io/ioutil.ReadFile</text>
<text text-anchor="end" x="269.109" y="-420.8" font-family="Times,serif" font-size="8.00">0.0 (0.0%)</text>
<text text-anchor="end" x="269.109" y="-411.2" font-family="Times,serif" font-size="8.00">of 4.0 (11.9%)</text>
</g>
<!-- N15&#45;&gt;N17 -->
<g id="edge18" class="edge"><title>N15&#45;&gt;N17</title>
<path fill="none" stroke="black" d="M241,-510.527C241,-492.832 241,-470.195 241,-452.655"/>
<polygon fill="black" stroke="black" points="244.5,-452.483 241,-442.483 237.5,-452.483 244.5,-452.483"/>
<text text-anchor="middle" x="249.75" y="-477.4" font-family="Times,serif" font-size="14.00">4.0</text>
</g>
<!-- N16&#45;&gt;N14 -->
<g id="edge32" class="edge"><title>N16&#45;&gt;N14</title>
<path fill="none" stroke="black" d="M241,-126.331C241,-114.158 241,-97.405 241,-81.6937"/>
<polygon fill="black" stroke="black" points="244.5,-81.5782 241,-71.5782 237.5,-81.5783 244.5,-81.5782"/>
<text text-anchor="middle" x="249.75" y="-93.4" font-family="Times,serif" font-size="14.00">4.5</text>
</g>
<!-- N18 -->
<g id="node19" class="node"><title>N18</title>
<polygon fill="none" stroke="black" points="274.492,-296.301 207.508,-296.301 207.508,-259.699 274.492,-259.699 274.492,-296.301"/>
<text text-anchor="middle" x="241" y="-284.4" font-family="Times,serif" font-size="8.00">io/ioutil.readAll</text>
<text text-anchor="end" x="266.662" y="-274.8" font-family="Times,serif" font-size="8.00">0.0 (0.0%)</text>
<text text-anchor="end" x="266.662" y="-265.2" font-family="Times,serif" font-size="8.00">of 4.0 (11.9%)</text>
</g>
<!-- N17&#45;&gt;N18 -->
<g id="edge29" class="edge"><title>N17&#45;&gt;N18</title>
<path fill="none" stroke="black" d="M241,-405.63C241,-381.088 241,-336.002 241,-306.779"/>
<polygon fill="black" stroke="black" points="244.5,-306.431 241,-296.431 237.5,-306.431 244.5,-306.431"/>
<text text-anchor="middle" x="249.75" y="-359.4" font-family="Times,serif" font-size="14.00">4.0</text>
</g>
<!-- N18&#45;&gt;N16 -->
<g id="edge27" class="edge"><title>N18&#45;&gt;N16</title>
<path fill="none" stroke="black" d="M241,-259.604C241,-237.681 241,-199.733 241,-173.776"/>
<polygon fill="black" stroke="black" points="244.5,-173.468 241,-163.468 237.5,-173.468 244.5,-173.468"/>
<text text-anchor="middle" x="249.75" y="-185.4" font-family="Times,serif" font-size="14.00">4.0</text>
</g>
<!-- N20 -->
<g id="node21" class="node"><title>N20</title>
<polygon fill="none" stroke="black" points="120.573,-455.7 -0.573224,-455.7 -0.573224,-392.3 120.573,-392.3 120.573,-455.7"/>
<text text-anchor="middle" x="60" y="-428.6" font-family="Times,serif" font-size="23.00">strings.Join</text>
<text text-anchor="end" x="112.716" y="-401" font-family="Times,serif" font-size="23.00">3.0 (9.0%)</text>
</g>
<!-- N19&#45;&gt;N20 -->
<g id="edge2" class="edge"><title>N19&#45;&gt;N20</title>
<path fill="none" stroke="black" d="M60,-521.686C60,-506.902 60,-485.048 60,-465.856"/>
<polygon fill="black" stroke="black" points="63.5001,-465.822 60,-455.822 56.5001,-465.822 63.5001,-465.822"/>
<text text-anchor="middle" x="68.75" y="-477.4" font-family="Times,serif" font-size="14.00">3.0</text>
</g>
<!-- N22 -->
<g id="node23" class="node"><title>N22</title>
<polygon fill="none" stroke="black" points="969.401,-893.301 838.599,-893.301 838.599,-856.699 969.401,-856.699 969.401,-893.301"/>
<text text-anchor="middle" x="904" y="-881.4" font-family="Times,serif" font-size="8.00">github.com/aybabtme/dskvs.runTest</text>
<text text-anchor="end" x="961.934" y="-871.8" font-family="Times,serif" font-size="8.00">0.0 (0.0%)</text>
<text text-anchor="end" x="961.934" y="-862.2" font-family="Times,serif" font-size="8.00">of 2.5 (7.5%)</text>
</g>
<!-- N21&#45;&gt;N22 -->
<g id="edge8" class="edge"><title>N21&#45;&gt;N22</title>
<path fill="none" stroke="black" d="M635.206,-948.647C690.858,-933.606 771.406,-911.836 829.804,-896.053"/>
<polygon fill="black" stroke="black" points="830.968,-899.364 839.708,-893.376 829.141,-892.607 830.968,-899.364"/>
<text text-anchor="middle" x="775.75" y="-915.4" font-family="Times,serif" font-size="14.00">2.5</text>
</g>
<!-- N23 -->
<g id="node24" class="node"><title>N23</title>
<polygon fill="none" stroke="black" points="965.32,-796.301 894.68,-796.301 894.68,-759.699 965.32,-759.699 965.32,-796.301"/>
<text text-anchor="middle" x="930" y="-784.4" font-family="Times,serif" font-size="8.00">runtime.newproc</text>
<text text-anchor="end" x="957.213" y="-774.8" font-family="Times,serif" font-size="8.00">0.0 (0.0%)</text>
<text text-anchor="end" x="957.213" y="-765.2" font-family="Times,serif" font-size="8.00">of 2.5 (7.5%)</text>
</g>
<!-- N22&#45;&gt;N23 -->
<g id="edge14" class="edge"><title>N22&#45;&gt;N23</title>
<path fill="none" stroke="black" d="M908.769,-856.576C912.617,-842.515 918.1,-822.48 922.53,-806.294"/>
<polygon fill="black" stroke="black" points="925.997,-806.883 925.261,-796.314 919.246,-805.035 925.997,-806.883"/>
<text text-anchor="middle" x="926.75" y="-823.4" font-family="Times,serif" font-size="14.00">2.5</text>
</g>
<!-- N24 -->
<g id="node25" class="node"><title>N24</title>
<polygon fill="none" stroke="black" points="1006.32,-680.301 931.68,-680.301 931.68,-643.699 1006.32,-643.699 1006.32,-680.301"/>
<text text-anchor="middle" x="969" y="-668.4" font-family="Times,serif" font-size="8.00">runtime.newproc1</text>
<text text-anchor="end" x="998.213" y="-658.8" font-family="Times,serif" font-size="8.00">0.0 (0.0%)</text>
<text text-anchor="end" x="998.213" y="-649.2" font-family="Times,serif" font-size="8.00">of 2.5 (7.5%)</text>
</g>
<!-- N23&#45;&gt;N24 -->
<g id="edge12" class="edge"><title>N23&#45;&gt;N24</title>
<path fill="none" stroke="black" d="M935.923,-759.686C942.251,-741.188 952.366,-711.622 959.746,-690.049"/>
<polygon fill="black" stroke="black" points="963.096,-691.072 963.021,-680.477 956.472,-688.806 963.096,-691.072"/>
<text text-anchor="middle" x="957.75" y="-721.4" font-family="Times,serif" font-size="14.00">2.5</text>
</g>
<!-- N30 -->
<g id="node31" class="node"><title>N30</title>
<polygon fill="none" stroke="black" points="890.994,-558.301 833.006,-558.301 833.006,-521.699 890.994,-521.699 890.994,-558.301"/>
<text text-anchor="middle" x="862" y="-546.4" font-family="Times,serif" font-size="8.00">runqput</text>
<text text-anchor="end" x="883.328" y="-536.8" font-family="Times,serif" font-size="8.00">0.0 (0.0%)</text>
<text text-anchor="end" x="883.328" y="-527.2" font-family="Times,serif" font-size="8.00">of 0.5 (1.5%)</text>
</g>
<!-- N24&#45;&gt;N30 -->
<g id="edge5" class="edge"><title>N24&#45;&gt;N30</title>
<path fill="none" stroke="black" d="M953.441,-643.551C935.294,-623.199 905.149,-589.391 884.464,-566.193"/>
<polygon fill="black" stroke="black" points="886.845,-563.605 877.577,-558.47 881.62,-568.263 886.845,-563.605"/>
<text text-anchor="middle" x="926.75" y="-591.4" font-family="Times,serif" font-size="14.00">0.5</text>
</g>
<!-- N25 -->
<g id="node26" class="node"><title>N25</title>
<polygon fill="none" stroke="black" points="1033.2,-568.482 908.798,-568.482 908.798,-511.518 1033.2,-511.518 1033.2,-568.482"/>
<text text-anchor="middle" x="971" y="-544.04" font-family="Times,serif" font-size="20.20">runtime.malg</text>
<text text-anchor="end" x="1025.13" y="-519.8" font-family="Times,serif" font-size="20.20">2.0 (6.0%)</text>
</g>
<!-- N24&#45;&gt;N25 -->
<g id="edge23" class="edge"><title>N24&#45;&gt;N25</title>
<path fill="none" stroke="black" d="M969.291,-643.551C969.572,-626.681 970.007,-600.563 970.368,-578.908"/>
<polygon fill="black" stroke="black" points="973.871,-578.753 970.538,-568.696 966.872,-578.637 973.871,-578.753"/>
<text text-anchor="middle" x="978.75" y="-591.4" font-family="Times,serif" font-size="14.00">2.0</text>
</g>
<!-- N26 -->
<g id="node27" class="node"><title>N26</title>
<polygon fill="none" stroke="black" points="502.259,-801.84 335.741,-801.84 335.741,-754.16 502.259,-754.16 502.259,-801.84"/>
<text text-anchor="middle" x="419" y="-781.32" font-family="Times,serif" font-size="16.60">encoding/json.Marshal</text>
<text text-anchor="end" x="494.839" y="-761.4" font-family="Times,serif" font-size="16.60">1.0 (3.0%)</text>
</g>
<!-- N27&#45;&gt;N26 -->
<g id="edge17" class="edge"><title>N27&#45;&gt;N26</title>
<path fill="none" stroke="black" d="M410.018,-856.576C411.459,-844.128 413.442,-827 415.179,-812.004"/>
<polygon fill="black" stroke="black" points="418.658,-812.382 416.332,-802.046 411.704,-811.577 418.658,-812.382"/>
<text text-anchor="middle" x="423.75" y="-823.4" font-family="Times,serif" font-size="14.00">1.0</text>
</g>
<!-- N28 -->
<g id="node29" class="node"><title>N28</title>
<polygon fill="none" stroke="black" points="605.183,-798.84 520.817,-798.84 520.817,-757.16 605.183,-757.16 605.183,-798.84"/>
<text text-anchor="middle" x="563" y="-780.82" font-family="Times,serif" font-size="14.10">concatstring</text>
<text text-anchor="end" x="597.455" y="-763.9" font-family="Times,serif" font-size="14.10">0.5 (1.5%)</text>
</g>
<!-- N29 -->
<g id="node30" class="node"><title>N29</title>
<polygon fill="none" stroke="black" points="899.434,-444.84 824.566,-444.84 824.566,-403.16 899.434,-403.16 899.434,-444.84"/>
<text text-anchor="middle" x="862" y="-426.82" font-family="Times,serif" font-size="14.10">runqgrow</text>
<text text-anchor="end" x="891.956" y="-409.9" font-family="Times,serif" font-size="14.10">0.5 (1.5%)</text>
</g>
<!-- N30&#45;&gt;N29 -->
<g id="edge21" class="edge"><title>N30&#45;&gt;N29</title>
<path fill="none" stroke="black" d="M862,-521.686C862,-504.102 862,-476.515 862,-455.301"/>
<polygon fill="black" stroke="black" points="865.5,-455.174 862,-445.174 858.5,-455.174 865.5,-455.174"/>
<text text-anchor="middle" x="870.75" y="-477.4" font-family="Times,serif" font-size="14.00">0.5</text>
</g>
<!-- N31&#45;&gt;N28 -->
<g id="edge28" class="edge"><title>N31&#45;&gt;N28</title>
<path fill="none" stroke="black" d="M554.834,-856.576C556.227,-843.345 558.176,-824.825 559.821,-809.199"/>
<polygon fill="black" stroke="black" points="563.334,-809.256 560.901,-798.944 556.373,-808.523 563.334,-809.256"/>
<text text-anchor="middle" x="567.75" y="-823.4" font-family="Times,serif" font-size="14.00">0.5</text>
</g>
</g>
</g></svg>
