<?xml version="1.0" encoding="UTF-8" standalone="no"?>
<!DOCTYPE svg PUBLIC "-//W3C//DTD SVG 1.1//EN"
 "http://www.w3.org/Graphics/SVG/1.1/DTD/svg11.dtd">
<!-- Generated by graphviz version 2.30.1 (20130612.0156)
 -->
<!-- Title: dskvs.test; 29.0 MB Pages: 1 -->
<svg width="100%" height="100%"
  xmlns="http://www.w3.org/2000/svg" xmlns:xlink="http://www.w3.org/1999/xlink">
<script type="text/ecmascript"><![CDATA[
// SVGPan
// http://www.cyberz.org/blog/2009/12/08/svgpan-a-javascript-svg-panzoomdrag-library/
// Local modification: if(true || ...) below to force panning, never moving.
// Local modification: add clamping to fix bug in handleMouseWheel.

/**
 *  SVGPan library 1.2
 * ====================
 *
 * Given an unique existing element with id "viewport", including the
 * the library into any SVG adds the following capabilities:
 *
 *  - Mouse panning
 *  - Mouse zooming (using the wheel)
 *  - Object dargging
 *
 * Known issues:
 *
 *  - Zooming (while panning) on Safari has still some issues
 *
 * Releases:
 *
 * 1.2, Sat Mar 20 08:42:50 GMT 2010, Zeng Xiaohui
 *	Fixed a bug with browser mouse handler interaction
 *
 * 1.1, Wed Feb  3 17:39:33 GMT 2010, Zeng Xiaohui
 *	Updated the zoom code to support the mouse wheel on Safari/Chrome
 *
 * 1.0, Andrea Leofreddi
 *	First release
 *
 * This code is licensed under the following BSD license:
 *
 * Copyright 2009-2010 Andrea Leofreddi <a.leofreddi@itcharm.com>. All rights reserved.
 *
 * Redistribution and use in source and binary forms, with or without modification, are
 * permitted provided that the following conditions are met:
 *
 *    1. Redistributions of source code must retain the above copyright notice, this list of
 *       conditions and the following disclaimer.
 *
 *    2. Redistributions in binary form must reproduce the above copyright notice, this list
 *       of conditions and the following disclaimer in the documentation and/or other materials
 *       provided with the distribution.
 *
 * THIS SOFTWARE IS PROVIDED BY Andrea Leofreddi ``AS IS'' AND ANY EXPRESS OR IMPLIED
 * WARRANTIES, INCLUDING, BUT NOT LIMITED TO, THE IMPLIED WARRANTIES OF MERCHANTABILITY AND
 * FITNESS FOR A PARTICULAR PURPOSE ARE DISCLAIMED. IN NO EVENT SHALL Andrea Leofreddi OR
 * CONTRIBUTORS BE LIABLE FOR ANY DIRECT, INDIRECT, INCIDENTAL, SPECIAL, EXEMPLARY, OR
 * CONSEQUENTIAL DAMAGES (INCLUDING, BUT NOT LIMITED TO, PROCUREMENT OF SUBSTITUTE GOODS OR
 * SERVICES; LOSS OF USE, DATA, OR PROFITS; OR BUSINESS INTERRUPTION) HOWEVER CAUSED AND ON
 * ANY THEORY OF LIABILITY, WHETHER IN CONTRACT, STRICT LIABILITY, OR TORT (INCLUDING
 * NEGLIGENCE OR OTHERWISE) ARISING IN ANY WAY OUT OF THE USE OF THIS SOFTWARE, EVEN IF
 * ADVISED OF THE POSSIBILITY OF SUCH DAMAGE.
 *
 * The views and conclusions contained in the software and documentation are those of the
 * authors and should not be interpreted as representing official policies, either expressed
 * or implied, of Andrea Leofreddi.
 */

var root = document.documentElement;

var state = 'none', stateTarget, stateOrigin, stateTf;

setupHandlers(root);

/**
 * Register handlers
 */
function setupHandlers(root){
	setAttributes(root, {
		"onmouseup" : "add(evt)",
		"onmousedown" : "handleMouseDown(evt)",
		"onmousemove" : "handleMouseMove(evt)",
		"onmouseup" : "handleMouseUp(evt)",
		//"onmouseout" : "handleMouseUp(evt)", // Decomment this to stop the pan functionality when dragging out of the SVG element
	});

	if(navigator.userAgent.toLowerCase().indexOf('webkit') >= 0)
		window.addEventListener('mousewheel', handleMouseWheel, false); // Chrome/Safari
	else
		window.addEventListener('DOMMouseScroll', handleMouseWheel, false); // Others

	var g = svgDoc.getElementById("svg");
	g.width = "100%";
	g.height = "100%";
}

/**
 * Instance an SVGPoint object with given event coordinates.
 */
function getEventPoint(evt) {
	var p = root.createSVGPoint();

	p.x = evt.clientX;
	p.y = evt.clientY;

	return p;
}

/**
 * Sets the current transform matrix of an element.
 */
function setCTM(element, matrix) {
	var s = "matrix(" + matrix.a + "," + matrix.b + "," + matrix.c + "," + matrix.d + "," + matrix.e + "," + matrix.f + ")";

	element.setAttribute("transform", s);
}

/**
 * Dumps a matrix to a string (useful for debug).
 */
function dumpMatrix(matrix) {
	var s = "[ " + matrix.a + ", " + matrix.c + ", " + matrix.e + "\n  " + matrix.b + ", " + matrix.d + ", " + matrix.f + "\n  0, 0, 1 ]";

	return s;
}

/**
 * Sets attributes of an element.
 */
function setAttributes(element, attributes){
	for (i in attributes)
		element.setAttributeNS(null, i, attributes[i]);
}

/**
 * Handle mouse move event.
 */
function handleMouseWheel(evt) {
	if(evt.preventDefault)
		evt.preventDefault();

	evt.returnValue = false;

	var svgDoc = evt.target.ownerDocument;

	var delta;

	if(evt.wheelDelta)
		delta = evt.wheelDelta / 3600; // Chrome/Safari
	else
		delta = evt.detail / -90; // Mozilla

	var z = 1 + delta; // Zoom factor: 0.9/1.1

	// Clamp to reasonable values.
	// The 0.1 check is important because
	// a very large scroll can turn into a
	// negative z, which rotates the image 180 degrees.
	if(z < 0.1)
		z = 0.1;
	if(z > 10.0)
		z = 10.0;

	var g = svgDoc.getElementById("viewport");

	var p = getEventPoint(evt);

	p = p.matrixTransform(g.getCTM().inverse());

	// Compute new scale matrix in current mouse position
	var k = root.createSVGMatrix().translate(p.x, p.y).scale(z).translate(-p.x, -p.y);

        setCTM(g, g.getCTM().multiply(k));

	stateTf = stateTf.multiply(k.inverse());
}

/**
 * Handle mouse move event.
 */
function handleMouseMove(evt) {
	if(evt.preventDefault)
		evt.preventDefault();

	evt.returnValue = false;

	var svgDoc = evt.target.ownerDocument;

	var g = svgDoc.getElementById("viewport");

	if(state == 'pan') {
		// Pan mode
		var p = getEventPoint(evt).matrixTransform(stateTf);

		setCTM(g, stateTf.inverse().translate(p.x - stateOrigin.x, p.y - stateOrigin.y));
	} else if(state == 'move') {
		// Move mode
		var p = getEventPoint(evt).matrixTransform(g.getCTM().inverse());

		setCTM(stateTarget, root.createSVGMatrix().translate(p.x - stateOrigin.x, p.y - stateOrigin.y).multiply(g.getCTM().inverse()).multiply(stateTarget.getCTM()));

		stateOrigin = p;
	}
}

/**
 * Handle click event.
 */
function handleMouseDown(evt) {
	if(evt.preventDefault)
		evt.preventDefault();

	evt.returnValue = false;

	var svgDoc = evt.target.ownerDocument;

	var g = svgDoc.getElementById("viewport");

	if(true || evt.target.tagName == "svg") {
		// Pan mode
		state = 'pan';

		stateTf = g.getCTM().inverse();

		stateOrigin = getEventPoint(evt).matrixTransform(stateTf);
	} else {
		// Move mode
		state = 'move';

		stateTarget = evt.target;

		stateTf = g.getCTM().inverse();

		stateOrigin = getEventPoint(evt).matrixTransform(stateTf);
	}
}

/**
 * Handle mouse button release event.
 */
function handleMouseUp(evt) {
	if(evt.preventDefault)
		evt.preventDefault();

	evt.returnValue = false;

	var svgDoc = evt.target.ownerDocument;

	if(state == 'pan' || state == 'move') {
		// Quit pan mode
		state = '';
	}
}

]]></script>
<g id="viewport" transform="translate(0,0)">
<g id="viewport" class="graph" transform="scale(1 1) rotate(0) translate(4 1390)">
<title>dskvs.test; 29.0 MB</title>
<polygon fill="white" stroke="white" points="-4,5 -4,-1390 1119,-1390 1119,5 -4,5"/>
<!-- Legend -->
<g id="node1" class="node"><title>Legend</title>
<text text-anchor="start" x="403.484" y="-1358" font-family="Times,serif" font-size="24.00">dskvs.test</text>
<text text-anchor="start" x="403.484" y="-1329.2" font-family="Times,serif" font-size="24.00">Total MB: 29.0</text>
<text text-anchor="start" x="403.484" y="-1300.4" font-family="Times,serif" font-size="24.00">Focusing on: 29.0</text>
<text text-anchor="start" x="403.484" y="-1271.6" font-family="Times,serif" font-size="24.00">Dropped nodes with &lt;= 0.1 abs(MB)</text>
<text text-anchor="start" x="403.484" y="-1242.8" font-family="Times,serif" font-size="24.00">Dropped edges with &lt;= 0.0 MB</text>
</g>
<!-- N1 -->
<g id="node2" class="node"><title>N1</title>
<polygon fill="none" stroke="black" points="854.994,-1328.3 785.006,-1328.3 785.006,-1291.7 854.994,-1291.7 854.994,-1328.3"/>
<text text-anchor="middle" x="820" y="-1316.4" font-family="Times,serif" font-size="8.00">gosched0</text>
<text text-anchor="end" x="847.328" y="-1306.8" font-family="Times,serif" font-size="8.00">0.0 (0.0%)</text>
<text text-anchor="end" x="847.328" y="-1297.2" font-family="Times,serif" font-size="8.00">of 29.0 (100.0%)</text>
</g>
<!-- N9 -->
<g id="node10" class="node"><title>N9</title>
<polygon fill="none" stroke="black" points="696.994,-1179.3 631.006,-1179.3 631.006,-1142.7 696.994,-1142.7 696.994,-1179.3"/>
<text text-anchor="middle" x="664" y="-1167.4" font-family="Times,serif" font-size="8.00">testing.tRunner</text>
<text text-anchor="end" x="689.328" y="-1157.8" font-family="Times,serif" font-size="8.00">0.0 (0.0%)</text>
<text text-anchor="end" x="689.328" y="-1148.2" font-family="Times,serif" font-size="8.00">of 12.5 (43.1%)</text>
</g>
<!-- N1&#45;&gt;N9 -->
<g id="edge4" class="edge"><title>N1&#45;&gt;N9</title>
<path fill="none" stroke="black" stroke-width="2" d="M812.297,-1291.41C804.565,-1275.16 791.454,-1251.04 775,-1234 755.157,-1213.45 728.397,-1195.87 706.124,-1183.23"/>
<polygon fill="black" stroke="black" points="707.647,-1180.08 697.203,-1178.29 704.256,-1186.2 707.647,-1180.08"/>
<text text-anchor="middle" x="765.25" y="-1201.4" font-family="Times,serif" font-size="14.00">12.5</text>
</g>
<!-- N31 -->
<g id="node32" class="node"><title>N31</title>
<polygon fill="none" stroke="black" points="1063.98,-1123.3 902.022,-1123.3 902.022,-1086.7 1063.98,-1086.7 1063.98,-1123.3"/>
<text text-anchor="middle" x="983" y="-1111.4" font-family="Times,serif" font-size="8.00">github.com/aybabtme/dskvs.doDeleteRequest</text>
<text text-anchor="end" x="1056.32" y="-1101.8" font-family="Times,serif" font-size="8.00">0.0 (0.0%)</text>
<text text-anchor="end" x="1056.32" y="-1092.2" font-family="Times,serif" font-size="8.00">of 1.0 (3.4%)</text>
</g>
<!-- N1&#45;&gt;N31 -->
<g id="edge7" class="edge"><title>N1&#45;&gt;N31</title>
<path fill="none" stroke="black" d="M833.897,-1291.69C862.696,-1255.83 929,-1173.25 962.636,-1131.36"/>
<polygon fill="black" stroke="black" points="965.374,-1133.54 968.906,-1123.55 959.916,-1129.16 965.374,-1133.54"/>
<text text-anchor="middle" x="916.75" y="-1201.4" font-family="Times,serif" font-size="14.00">1.0</text>
</g>
<!-- N8 -->
<g id="node9" class="node"><title>N8</title>
<polygon fill="none" stroke="black" points="896.326,-1123.3 743.674,-1123.3 743.674,-1086.7 896.326,-1086.7 896.326,-1123.3"/>
<text text-anchor="middle" x="820" y="-1111.4" font-family="Times,serif" font-size="8.00">github.com/aybabtme/dskvs.doPutRequest</text>
<text text-anchor="end" x="888.217" y="-1101.8" font-family="Times,serif" font-size="8.00">0.0 (0.0%)</text>
<text text-anchor="end" x="888.217" y="-1092.2" font-family="Times,serif" font-size="8.00">of 15.5 (53.4%)</text>
</g>
<!-- N1&#45;&gt;N8 -->
<g id="edge28" class="edge"><title>N1&#45;&gt;N8</title>
<path fill="none" stroke="black" stroke-width="2" d="M820,-1291.69C820,-1256.5 820,-1176.33 820,-1133.76"/>
<polygon fill="black" stroke="black" points="823.5,-1133.55 820,-1123.55 816.5,-1133.55 823.5,-1133.55"/>
<text text-anchor="middle" x="832.25" y="-1201.4" font-family="Times,serif" font-size="14.00">15.5</text>
</g>
<!-- N2 -->
<g id="node3" class="node"><title>N2</title>
<polygon fill="none" stroke="black" points="893.156,-955.301 746.844,-955.301 746.844,-918.699 893.156,-918.699 893.156,-955.301"/>
<text text-anchor="middle" x="820" y="-943.4" font-family="Times,serif" font-size="8.00">github.com/aybabtme/dskvs.(*Store).Put</text>
<text text-anchor="end" x="885.438" y="-933.8" font-family="Times,serif" font-size="8.00">0.0 (0.0%)</text>
<text text-anchor="end" x="885.438" y="-924.2" font-family="Times,serif" font-size="8.00">of 17.5 (60.3%)</text>
</g>
<!-- N3 -->
<g id="node4" class="node"><title>N3</title>
<polygon fill="none" stroke="black" points="902.147,-837.301 737.853,-837.301 737.853,-800.699 902.147,-800.699 902.147,-837.301"/>
<text text-anchor="middle" x="820" y="-825.4" font-family="Times,serif" font-size="8.00">github.com/aybabtme/dskvs.(*collections).put</text>
<text text-anchor="end" x="894.098" y="-815.8" font-family="Times,serif" font-size="8.00">0.0 (0.0%)</text>
<text text-anchor="end" x="894.098" y="-806.2" font-family="Times,serif" font-size="8.00">of 17.5 (60.3%)</text>
</g>
<!-- N2&#45;&gt;N3 -->
<g id="edge6" class="edge"><title>N2&#45;&gt;N3</title>
<path fill="none" stroke="black" stroke-width="2" d="M820,-918.634C820,-899.841 820,-869.609 820,-847.564"/>
<polygon fill="black" stroke="black" points="823.5,-847.485 820,-837.485 816.5,-847.485 823.5,-847.485"/>
<text text-anchor="middle" x="832.25" y="-875.4" font-family="Times,serif" font-size="14.00">17.5</text>
</g>
<!-- N4 -->
<g id="node5" class="node"><title>N4</title>
<polygon fill="none" stroke="black" points="997.17,-719.84 642.83,-719.84 642.83,-642.16 997.17,-642.16 997.17,-719.84"/>
<text text-anchor="middle" x="820" y="-696.52" font-family="Times,serif" font-size="19.40">github.com/aybabtme/dskvs.(*member).put</text>
<text text-anchor="end" x="989.447" y="-673.24" font-family="Times,serif" font-size="19.40">1.5 (5.2%)</text>
<text text-anchor="end" x="989.447" y="-649.96" font-family="Times,serif" font-size="19.40">of 17.5 (60.3%)</text>
</g>
<!-- N3&#45;&gt;N4 -->
<g id="edge11" class="edge"><title>N3&#45;&gt;N4</title>
<path fill="none" stroke="black" stroke-width="2" d="M820,-800.499C820,-782.797 820,-754.635 820,-730.206"/>
<polygon fill="black" stroke="black" points="823.5,-730.006 820,-720.006 816.5,-730.007 823.5,-730.006"/>
<text text-anchor="middle" x="832.25" y="-751.4" font-family="Times,serif" font-size="14.00">17.5</text>
</g>
<!-- N7 -->
<g id="node8" class="node"><title>N7</title>
<polygon fill="none" stroke="black" points="891.478,-555.301 748.522,-555.301 748.522,-518.699 891.478,-518.699 891.478,-555.301"/>
<text text-anchor="middle" x="820" y="-543.4" font-family="Times,serif" font-size="8.00">github.com/aybabtme/dskvs.(*page).set</text>
<text text-anchor="end" x="883.652" y="-533.8" font-family="Times,serif" font-size="8.00">0.0 (0.0%)</text>
<text text-anchor="end" x="883.652" y="-524.2" font-family="Times,serif" font-size="8.00">of 16.0 (55.2%)</text>
</g>
<!-- N4&#45;&gt;N7 -->
<g id="edge16" class="edge"><title>N4&#45;&gt;N7</title>
<path fill="none" stroke="black" stroke-width="2" d="M820,-641.947C820,-617.911 820,-587.403 820,-565.668"/>
<polygon fill="black" stroke="black" points="823.5,-565.476 820,-555.476 816.5,-565.476 823.5,-565.476"/>
<text text-anchor="middle" x="832.25" y="-599.4" font-family="Times,serif" font-size="14.00">16.0</text>
</g>
<!-- N5 -->
<g id="node6" class="node"><title>N5</title>
<polygon fill="none" stroke="black" points="947.411,-341.68 692.589,-341.68 692.589,-224.32 947.411,-224.32 947.411,-341.68"/>
<text text-anchor="middle" x="820" y="-292.14" font-family="Times,serif" font-size="45.70">newdefer</text>
<text text-anchor="end" x="939.94" y="-237.3" font-family="Times,serif" font-size="45.70">16.5 (56.9%)</text>
</g>
<!-- N6 -->
<g id="node7" class="node"><title>N6</title>
<polygon fill="none" stroke="black" points="856.149,-442.301 783.851,-442.301 783.851,-405.699 856.149,-405.699 856.149,-442.301"/>
<text text-anchor="middle" x="820" y="-430.4" font-family="Times,serif" font-size="8.00">runtime.deferproc</text>
<text text-anchor="end" x="848.764" y="-420.8" font-family="Times,serif" font-size="8.00">0.0 (0.0%)</text>
<text text-anchor="end" x="848.764" y="-411.2" font-family="Times,serif" font-size="8.00">of 16.5 (56.9%)</text>
</g>
<!-- N6&#45;&gt;N5 -->
<g id="edge30" class="edge"><title>N6&#45;&gt;N5</title>
<path fill="none" stroke="black" stroke-width="2" d="M820,-405.677C820,-391.98 820,-371.912 820,-352.007"/>
<polygon fill="black" stroke="black" points="823.5,-351.964 820,-341.964 816.5,-351.964 823.5,-351.964"/>
<text text-anchor="middle" x="832.25" y="-363.4" font-family="Times,serif" font-size="14.00">16.5</text>
</g>
<!-- N7&#45;&gt;N6 -->
<g id="edge31" class="edge"><title>N7&#45;&gt;N6</title>
<path fill="none" stroke="black" stroke-width="2" d="M820,-518.656C820,-501.002 820,-473.365 820,-452.681"/>
<polygon fill="black" stroke="black" points="823.5,-452.588 820,-442.588 816.5,-452.588 823.5,-452.588"/>
<text text-anchor="middle" x="832.25" y="-473.4" font-family="Times,serif" font-size="14.00">15.5</text>
</g>
<!-- N15 -->
<g id="node16" class="node"><title>N15</title>
<polygon fill="none" stroke="black" points="576.144,-169.301 499.856,-169.301 499.856,-132.699 576.144,-132.699 576.144,-169.301"/>
<text text-anchor="middle" x="538" y="-157.4" font-family="Times,serif" font-size="8.00">runtime.cnewarray</text>
<text text-anchor="end" x="568.096" y="-147.8" font-family="Times,serif" font-size="8.00">0.0 (0.0%)</text>
<text text-anchor="end" x="568.096" y="-138.2" font-family="Times,serif" font-size="8.00">of 5.0 (17.2%)</text>
</g>
<!-- N7&#45;&gt;N15 -->
<g id="edge36" class="edge"><title>N7&#45;&gt;N15</title>
<path fill="none" stroke="black" d="M807.15,-518.502C762.007,-457.031 610.519,-250.749 556.958,-177.815"/>
<polygon fill="black" stroke="black" points="559.665,-175.589 550.925,-169.6 554.023,-179.732 559.665,-175.589"/>
<text text-anchor="middle" x="709.75" y="-363.4" font-family="Times,serif" font-size="14.00">0.5</text>
</g>
<!-- N8&#45;&gt;N2 -->
<g id="edge3" class="edge"><title>N8&#45;&gt;N2</title>
<path fill="none" stroke="black" stroke-width="2" d="M820,-1086.55C820,-1057.78 820,-1000.17 820,-965.757"/>
<polygon fill="black" stroke="black" points="823.5,-965.466 820,-955.466 816.5,-965.466 823.5,-965.466"/>
<text text-anchor="middle" x="832.25" y="-1043.4" font-family="Times,serif" font-size="14.00">15.5</text>
</g>
<!-- N10 -->
<g id="node11" class="node"><title>N10</title>
<polygon fill="none" stroke="black" points="784.223,-1067.3 543.777,-1067.3 543.777,-1030.7 784.223,-1030.7 784.223,-1067.3"/>
<text text-anchor="middle" x="664" y="-1055.4" font-family="Times,serif" font-size="8.00">github.com/aybabtme/dskvs.TestMultipleOperationsPersistAfterClose</text>
<text text-anchor="end" x="776.148" y="-1045.8" font-family="Times,serif" font-size="8.00">0.0 (0.0%)</text>
<text text-anchor="end" x="776.148" y="-1036.2" font-family="Times,serif" font-size="8.00">of 9.5 (32.8%)</text>
</g>
<!-- N9&#45;&gt;N10 -->
<g id="edge1" class="edge"><title>N9&#45;&gt;N10</title>
<path fill="none" stroke="black" stroke-width="1.96552" d="M664,-1142.33C664,-1124.93 664,-1098.09 664,-1077.83"/>
<polygon fill="black" stroke="black" points="667.5,-1077.63 664,-1067.63 660.5,-1077.63 667.5,-1077.63"/>
<text text-anchor="middle" x="672.75" y="-1099.4" font-family="Times,serif" font-size="14.00">9.5</text>
</g>
<!-- N19 -->
<g id="node20" class="node"><title>N19</title>
<polygon fill="none" stroke="black" points="420.138,-1067.3 149.862,-1067.3 149.862,-1030.7 420.138,-1030.7 420.138,-1067.3"/>
<text text-anchor="middle" x="285" y="-1055.4" font-family="Times,serif" font-size="8.00">github.com/aybabtme/dskvs.TestOneOperationWithMultipleConcurrentRequest</text>
<text text-anchor="end" x="412.758" y="-1045.8" font-family="Times,serif" font-size="8.00">0.0 (0.0%)</text>
<text text-anchor="end" x="412.758" y="-1036.2" font-family="Times,serif" font-size="8.00">of 3.0 (10.3%)</text>
</g>
<!-- N9&#45;&gt;N19 -->
<g id="edge26" class="edge"><title>N9&#45;&gt;N19</title>
<path fill="none" stroke="black" d="M630.698,-1150.33C569.166,-1132.48 436.482,-1093.97 354.564,-1070.19"/>
<polygon fill="black" stroke="black" points="355.414,-1066.79 344.834,-1067.37 353.462,-1073.51 355.414,-1066.79"/>
<text text-anchor="middle" x="538.75" y="-1099.4" font-family="Times,serif" font-size="14.00">3.0</text>
</g>
<!-- N13 -->
<g id="node14" class="node"><title>N13</title>
<polygon fill="none" stroke="black" points="608.99,-955.301 483.01,-955.301 483.01,-918.699 608.99,-918.699 608.99,-955.301"/>
<text text-anchor="middle" x="546" y="-943.4" font-family="Times,serif" font-size="8.00">github.com/aybabtme/dskvs.setUp</text>
<text text-anchor="end" x="601.326" y="-933.8" font-family="Times,serif" font-size="8.00">0.0 (0.0%)</text>
<text text-anchor="end" x="601.326" y="-924.2" font-family="Times,serif" font-size="8.00">of 5.5 (19.0%)</text>
</g>
<!-- N10&#45;&gt;N13 -->
<g id="edge8" class="edge"><title>N10&#45;&gt;N13</title>
<path fill="none" stroke="black" stroke-width="1.13793" d="M645.303,-1030.57C625.538,-1012.15 594.214,-982.945 572.038,-962.273"/>
<polygon fill="black" stroke="black" points="574.311,-959.607 564.61,-955.348 569.538,-964.727 574.311,-959.607"/>
<text text-anchor="middle" x="630.75" y="-987.4" font-family="Times,serif" font-size="14.00">5.5</text>
</g>
<!-- N32 -->
<g id="node33" class="node"><title>N32</title>
<polygon fill="none" stroke="black" points="448.135,-955.301 297.865,-955.301 297.865,-918.699 448.135,-918.699 448.135,-955.301"/>
<text text-anchor="middle" x="373" y="-943.4" font-family="Times,serif" font-size="8.00">github.com/aybabtme/dskvs.generateData</text>
<text text-anchor="end" x="440.09" y="-933.8" font-family="Times,serif" font-size="8.00">0.0 (0.0%)</text>
<text text-anchor="end" x="440.09" y="-924.2" font-family="Times,serif" font-size="8.00">of 1.0 (3.4%)</text>
</g>
<!-- N10&#45;&gt;N32 -->
<g id="edge12" class="edge"><title>N10&#45;&gt;N32</title>
<path fill="none" stroke="black" d="M615.845,-1030.58C599.809,-1024.73 581.866,-1018.14 565.5,-1012 518.677,-994.445 465.648,-974.019 427.121,-959.081"/>
<polygon fill="black" stroke="black" points="428.24,-955.761 417.651,-955.406 425.708,-962.286 428.24,-955.761"/>
<text text-anchor="middle" x="573.75" y="-987.4" font-family="Times,serif" font-size="14.00">1.0</text>
</g>
<!-- N10&#45;&gt;N15 -->
<g id="edge19" class="edge"><title>N10&#45;&gt;N15</title>
<path fill="none" stroke="black" d="M543.919,-1040.05C419.172,-1028.4 242,-1000.79 242,-938 242,-938 242,-938 242,-282 242,-175.049 405.999,-155.289 489.853,-152.175"/>
<polygon fill="black" stroke="black" points="490.021,-155.672 499.909,-151.867 489.807,-148.675 490.021,-155.672"/>
<text text-anchor="middle" x="250.75" y="-599.4" font-family="Times,serif" font-size="14.00">0.5</text>
</g>
<!-- N36 -->
<g id="node37" class="node"><title>N36</title>
<polygon fill="none" stroke="black" points="710.485,-955.301 629.515,-955.301 629.515,-918.699 710.485,-918.699 710.485,-955.301"/>
<text text-anchor="middle" x="670" y="-943.4" font-family="Times,serif" font-size="8.00">runtime.concatstring</text>
<text text-anchor="end" x="702.99" y="-933.8" font-family="Times,serif" font-size="8.00">0.0 (0.0%)</text>
<text text-anchor="end" x="702.99" y="-924.2" font-family="Times,serif" font-size="8.00">of 0.5 (1.7%)</text>
</g>
<!-- N10&#45;&gt;N36 -->
<g id="edge24" class="edge"><title>N10&#45;&gt;N36</title>
<path fill="none" stroke="black" d="M664.964,-1030.33C665.913,-1012.93 667.377,-986.089 668.482,-965.825"/>
<polygon fill="black" stroke="black" points="671.988,-965.805 669.038,-955.63 664.999,-965.424 671.988,-965.805"/>
<text text-anchor="middle" x="675.75" y="-987.4" font-family="Times,serif" font-size="14.00">0.5</text>
</g>
<!-- N10&#45;&gt;N2 -->
<g id="edge38" class="edge"><title>N10&#45;&gt;N2</title>
<path fill="none" stroke="black" d="M688.719,-1030.57C715.305,-1011.82 757.711,-981.922 787.101,-961.198"/>
<polygon fill="black" stroke="black" points="789.241,-963.971 795.397,-955.348 785.207,-958.251 789.241,-963.971"/>
<text text-anchor="middle" x="773.75" y="-987.4" font-family="Times,serif" font-size="14.00">2.0</text>
</g>
<!-- N11 -->
<g id="node12" class="node"><title>N11</title>
<polygon fill="none" stroke="black" points="613.981,-837.301 462.019,-837.301 462.019,-800.699 613.981,-800.699 613.981,-837.301"/>
<text text-anchor="middle" x="538" y="-825.4" font-family="Times,serif" font-size="8.00">github.com/aybabtme/dskvs.(*Store).Load</text>
<text text-anchor="end" x="606.32" y="-815.8" font-family="Times,serif" font-size="8.00">0.0 (0.0%)</text>
<text text-anchor="end" x="606.32" y="-806.2" font-family="Times,serif" font-size="8.00">of 5.5 (19.0%)</text>
</g>
<!-- N12 -->
<g id="node13" class="node"><title>N12</title>
<polygon fill="none" stroke="black" points="623.145,-699.301 452.855,-699.301 452.855,-662.699 623.145,-662.699 623.145,-699.301"/>
<text text-anchor="middle" x="538" y="-687.4" font-family="Times,serif" font-size="8.00">github.com/aybabtme/dskvs.(*janitor).loadStore</text>
<text text-anchor="end" x="615.43" y="-677.8" font-family="Times,serif" font-size="8.00">0.0 (0.0%)</text>
<text text-anchor="end" x="615.43" y="-668.2" font-family="Times,serif" font-size="8.00">of 5.5 (19.0%)</text>
</g>
<!-- N11&#45;&gt;N12 -->
<g id="edge37" class="edge"><title>N11&#45;&gt;N12</title>
<path fill="none" stroke="black" stroke-width="1.13793" d="M538,-800.499C538,-777.445 538,-736.651 538,-709.467"/>
<polygon fill="black" stroke="black" points="541.5,-709.434 538,-699.434 534.5,-709.434 541.5,-709.434"/>
<text text-anchor="middle" x="546.75" y="-751.4" font-family="Times,serif" font-size="14.00">5.5</text>
</g>
<!-- N16 -->
<g id="node17" class="node"><title>N16</title>
<polygon fill="none" stroke="black" points="613.153,-555.301 462.847,-555.301 462.847,-518.699 613.153,-518.699 613.153,-555.301"/>
<text text-anchor="middle" x="538" y="-543.4" font-family="Times,serif" font-size="8.00">github.com/aybabtme/dskvs.readFromFile</text>
<text text-anchor="end" x="605.768" y="-533.8" font-family="Times,serif" font-size="8.00">0.0 (0.0%)</text>
<text text-anchor="end" x="605.768" y="-524.2" font-family="Times,serif" font-size="8.00">of 4.0 (13.8%)</text>
</g>
<!-- N12&#45;&gt;N16 -->
<g id="edge20" class="edge"><title>N12&#45;&gt;N16</title>
<path fill="none" stroke="black" d="M538,-662.588C538,-638.422 538,-594.453 538,-565.739"/>
<polygon fill="black" stroke="black" points="541.5,-565.554 538,-555.554 534.5,-565.554 541.5,-565.554"/>
<text text-anchor="middle" x="546.75" y="-599.4" font-family="Times,serif" font-size="14.00">4.0</text>
</g>
<!-- N24 -->
<g id="node25" class="node"><title>N24</title>
<polygon fill="none" stroke="black" points="444.495,-555.301 373.505,-555.301 373.505,-518.699 444.495,-518.699 444.495,-555.301"/>
<text text-anchor="middle" x="409" y="-543.4" font-family="Times,serif" font-size="8.00">path/filepath.Join</text>
<text text-anchor="end" x="436.664" y="-533.8" font-family="Times,serif" font-size="8.00">0.0 (0.0%)</text>
<text text-anchor="end" x="436.664" y="-524.2" font-family="Times,serif" font-size="8.00">of 1.5 (5.2%)</text>
</g>
<!-- N12&#45;&gt;N24 -->
<g id="edge23" class="edge"><title>N12&#45;&gt;N24</title>
<path fill="none" stroke="black" d="M522.182,-662.588C499.551,-637.676 457.804,-591.722 431.827,-563.127"/>
<polygon fill="black" stroke="black" points="434.262,-560.603 424.947,-555.554 429.081,-565.31 434.262,-560.603"/>
<text text-anchor="middle" x="493.75" y="-599.4" font-family="Times,serif" font-size="14.00">1.5</text>
</g>
<!-- N13&#45;&gt;N11 -->
<g id="edge13" class="edge"><title>N13&#45;&gt;N11</title>
<path fill="none" stroke="black" stroke-width="1.13793" d="M544.802,-918.634C543.506,-899.841 541.421,-869.609 539.901,-847.564"/>
<polygon fill="black" stroke="black" points="543.386,-847.221 539.206,-837.485 536.402,-847.702 543.386,-847.221"/>
<text text-anchor="middle" x="551.75" y="-875.4" font-family="Times,serif" font-size="14.00">5.5</text>
</g>
<!-- N14 -->
<g id="node15" class="node"><title>N14</title>
<polygon fill="none" stroke="black" points="614.079,-77.6201 461.921,-77.6201 461.921,-0.379906 614.079,-0.379906 614.079,-77.6201"/>
<text text-anchor="middle" x="538" y="-44.76" font-family="Times,serif" font-size="28.80">cnew</text>
<text text-anchor="end" x="606.386" y="-10.2" font-family="Times,serif" font-size="28.80">5.0 (17.2%)</text>
</g>
<!-- N15&#45;&gt;N14 -->
<g id="edge39" class="edge"><title>N15&#45;&gt;N14</title>
<path fill="none" stroke="black" stroke-width="1.03448" d="M538,-132.327C538,-120.27 538,-103.684 538,-87.892"/>
<polygon fill="black" stroke="black" points="541.5,-87.685 538,-77.685 534.5,-87.6851 541.5,-87.685"/>
<text text-anchor="middle" x="546.75" y="-99.4" font-family="Times,serif" font-size="14.00">5.0</text>
</g>
<!-- N17 -->
<g id="node18" class="node"><title>N17</title>
<polygon fill="none" stroke="black" points="574.164,-442.301 501.836,-442.301 501.836,-405.699 574.164,-405.699 574.164,-442.301"/>
<text text-anchor="middle" x="538" y="-430.4" font-family="Times,serif" font-size="8.00">io/ioutil.ReadFile</text>
<text text-anchor="end" x="566.109" y="-420.8" font-family="Times,serif" font-size="8.00">0.0 (0.0%)</text>
<text text-anchor="end" x="566.109" y="-411.2" font-family="Times,serif" font-size="8.00">of 4.0 (13.8%)</text>
</g>
<!-- N16&#45;&gt;N17 -->
<g id="edge22" class="edge"><title>N16&#45;&gt;N17</title>
<path fill="none" stroke="black" d="M538,-518.656C538,-501.002 538,-473.365 538,-452.681"/>
<polygon fill="black" stroke="black" points="541.5,-452.588 538,-442.588 534.5,-452.588 541.5,-452.588"/>
<text text-anchor="middle" x="546.75" y="-473.4" font-family="Times,serif" font-size="14.00">4.0</text>
</g>
<!-- N18 -->
<g id="node19" class="node"><title>N18</title>
<polygon fill="none" stroke="black" points="571.492,-301.301 504.508,-301.301 504.508,-264.699 571.492,-264.699 571.492,-301.301"/>
<text text-anchor="middle" x="538" y="-289.4" font-family="Times,serif" font-size="8.00">io/ioutil.readAll</text>
<text text-anchor="end" x="563.662" y="-279.8" font-family="Times,serif" font-size="8.00">0.0 (0.0%)</text>
<text text-anchor="end" x="563.662" y="-270.2" font-family="Times,serif" font-size="8.00">of 4.0 (13.8%)</text>
</g>
<!-- N17&#45;&gt;N18 -->
<g id="edge35" class="edge"><title>N17&#45;&gt;N18</title>
<path fill="none" stroke="black" d="M538,-405.677C538,-382.162 538,-339.868 538,-311.862"/>
<polygon fill="black" stroke="black" points="541.5,-311.542 538,-301.542 534.5,-311.542 541.5,-311.542"/>
<text text-anchor="middle" x="546.75" y="-363.4" font-family="Times,serif" font-size="14.00">4.0</text>
</g>
<!-- N18&#45;&gt;N15 -->
<g id="edge32" class="edge"><title>N18&#45;&gt;N15</title>
<path fill="none" stroke="black" d="M538,-264.468C538,-242.758 538,-205.514 538,-179.87"/>
<polygon fill="black" stroke="black" points="541.5,-179.67 538,-169.67 534.5,-179.67 541.5,-179.67"/>
<text text-anchor="middle" x="546.75" y="-191.4" font-family="Times,serif" font-size="14.00">4.0</text>
</g>
<!-- N20 -->
<g id="node21" class="node"><title>N20</title>
<polygon fill="none" stroke="black" points="213.401,-955.301 82.5991,-955.301 82.5991,-918.699 213.401,-918.699 213.401,-955.301"/>
<text text-anchor="middle" x="148" y="-943.4" font-family="Times,serif" font-size="8.00">github.com/aybabtme/dskvs.runTest</text>
<text text-anchor="end" x="205.934" y="-933.8" font-family="Times,serif" font-size="8.00">0.0 (0.0%)</text>
<text text-anchor="end" x="205.934" y="-924.2" font-family="Times,serif" font-size="8.00">of 3.0 (10.3%)</text>
</g>
<!-- N19&#45;&gt;N20 -->
<g id="edge9" class="edge"><title>N19&#45;&gt;N20</title>
<path fill="none" stroke="black" d="M241.044,-1030.53C230.528,-1025.35 219.694,-1019.13 210.5,-1012 192.899,-998.346 176.778,-979.008 165.319,-963.525"/>
<polygon fill="black" stroke="black" points="168.137,-961.449 159.452,-955.38 162.457,-965.54 168.137,-961.449"/>
<text text-anchor="middle" x="218.75" y="-987.4" font-family="Times,serif" font-size="14.00">3.0</text>
</g>
<!-- N21 -->
<g id="node22" class="node"><title>N21</title>
<polygon fill="none" stroke="black" points="183.32,-837.301 112.68,-837.301 112.68,-800.699 183.32,-800.699 183.32,-837.301"/>
<text text-anchor="middle" x="148" y="-825.4" font-family="Times,serif" font-size="8.00">runtime.newproc</text>
<text text-anchor="end" x="175.213" y="-815.8" font-family="Times,serif" font-size="8.00">0.0 (0.0%)</text>
<text text-anchor="end" x="175.213" y="-806.2" font-family="Times,serif" font-size="8.00">of 3.0 (10.3%)</text>
</g>
<!-- N20&#45;&gt;N21 -->
<g id="edge17" class="edge"><title>N20&#45;&gt;N21</title>
<path fill="none" stroke="black" d="M148,-918.634C148,-899.841 148,-869.609 148,-847.564"/>
<polygon fill="black" stroke="black" points="151.5,-847.485 148,-837.485 144.5,-847.485 151.5,-847.485"/>
<text text-anchor="middle" x="156.75" y="-875.4" font-family="Times,serif" font-size="14.00">3.0</text>
</g>
<!-- N22 -->
<g id="node23" class="node"><title>N22</title>
<polygon fill="none" stroke="black" points="185.32,-699.301 110.68,-699.301 110.68,-662.699 185.32,-662.699 185.32,-699.301"/>
<text text-anchor="middle" x="148" y="-687.4" font-family="Times,serif" font-size="8.00">runtime.newproc1</text>
<text text-anchor="end" x="177.213" y="-677.8" font-family="Times,serif" font-size="8.00">0.0 (0.0%)</text>
<text text-anchor="end" x="177.213" y="-668.2" font-family="Times,serif" font-size="8.00">of 3.0 (10.3%)</text>
</g>
<!-- N21&#45;&gt;N22 -->
<g id="edge14" class="edge"><title>N21&#45;&gt;N22</title>
<path fill="none" stroke="black" d="M148,-800.499C148,-777.445 148,-736.651 148,-709.467"/>
<polygon fill="black" stroke="black" points="151.5,-709.434 148,-699.434 144.5,-709.434 151.5,-709.434"/>
<text text-anchor="middle" x="156.75" y="-751.4" font-family="Times,serif" font-size="14.00">3.0</text>
</g>
<!-- N35 -->
<g id="node36" class="node"><title>N35</title>
<polygon fill="none" stroke="black" points="213.994,-555.301 156.006,-555.301 156.006,-518.699 213.994,-518.699 213.994,-555.301"/>
<text text-anchor="middle" x="185" y="-543.4" font-family="Times,serif" font-size="8.00">runqput</text>
<text text-anchor="end" x="206.328" y="-533.8" font-family="Times,serif" font-size="8.00">0.0 (0.0%)</text>
<text text-anchor="end" x="206.328" y="-524.2" font-family="Times,serif" font-size="8.00">of 0.5 (1.7%)</text>
</g>
<!-- N22&#45;&gt;N35 -->
<g id="edge5" class="edge"><title>N22&#45;&gt;N35</title>
<path fill="none" stroke="black" d="M152.537,-662.588C158.862,-638.315 170.391,-594.065 177.871,-565.361"/>
<polygon fill="black" stroke="black" points="181.291,-566.114 180.426,-555.554 174.518,-564.349 181.291,-566.114"/>
<text text-anchor="middle" x="179.75" y="-599.4" font-family="Times,serif" font-size="14.00">0.5</text>
</g>
<!-- N23 -->
<g id="node24" class="node"><title>N23</title>
<polygon fill="none" stroke="black" points="137.253,-568.482 0.746929,-568.482 0.746929,-505.518 137.253,-505.518 137.253,-568.482"/>
<text text-anchor="middle" x="69" y="-541.54" font-family="Times,serif" font-size="22.70">runtime.malg</text>
<text text-anchor="end" x="129.834" y="-514.3" font-family="Times,serif" font-size="22.70">2.5 (8.6%)</text>
</g>
<!-- N22&#45;&gt;N23 -->
<g id="edge27" class="edge"><title>N22&#45;&gt;N23</title>
<path fill="none" stroke="black" d="M138.313,-662.588C126.565,-641.471 106.404,-605.233 90.8452,-577.266"/>
<polygon fill="black" stroke="black" points="93.892,-575.543 85.9717,-568.506 87.7749,-578.946 93.892,-575.543"/>
<text text-anchor="middle" x="123.75" y="-599.4" font-family="Times,serif" font-size="14.00">2.5</text>
</g>
<!-- N25 -->
<g id="node26" class="node"><title>N25</title>
<polygon fill="none" stroke="black" points="461.197,-451.062 356.803,-451.062 356.803,-396.938 461.197,-396.938 461.197,-451.062"/>
<text text-anchor="middle" x="409" y="-427.88" font-family="Times,serif" font-size="19.40">strings.Join</text>
<text text-anchor="end" x="453.465" y="-404.6" font-family="Times,serif" font-size="19.40">1.5 (5.2%)</text>
</g>
<!-- N24&#45;&gt;N25 -->
<g id="edge2" class="edge"><title>N24&#45;&gt;N25</title>
<path fill="none" stroke="black" d="M409,-518.656C409,-503.428 409,-480.771 409,-461.557"/>
<polygon fill="black" stroke="black" points="412.5,-461.305 409,-451.305 405.5,-461.305 412.5,-461.305"/>
<text text-anchor="middle" x="417.75" y="-473.4" font-family="Times,serif" font-size="14.00">1.5</text>
</g>
<!-- N26 -->
<g id="node27" class="node"><title>N26</title>
<polygon fill="none" stroke="black" points="444.055,-843.522 269.945,-843.522 269.945,-794.478 444.055,-794.478 444.055,-843.522"/>
<text text-anchor="middle" x="357" y="-822.46" font-family="Times,serif" font-size="17.30">encoding/json.Marshal</text>
<text text-anchor="end" x="436.037" y="-801.7" font-family="Times,serif" font-size="17.30">1.0 (3.4%)</text>
</g>
<!-- N27 -->
<g id="node28" class="node"><title>N27</title>
<polygon fill="none" stroke="black" points="1066.31,-1011.3 909.692,-1011.3 909.692,-974.699 1066.31,-974.699 1066.31,-1011.3"/>
<text text-anchor="middle" x="988" y="-999.4" font-family="Times,serif" font-size="8.00">github.com/aybabtme/dskvs.(*Store).Delete</text>
<text text-anchor="end" x="1058.54" y="-989.8" font-family="Times,serif" font-size="8.00">0.0 (0.0%)</text>
<text text-anchor="end" x="1058.54" y="-980.2" font-family="Times,serif" font-size="8.00">of 1.0 (3.4%)</text>
</g>
<!-- N28 -->
<g id="node29" class="node"><title>N28</title>
<polygon fill="none" stroke="black" points="1088.3,-899.301 901.701,-899.301 901.701,-862.699 1088.3,-862.699 1088.3,-899.301"/>
<text text-anchor="middle" x="995" y="-887.4" font-family="Times,serif" font-size="8.00">github.com/aybabtme/dskvs.(*collections).deleteKey</text>
<text text-anchor="end" x="1080.2" y="-877.8" font-family="Times,serif" font-size="8.00">0.0 (0.0%)</text>
<text text-anchor="end" x="1080.2" y="-868.2" font-family="Times,serif" font-size="8.00">of 1.0 (3.4%)</text>
</g>
<!-- N27&#45;&gt;N28 -->
<g id="edge29" class="edge"><title>N27&#45;&gt;N28</title>
<path fill="none" stroke="black" d="M989.125,-974.327C990.232,-956.927 991.94,-930.089 993.229,-909.825"/>
<polygon fill="black" stroke="black" points="996.736,-909.832 993.878,-899.63 989.75,-909.387 996.736,-909.832"/>
<text text-anchor="middle" x="1000.75" y="-931.4" font-family="Times,serif" font-size="14.00">1.0</text>
</g>
<!-- N29 -->
<g id="node30" class="node"><title>N29</title>
<polygon fill="none" stroke="black" points="1113.97,-775.301 950.03,-775.301 950.03,-738.699 1113.97,-738.699 1113.97,-775.301"/>
<text text-anchor="middle" x="1032" y="-763.4" font-family="Times,serif" font-size="8.00">github.com/aybabtme/dskvs.(*member).delete</text>
<text text-anchor="end" x="1106.31" y="-753.8" font-family="Times,serif" font-size="8.00">0.0 (0.0%)</text>
<text text-anchor="end" x="1106.31" y="-744.2" font-family="Times,serif" font-size="8.00">of 1.0 (3.4%)</text>
</g>
<!-- N28&#45;&gt;N29 -->
<g id="edge10" class="edge"><title>N28&#45;&gt;N29</title>
<path fill="none" stroke="black" d="M1000.3,-862.52C1006.43,-842.318 1016.59,-808.826 1023.75,-785.209"/>
<polygon fill="black" stroke="black" points="1027.16,-786.033 1026.71,-775.447 1020.46,-784.001 1027.16,-786.033"/>
<text text-anchor="middle" x="1029.75" y="-813.4" font-family="Times,serif" font-size="14.00">1.0</text>
</g>
<!-- N30 -->
<g id="node31" class="node"><title>N30</title>
<polygon fill="none" stroke="black" points="1082.14,-623.301 929.861,-623.301 929.861,-586.699 1082.14,-586.699 1082.14,-623.301"/>
<text text-anchor="middle" x="1006" y="-611.4" font-family="Times,serif" font-size="8.00">github.com/aybabtme/dskvs.(*page).delete</text>
<text text-anchor="end" x="1074.76" y="-601.8" font-family="Times,serif" font-size="8.00">0.0 (0.0%)</text>
<text text-anchor="end" x="1074.76" y="-592.2" font-family="Times,serif" font-size="8.00">of 1.0 (3.4%)</text>
</g>
<!-- N29&#45;&gt;N30 -->
<g id="edge21" class="edge"><title>N29&#45;&gt;N30</title>
<path fill="none" stroke="black" d="M1028.97,-738.5C1024.49,-712.644 1016.05,-664.005 1010.75,-633.397"/>
<polygon fill="black" stroke="black" points="1014.17,-632.644 1009.01,-623.389 1007.27,-633.84 1014.17,-632.644"/>
<text text-anchor="middle" x="1033.75" y="-675.4" font-family="Times,serif" font-size="14.00">1.0</text>
</g>
<!-- N30&#45;&gt;N6 -->
<g id="edge15" class="edge"><title>N30&#45;&gt;N6</title>
<path fill="none" stroke="black" d="M987.827,-586.511C954.629,-554.563 884.089,-486.677 845.884,-449.909"/>
<polygon fill="black" stroke="black" points="847.879,-446.973 838.247,-442.56 843.025,-452.016 847.879,-446.973"/>
<text text-anchor="middle" x="973.75" y="-531.4" font-family="Times,serif" font-size="14.00">1.0</text>
</g>
<!-- N31&#45;&gt;N27 -->
<g id="edge33" class="edge"><title>N31&#45;&gt;N27</title>
<path fill="none" stroke="black" d="M983.803,-1086.33C984.594,-1068.93 985.814,-1042.09 986.735,-1021.83"/>
<polygon fill="black" stroke="black" points="990.241,-1021.78 987.199,-1011.63 983.248,-1021.46 990.241,-1021.78"/>
<text text-anchor="middle" x="994.75" y="-1043.4" font-family="Times,serif" font-size="14.00">1.0</text>
</g>
<!-- N32&#45;&gt;N26 -->
<g id="edge18" class="edge"><title>N32&#45;&gt;N26</title>
<path fill="none" stroke="black" d="M370.605,-918.634C368.252,-901.579 364.6,-875.103 361.672,-853.875"/>
<polygon fill="black" stroke="black" points="365.136,-853.368 360.302,-843.94 358.201,-854.324 365.136,-853.368"/>
<text text-anchor="middle" x="375.75" y="-875.4" font-family="Times,serif" font-size="14.00">1.0</text>
</g>
<!-- N33 -->
<g id="node34" class="node"><title>N33</title>
<polygon fill="none" stroke="black" points="719.514,-840.54 632.486,-840.54 632.486,-797.46 719.514,-797.46 719.514,-840.54"/>
<text text-anchor="middle" x="676" y="-821.92" font-family="Times,serif" font-size="14.60">concatstring</text>
<text text-anchor="end" x="711.677" y="-804.4" font-family="Times,serif" font-size="14.60">0.5 (1.7%)</text>
</g>
<!-- N34 -->
<g id="node35" class="node"><title>N34</title>
<polygon fill="none" stroke="black" points="214.027,-445.54 135.973,-445.54 135.973,-402.46 214.027,-402.46 214.027,-445.54"/>
<text text-anchor="middle" x="175" y="-426.92" font-family="Times,serif" font-size="14.60">runqgrow</text>
<text text-anchor="end" x="206.018" y="-409.4" font-family="Times,serif" font-size="14.60">0.5 (1.7%)</text>
</g>
<!-- N35&#45;&gt;N34 -->
<g id="edge25" class="edge"><title>N35&#45;&gt;N34</title>
<path fill="none" stroke="black" d="M183.438,-518.656C181.922,-501.833 179.59,-475.944 177.761,-455.646"/>
<polygon fill="black" stroke="black" points="181.241,-455.264 176.857,-445.618 174.269,-455.892 181.241,-455.264"/>
<text text-anchor="middle" x="188.75" y="-473.4" font-family="Times,serif" font-size="14.00">0.5</text>
</g>
<!-- N36&#45;&gt;N33 -->
<g id="edge34" class="edge"><title>N36&#45;&gt;N33</title>
<path fill="none" stroke="black" d="M670.898,-918.634C671.825,-900.71 673.291,-872.381 674.413,-850.673"/>
<polygon fill="black" stroke="black" points="677.912,-850.79 674.933,-840.623 670.921,-850.428 677.912,-850.79"/>
<text text-anchor="middle" x="681.75" y="-875.4" font-family="Times,serif" font-size="14.00">0.5</text>
</g>
</g>
</g></svg>
