<?xml version="1.0" encoding="UTF-8" standalone="no"?>
<!DOCTYPE svg PUBLIC "-//W3C//DTD SVG 1.1//EN"
 "http://www.w3.org/Graphics/SVG/1.1/DTD/svg11.dtd">
<!-- Generated by graphviz version 2.30.1 (20130612.0156)
 -->
<!-- Title: dskvs.test; 257.9 MB Pages: 1 -->
<svg width="100%" height="100%"
  xmlns="http://www.w3.org/2000/svg" xmlns:xlink="http://www.w3.org/1999/xlink">
<script type="text/ecmascript"><![CDATA[
// SVGPan
// http://www.cyberz.org/blog/2009/12/08/svgpan-a-javascript-svg-panzoomdrag-library/
// Local modification: if(true || ...) below to force panning, never moving.
// Local modification: add clamping to fix bug in handleMouseWheel.

/**
 *  SVGPan library 1.2
 * ====================
 *
 * Given an unique existing element with id "viewport", including the
 * the library into any SVG adds the following capabilities:
 *
 *  - Mouse panning
 *  - Mouse zooming (using the wheel)
 *  - Object dargging
 *
 * Known issues:
 *
 *  - Zooming (while panning) on Safari has still some issues
 *
 * Releases:
 *
 * 1.2, Sat Mar 20 08:42:50 GMT 2010, Zeng Xiaohui
 *	Fixed a bug with browser mouse handler interaction
 *
 * 1.1, Wed Feb  3 17:39:33 GMT 2010, Zeng Xiaohui
 *	Updated the zoom code to support the mouse wheel on Safari/Chrome
 *
 * 1.0, Andrea Leofreddi
 *	First release
 *
 * This code is licensed under the following BSD license:
 *
 * Copyright 2009-2010 Andrea Leofreddi <a.leofreddi@itcharm.com>. All rights reserved.
 *
 * Redistribution and use in source and binary forms, with or without modification, are
 * permitted provided that the following conditions are met:
 *
 *    1. Redistributions of source code must retain the above copyright notice, this list of
 *       conditions and the following disclaimer.
 *
 *    2. Redistributions in binary form must reproduce the above copyright notice, this list
 *       of conditions and the following disclaimer in the documentation and/or other materials
 *       provided with the distribution.
 *
 * THIS SOFTWARE IS PROVIDED BY Andrea Leofreddi ``AS IS'' AND ANY EXPRESS OR IMPLIED
 * WARRANTIES, INCLUDING, BUT NOT LIMITED TO, THE IMPLIED WARRANTIES OF MERCHANTABILITY AND
 * FITNESS FOR A PARTICULAR PURPOSE ARE DISCLAIMED. IN NO EVENT SHALL Andrea Leofreddi OR
 * CONTRIBUTORS BE LIABLE FOR ANY DIRECT, INDIRECT, INCIDENTAL, SPECIAL, EXEMPLARY, OR
 * CONSEQUENTIAL DAMAGES (INCLUDING, BUT NOT LIMITED TO, PROCUREMENT OF SUBSTITUTE GOODS OR
 * SERVICES; LOSS OF USE, DATA, OR PROFITS; OR BUSINESS INTERRUPTION) HOWEVER CAUSED AND ON
 * ANY THEORY OF LIABILITY, WHETHER IN CONTRACT, STRICT LIABILITY, OR TORT (INCLUDING
 * NEGLIGENCE OR OTHERWISE) ARISING IN ANY WAY OUT OF THE USE OF THIS SOFTWARE, EVEN IF
 * ADVISED OF THE POSSIBILITY OF SUCH DAMAGE.
 *
 * The views and conclusions contained in the software and documentation are those of the
 * authors and should not be interpreted as representing official policies, either expressed
 * or implied, of Andrea Leofreddi.
 */

var root = document.documentElement;

var state = 'none', stateTarget, stateOrigin, stateTf;

setupHandlers(root);

/**
 * Register handlers
 */
function setupHandlers(root){
	setAttributes(root, {
		"onmouseup" : "add(evt)",
		"onmousedown" : "handleMouseDown(evt)",
		"onmousemove" : "handleMouseMove(evt)",
		"onmouseup" : "handleMouseUp(evt)",
		//"onmouseout" : "handleMouseUp(evt)", // Decomment this to stop the pan functionality when dragging out of the SVG element
	});

	if(navigator.userAgent.toLowerCase().indexOf('webkit') >= 0)
		window.addEventListener('mousewheel', handleMouseWheel, false); // Chrome/Safari
	else
		window.addEventListener('DOMMouseScroll', handleMouseWheel, false); // Others

	var g = svgDoc.getElementById("svg");
	g.width = "100%";
	g.height = "100%";
}

/**
 * Instance an SVGPoint object with given event coordinates.
 */
function getEventPoint(evt) {
	var p = root.createSVGPoint();

	p.x = evt.clientX;
	p.y = evt.clientY;

	return p;
}

/**
 * Sets the current transform matrix of an element.
 */
function setCTM(element, matrix) {
	var s = "matrix(" + matrix.a + "," + matrix.b + "," + matrix.c + "," + matrix.d + "," + matrix.e + "," + matrix.f + ")";

	element.setAttribute("transform", s);
}

/**
 * Dumps a matrix to a string (useful for debug).
 */
function dumpMatrix(matrix) {
	var s = "[ " + matrix.a + ", " + matrix.c + ", " + matrix.e + "\n  " + matrix.b + ", " + matrix.d + ", " + matrix.f + "\n  0, 0, 1 ]";

	return s;
}

/**
 * Sets attributes of an element.
 */
function setAttributes(element, attributes){
	for (i in attributes)
		element.setAttributeNS(null, i, attributes[i]);
}

/**
 * Handle mouse move event.
 */
function handleMouseWheel(evt) {
	if(evt.preventDefault)
		evt.preventDefault();

	evt.returnValue = false;

	var svgDoc = evt.target.ownerDocument;

	var delta;

	if(evt.wheelDelta)
		delta = evt.wheelDelta / 3600; // Chrome/Safari
	else
		delta = evt.detail / -90; // Mozilla

	var z = 1 + delta; // Zoom factor: 0.9/1.1

	// Clamp to reasonable values.
	// The 0.1 check is important because
	// a very large scroll can turn into a
	// negative z, which rotates the image 180 degrees.
	if(z < 0.1)
		z = 0.1;
	if(z > 10.0)
		z = 10.0;

	var g = svgDoc.getElementById("viewport");

	var p = getEventPoint(evt);

	p = p.matrixTransform(g.getCTM().inverse());

	// Compute new scale matrix in current mouse position
	var k = root.createSVGMatrix().translate(p.x, p.y).scale(z).translate(-p.x, -p.y);

        setCTM(g, g.getCTM().multiply(k));

	stateTf = stateTf.multiply(k.inverse());
}

/**
 * Handle mouse move event.
 */
function handleMouseMove(evt) {
	if(evt.preventDefault)
		evt.preventDefault();

	evt.returnValue = false;

	var svgDoc = evt.target.ownerDocument;

	var g = svgDoc.getElementById("viewport");

	if(state == 'pan') {
		// Pan mode
		var p = getEventPoint(evt).matrixTransform(stateTf);

		setCTM(g, stateTf.inverse().translate(p.x - stateOrigin.x, p.y - stateOrigin.y));
	} else if(state == 'move') {
		// Move mode
		var p = getEventPoint(evt).matrixTransform(g.getCTM().inverse());

		setCTM(stateTarget, root.createSVGMatrix().translate(p.x - stateOrigin.x, p.y - stateOrigin.y).multiply(g.getCTM().inverse()).multiply(stateTarget.getCTM()));

		stateOrigin = p;
	}
}

/**
 * Handle click event.
 */
function handleMouseDown(evt) {
	if(evt.preventDefault)
		evt.preventDefault();

	evt.returnValue = false;

	var svgDoc = evt.target.ownerDocument;

	var g = svgDoc.getElementById("viewport");

	if(true || evt.target.tagName == "svg") {
		// Pan mode
		state = 'pan';

		stateTf = g.getCTM().inverse();

		stateOrigin = getEventPoint(evt).matrixTransform(stateTf);
	} else {
		// Move mode
		state = 'move';

		stateTarget = evt.target;

		stateTf = g.getCTM().inverse();

		stateOrigin = getEventPoint(evt).matrixTransform(stateTf);
	}
}

/**
 * Handle mouse button release event.
 */
function handleMouseUp(evt) {
	if(evt.preventDefault)
		evt.preventDefault();

	evt.returnValue = false;

	var svgDoc = evt.target.ownerDocument;

	if(state == 'pan' || state == 'move') {
		// Quit pan mode
		state = '';
	}
}

]]></script>
<g id="viewport" transform="translate(0,0)">
<g id="viewport" class="graph" transform="scale(1 1) rotate(0) translate(4 978)">
<title>dskvs.test; 257.9 MB</title>
<polygon fill="white" stroke="white" points="-4,5 -4,-978 1351,-978 1351,5 -4,5"/>
<!-- Legend -->
<g id="node1" class="node"><title>Legend</title>
<text text-anchor="start" x="532.484" y="-946" font-family="Times,serif" font-size="24.00">dskvs.test</text>
<text text-anchor="start" x="532.484" y="-917.2" font-family="Times,serif" font-size="24.00">Total MB: 257.9</text>
<text text-anchor="start" x="532.484" y="-888.4" font-family="Times,serif" font-size="24.00">Focusing on: 257.9</text>
<text text-anchor="start" x="532.484" y="-859.6" font-family="Times,serif" font-size="24.00">Dropped nodes with &lt;= 1.3 abs(MB)</text>
<text text-anchor="start" x="532.484" y="-830.8" font-family="Times,serif" font-size="24.00">Dropped edges with &lt;= 0.3 MB</text>
</g>
<!-- N1 -->
<g id="node2" class="node"><title>N1</title>
<polygon fill="none" stroke="black" points="987.994,-916.301 914.006,-916.301 914.006,-879.699 987.994,-879.699 987.994,-916.301"/>
<text text-anchor="middle" x="951" y="-904.4" font-family="Times,serif" font-size="8.00">gosched0</text>
<text text-anchor="end" x="980.328" y="-894.8" font-family="Times,serif" font-size="8.00">0.0 (0.0%)</text>
<text text-anchor="end" x="980.328" y="-885.2" font-family="Times,serif" font-size="8.00">of 257.9 (100.0%)</text>
</g>
<!-- N4 -->
<g id="node5" class="node"><title>N4</title>
<polygon fill="none" stroke="black" points="746.994,-767.301 677.006,-767.301 677.006,-730.699 746.994,-730.699 746.994,-767.301"/>
<text text-anchor="middle" x="712" y="-755.4" font-family="Times,serif" font-size="8.00">testing.tRunner</text>
<text text-anchor="end" x="739.328" y="-745.8" font-family="Times,serif" font-size="8.00">0.0 (0.0%)</text>
<text text-anchor="end" x="739.328" y="-736.2" font-family="Times,serif" font-size="8.00">of 150.2 (58.2%)</text>
</g>
<!-- N1&#45;&gt;N4 -->
<g id="edge5" class="edge"><title>N1&#45;&gt;N4</title>
<path fill="none" stroke="black" stroke-width="2" d="M944.02,-879.514C936.47,-862.644 922.923,-837.456 904,-822 860.953,-786.84 798.999,-767.786 757.211,-758.271"/>
<polygon fill="black" stroke="black" points="757.824,-754.822 747.308,-756.108 756.331,-761.661 757.824,-754.822"/>
<text text-anchor="middle" x="891.75" y="-789.4" font-family="Times,serif" font-size="14.00">150.2</text>
</g>
<!-- N20 -->
<g id="node21" class="node"><title>N20</title>
<polygon fill="none" stroke="black" points="1182.15,-767.301 1045.85,-767.301 1045.85,-730.699 1182.15,-730.699 1182.15,-767.301"/>
<text text-anchor="middle" x="1114" y="-755.4" font-family="Times,serif" font-size="8.00">github.com/aybabtme/dskvs.func·001</text>
<text text-anchor="end" x="1174.1" y="-745.8" font-family="Times,serif" font-size="8.00">0.0 (0.0%)</text>
<text text-anchor="end" x="1174.1" y="-736.2" font-family="Times,serif" font-size="8.00">of 3.5 (1.4%)</text>
</g>
<!-- N1&#45;&gt;N20 -->
<g id="edge8" class="edge"><title>N1&#45;&gt;N20</title>
<path fill="none" stroke="black" d="M970.338,-879.56C999.381,-853.368 1054.35,-803.793 1087.23,-774.142"/>
<polygon fill="black" stroke="black" points="1089.6,-776.714 1094.69,-767.417 1084.92,-771.515 1089.6,-776.714"/>
<text text-anchor="middle" x="1078.75" y="-789.4" font-family="Times,serif" font-size="14.00">3.5</text>
</g>
<!-- N10 -->
<g id="node11" class="node"><title>N10</title>
<polygon fill="none" stroke="black" points="1027.33,-767.301 874.674,-767.301 874.674,-730.699 1027.33,-730.699 1027.33,-767.301"/>
<text text-anchor="middle" x="951" y="-755.4" font-family="Times,serif" font-size="8.00">github.com/aybabtme/dskvs.doPutRequest</text>
<text text-anchor="end" x="1019.22" y="-745.8" font-family="Times,serif" font-size="8.00">0.0 (0.0%)</text>
<text text-anchor="end" x="1019.22" y="-736.2" font-family="Times,serif" font-size="8.00">of 104.2 (40.4%)</text>
</g>
<!-- N1&#45;&gt;N10 -->
<g id="edge27" class="edge"><title>N1&#45;&gt;N10</title>
<path fill="none" stroke="black" stroke-width="2" d="M951,-879.56C951,-854.363 951,-807.525 951,-777.604"/>
<polygon fill="black" stroke="black" points="954.5,-777.417 951,-767.417 947.5,-777.417 954.5,-777.417"/>
<text text-anchor="middle" x="966.75" y="-789.4" font-family="Times,serif" font-size="14.00">103.8</text>
</g>
<!-- N2 -->
<g id="node3" class="node"><title>N2</title>
<polygon fill="none" stroke="black" points="813.18,-136.401 490.82,-136.401 490.82,0.400588 813.18,0.400588 813.18,-136.401"/>
<text text-anchor="middle" x="652" y="-78.7" font-family="Times,serif" font-size="53.50">cnew</text>
<text text-anchor="end" x="805.786" y="-14.5" font-family="Times,serif" font-size="53.50">213.9 (82.9%)</text>
</g>
<!-- N3 -->
<g id="node4" class="node"><title>N3</title>
<polygon fill="none" stroke="black" points="690.144,-241.301 613.856,-241.301 613.856,-204.699 690.144,-204.699 690.144,-241.301"/>
<text text-anchor="middle" x="652" y="-229.4" font-family="Times,serif" font-size="8.00">runtime.cnewarray</text>
<text text-anchor="end" x="682.096" y="-219.8" font-family="Times,serif" font-size="8.00">0.0 (0.0%)</text>
<text text-anchor="end" x="682.096" y="-210.2" font-family="Times,serif" font-size="8.00">of 213.9 (82.9%)</text>
</g>
<!-- N3&#45;&gt;N2 -->
<g id="edge33" class="edge"><title>N3&#45;&gt;N2</title>
<path fill="none" stroke="black" stroke-width="2" d="M652,-204.449C652,-190.016 652,-168.479 652,-146.803"/>
<polygon fill="black" stroke="black" points="655.5,-146.522 652,-136.522 648.5,-146.522 655.5,-146.522"/>
<text text-anchor="middle" x="667.75" y="-157.4" font-family="Times,serif" font-size="14.00">213.9</text>
</g>
<!-- N27 -->
<g id="node28" class="node"><title>N27</title>
<polygon fill="none" stroke="black" points="565.139,-675.301 288.861,-675.301 288.861,-638.699 565.139,-638.699 565.139,-675.301"/>
<text text-anchor="middle" x="427" y="-663.4" font-family="Times,serif" font-size="8.00">github.com/aybabtme/dskvs.TestManyOperationWithMultipleConcurrentRequest</text>
<text text-anchor="end" x="557.426" y="-653.8" font-family="Times,serif" font-size="8.00">0.0 (0.0%)</text>
<text text-anchor="end" x="557.426" y="-644.2" font-family="Times,serif" font-size="8.00">of 1.5 (0.6%)</text>
</g>
<!-- N4&#45;&gt;N27 -->
<g id="edge2" class="edge"><title>N4&#45;&gt;N27</title>
<path fill="none" stroke="black" d="M676.768,-736.874C630.66,-722.314 548.992,-696.524 491.625,-678.408"/>
<polygon fill="black" stroke="black" points="492.514,-675.018 481.924,-675.344 490.406,-681.693 492.514,-675.018"/>
<text text-anchor="middle" x="604.75" y="-697.4" font-family="Times,serif" font-size="14.00">1.5</text>
</g>
<!-- N13 -->
<g id="node14" class="node"><title>N13</title>
<polygon fill="none" stroke="black" points="270.138,-675.301 -0.137825,-675.301 -0.137825,-638.699 270.138,-638.699 270.138,-675.301"/>
<text text-anchor="middle" x="135" y="-663.4" font-family="Times,serif" font-size="8.00">github.com/aybabtme/dskvs.TestOneOperationWithMultipleConcurrentRequest</text>
<text text-anchor="end" x="262.758" y="-653.8" font-family="Times,serif" font-size="8.00">0.0 (0.0%)</text>
<text text-anchor="end" x="262.758" y="-644.2" font-family="Times,serif" font-size="8.00">of 26.5 (10.3%)</text>
</g>
<!-- N4&#45;&gt;N13 -->
<g id="edge25" class="edge"><title>N4&#45;&gt;N13</title>
<path fill="none" stroke="black" d="M676.775,-742.506C595.041,-729.757 389.34,-697.672 256.226,-676.909"/>
<polygon fill="black" stroke="black" points="256.393,-673.393 245.973,-675.31 255.314,-680.309 256.393,-673.393"/>
<text text-anchor="middle" x="488.25" y="-697.4" font-family="Times,serif" font-size="14.00">26.5</text>
</g>
<!-- N5 -->
<g id="node6" class="node"><title>N5</title>
<polygon fill="none" stroke="black" points="840.214,-675.301 583.786,-675.301 583.786,-638.699 840.214,-638.699 840.214,-675.301"/>
<text text-anchor="middle" x="712" y="-663.4" font-family="Times,serif" font-size="8.00">github.com/aybabtme/dskvs.TestConcurrentPutCanBeGetAllAndDeleteAll</text>
<text text-anchor="end" x="832.143" y="-653.8" font-family="Times,serif" font-size="8.00">0.0 (0.0%)</text>
<text text-anchor="end" x="832.143" y="-644.2" font-family="Times,serif" font-size="8.00">of 122.2 (47.4%)</text>
</g>
<!-- N4&#45;&gt;N5 -->
<g id="edge32" class="edge"><title>N4&#45;&gt;N5</title>
<path fill="none" stroke="black" stroke-width="2" d="M712,-730.647C712,-717.905 712,-700.334 712,-685.665"/>
<polygon fill="black" stroke="black" points="715.5,-685.607 712,-675.607 708.5,-685.607 715.5,-685.607"/>
<text text-anchor="middle" x="727.75" y="-697.4" font-family="Times,serif" font-size="14.00">122.2</text>
</g>
<!-- N6 -->
<g id="node7" class="node"><title>N6</title>
<polygon fill="none" stroke="black" points="614.3,-578.301 435.7,-578.301 435.7,-541.699 614.3,-541.699 614.3,-578.301"/>
<text text-anchor="middle" x="525" y="-566.4" font-family="Times,serif" font-size="8.00">github.com/aybabtme/dskvs.generateKeyValueList</text>
<text text-anchor="end" x="606.533" y="-556.8" font-family="Times,serif" font-size="8.00">0.0 (0.0%)</text>
<text text-anchor="end" x="606.533" y="-547.2" font-family="Times,serif" font-size="8.00">of 105.8 (41.0%)</text>
</g>
<!-- N5&#45;&gt;N6 -->
<g id="edge22" class="edge"><title>N5&#45;&gt;N6</title>
<path fill="none" stroke="black" stroke-width="2" d="M677.701,-638.576C646.86,-622.908 601.42,-599.823 568.127,-582.91"/>
<polygon fill="black" stroke="black" points="569.582,-579.723 559.081,-578.314 566.411,-585.964 569.582,-579.723"/>
<text text-anchor="middle" x="656.75" y="-605.4" font-family="Times,serif" font-size="14.00">104.3</text>
</g>
<!-- N17 -->
<g id="node18" class="node"><title>N17</title>
<polygon fill="none" stroke="black" points="790.482,-578.301 633.518,-578.301 633.518,-541.699 790.482,-541.699 790.482,-578.301"/>
<text text-anchor="middle" x="712" y="-566.4" font-family="Times,serif" font-size="8.00">github.com/aybabtme/dskvs.(*Store).GetAll</text>
<text text-anchor="end" x="782.988" y="-556.8" font-family="Times,serif" font-size="8.00">0.0 (0.0%)</text>
<text text-anchor="end" x="782.988" y="-547.2" font-family="Times,serif" font-size="8.00">of 14.5 (5.6%)</text>
</g>
<!-- N5&#45;&gt;N17 -->
<g id="edge23" class="edge"><title>N5&#45;&gt;N17</title>
<path fill="none" stroke="black" d="M712,-638.576C712,-624.648 712,-604.861 712,-588.757"/>
<polygon fill="black" stroke="black" points="715.5,-588.314 712,-578.314 708.5,-588.314 715.5,-588.314"/>
<text text-anchor="middle" x="724.25" y="-605.4" font-family="Times,serif" font-size="14.00">14.5</text>
</g>
<!-- N12 -->
<g id="node13" class="node"><title>N12</title>
<polygon fill="none" stroke="black" points="220.229,-583.022 49.7707,-583.022 49.7707,-536.978 220.229,-536.978 220.229,-583.022"/>
<text text-anchor="middle" x="135" y="-568.56" font-family="Times,serif" font-size="10.70">github.com/aybabtme/dskvs.runTest</text>
<text text-anchor="end" x="212.486" y="-555.72" font-family="Times,serif" font-size="10.70">0.8 (0.3%)</text>
<text text-anchor="end" x="212.486" y="-542.88" font-family="Times,serif" font-size="10.70">of 29.9 (11.6%)</text>
</g>
<!-- N5&#45;&gt;N12 -->
<g id="edge29" class="edge"><title>N5&#45;&gt;N12</title>
<path fill="none" stroke="black" d="M647.262,-638.646C601.624,-626.927 538.916,-611.853 483,-602 398.202,-587.057 300.793,-576.105 230.64,-569.298"/>
<polygon fill="black" stroke="black" points="230.781,-565.795 220.492,-568.324 230.112,-572.763 230.781,-565.795"/>
<text text-anchor="middle" x="574.75" y="-605.4" font-family="Times,serif" font-size="14.00">3.4</text>
</g>
<!-- N26 -->
<g id="node27" class="node"><title>N26</title>
<polygon fill="none" stroke="black" points="496.485,-460.301 415.515,-460.301 415.515,-423.699 496.485,-423.699 496.485,-460.301"/>
<text text-anchor="middle" x="456" y="-448.4" font-family="Times,serif" font-size="8.00">runtime.concatstring</text>
<text text-anchor="end" x="488.99" y="-438.8" font-family="Times,serif" font-size="8.00">0.0 (0.0%)</text>
<text text-anchor="end" x="488.99" y="-429.2" font-family="Times,serif" font-size="8.00">of 2.0 (0.8%)</text>
</g>
<!-- N6&#45;&gt;N26 -->
<g id="edge19" class="edge"><title>N6&#45;&gt;N26</title>
<path fill="none" stroke="black" d="M510.43,-541.573C504.818,-534.48 498.549,-526.065 493.5,-518 483.897,-502.661 474.777,-484.534 467.937,-469.944"/>
<polygon fill="black" stroke="black" points="470.945,-468.108 463.587,-460.485 464.585,-471.033 470.945,-468.108"/>
<text text-anchor="middle" x="502.75" y="-503.4" font-family="Times,serif" font-size="14.00">2.0</text>
</g>
<!-- N6&#45;&gt;N3 -->
<g id="edge28" class="edge"><title>N6&#45;&gt;N3</title>
<path fill="none" stroke="black" stroke-width="2" d="M522.482,-541.433C517.249,-498.875 508.868,-388.018 550,-310 563.923,-283.591 589.682,-261.975 611.83,-247.019"/>
<polygon fill="black" stroke="black" points="613.955,-249.812 620.423,-241.42 610.134,-243.947 613.955,-249.812"/>
<text text-anchor="middle" x="545.75" y="-369.4" font-family="Times,serif" font-size="14.00">103.8</text>
</g>
<!-- N7 -->
<g id="node8" class="node"><title>N7</title>
<polygon fill="none" stroke="black" points="1024.16,-675.301 877.844,-675.301 877.844,-638.699 1024.16,-638.699 1024.16,-675.301"/>
<text text-anchor="middle" x="951" y="-663.4" font-family="Times,serif" font-size="8.00">github.com/aybabtme/dskvs.(*Store).Put</text>
<text text-anchor="end" x="1016.44" y="-653.8" font-family="Times,serif" font-size="8.00">0.0 (0.0%)</text>
<text text-anchor="end" x="1016.44" y="-644.2" font-family="Times,serif" font-size="8.00">of 104.2 (40.4%)</text>
</g>
<!-- N8 -->
<g id="node9" class="node"><title>N8</title>
<polygon fill="none" stroke="black" points="1033.15,-578.301 868.853,-578.301 868.853,-541.699 1033.15,-541.699 1033.15,-578.301"/>
<text text-anchor="middle" x="951" y="-566.4" font-family="Times,serif" font-size="8.00">github.com/aybabtme/dskvs.(*collections).put</text>
<text text-anchor="end" x="1025.1" y="-556.8" font-family="Times,serif" font-size="8.00">0.0 (0.0%)</text>
<text text-anchor="end" x="1025.1" y="-547.2" font-family="Times,serif" font-size="8.00">of 104.2 (40.4%)</text>
</g>
<!-- N7&#45;&gt;N8 -->
<g id="edge9" class="edge"><title>N7&#45;&gt;N8</title>
<path fill="none" stroke="black" stroke-width="2" d="M951,-638.576C951,-624.648 951,-604.861 951,-588.757"/>
<polygon fill="black" stroke="black" points="954.5,-588.314 951,-578.314 947.5,-588.314 954.5,-588.314"/>
<text text-anchor="middle" x="966.75" y="-605.4" font-family="Times,serif" font-size="14.00">104.2</text>
</g>
<!-- N9 -->
<g id="node10" class="node"><title>N9</title>
<polygon fill="none" stroke="black" points="1133.53,-482 768.469,-482 768.469,-402 1133.53,-402 1133.53,-482"/>
<text text-anchor="middle" x="951" y="-458" font-family="Times,serif" font-size="20.00">github.com/aybabtme/dskvs.(*member).put</text>
<text text-anchor="end" x="1125.69" y="-434" font-family="Times,serif" font-size="20.00">14.8 (5.7%)</text>
<text text-anchor="end" x="1125.69" y="-410" font-family="Times,serif" font-size="20.00">of 104.2 (40.4%)</text>
</g>
<!-- N8&#45;&gt;N9 -->
<g id="edge14" class="edge"><title>N8&#45;&gt;N9</title>
<path fill="none" stroke="black" stroke-width="2" d="M951,-541.634C951,-528.531 951,-509.868 951,-492.296"/>
<polygon fill="black" stroke="black" points="954.5,-492.126 951,-482.126 947.5,-492.126 954.5,-492.126"/>
<text text-anchor="middle" x="966.75" y="-503.4" font-family="Times,serif" font-size="14.00">104.2</text>
</g>
<!-- N11 -->
<g id="node12" class="node"><title>N11</title>
<polygon fill="none" stroke="black" points="935.478,-347.301 792.522,-347.301 792.522,-310.699 935.478,-310.699 935.478,-347.301"/>
<text text-anchor="middle" x="864" y="-335.4" font-family="Times,serif" font-size="8.00">github.com/aybabtme/dskvs.(*page).set</text>
<text text-anchor="end" x="927.652" y="-325.8" font-family="Times,serif" font-size="8.00">0.0 (0.0%)</text>
<text text-anchor="end" x="927.652" y="-316.2" font-family="Times,serif" font-size="8.00">of 89.5 (34.7%)</text>
</g>
<!-- N9&#45;&gt;N11 -->
<g id="edge18" class="edge"><title>N9&#45;&gt;N11</title>
<path fill="none" stroke="black" stroke-width="2" d="M920.327,-401.866C908.254,-386.462 894.734,-369.212 883.966,-355.473"/>
<polygon fill="black" stroke="black" points="886.578,-353.132 877.654,-347.421 881.068,-357.451 886.578,-353.132"/>
<text text-anchor="middle" x="916.25" y="-369.4" font-family="Times,serif" font-size="14.00">89.5</text>
</g>
<!-- N10&#45;&gt;N7 -->
<g id="edge4" class="edge"><title>N10&#45;&gt;N7</title>
<path fill="none" stroke="black" stroke-width="2" d="M951,-730.647C951,-717.905 951,-700.334 951,-685.665"/>
<polygon fill="black" stroke="black" points="954.5,-685.607 951,-675.607 947.5,-685.607 954.5,-685.607"/>
<text text-anchor="middle" x="966.75" y="-697.4" font-family="Times,serif" font-size="14.00">104.2</text>
</g>
<!-- N11&#45;&gt;N3 -->
<g id="edge31" class="edge"><title>N11&#45;&gt;N3</title>
<path fill="none" stroke="black" stroke-width="2" d="M828.516,-310.593C792.286,-292.82 735.943,-265.18 696.691,-245.924"/>
<polygon fill="black" stroke="black" points="698.119,-242.726 687.6,-241.464 695.036,-249.011 698.119,-242.726"/>
<text text-anchor="middle" x="802.25" y="-277.4" font-family="Times,serif" font-size="14.00">89.5</text>
</g>
<!-- N14 -->
<g id="node15" class="node"><title>N14</title>
<polygon fill="none" stroke="black" points="170.32,-460.301 99.68,-460.301 99.68,-423.699 170.32,-423.699 170.32,-460.301"/>
<text text-anchor="middle" x="135" y="-448.4" font-family="Times,serif" font-size="8.00">runtime.newproc</text>
<text text-anchor="end" x="162.213" y="-438.8" font-family="Times,serif" font-size="8.00">0.0 (0.0%)</text>
<text text-anchor="end" x="162.213" y="-429.2" font-family="Times,serif" font-size="8.00">of 26.5 (10.3%)</text>
</g>
<!-- N12&#45;&gt;N14 -->
<g id="edge20" class="edge"><title>N12&#45;&gt;N14</title>
<path fill="none" stroke="black" d="M135,-536.908C135,-518.075 135,-490.913 135,-470.641"/>
<polygon fill="black" stroke="black" points="138.5,-470.467 135,-460.467 131.5,-470.467 138.5,-470.467"/>
<text text-anchor="middle" x="147.25" y="-503.4" font-family="Times,serif" font-size="14.00">26.5</text>
</g>
<!-- N12&#45;&gt;N3 -->
<g id="edge24" class="edge"><title>N12&#45;&gt;N3</title>
<path fill="none" stroke="black" d="M153.686,-536.867C195.07,-489.12 299.491,-375.478 409,-310 471.655,-272.537 553.128,-247.898 603.996,-234.952"/>
<polygon fill="black" stroke="black" points="604.893,-238.336 613.747,-232.518 603.197,-231.544 604.893,-238.336"/>
<text text-anchor="middle" x="335.75" y="-369.4" font-family="Times,serif" font-size="14.00">2.6</text>
</g>
<!-- N13&#45;&gt;N12 -->
<g id="edge13" class="edge"><title>N13&#45;&gt;N12</title>
<path fill="none" stroke="black" d="M135,-638.576C135,-625.954 135,-608.52 135,-593.376"/>
<polygon fill="black" stroke="black" points="138.5,-593.345 135,-583.345 131.5,-593.345 138.5,-593.345"/>
<text text-anchor="middle" x="147.25" y="-605.4" font-family="Times,serif" font-size="14.00">26.5</text>
</g>
<!-- N15 -->
<g id="node16" class="node"><title>N15</title>
<polygon fill="none" stroke="black" points="172.32,-347.301 97.6801,-347.301 97.6801,-310.699 172.32,-310.699 172.32,-347.301"/>
<text text-anchor="middle" x="135" y="-335.4" font-family="Times,serif" font-size="8.00">runtime.newproc1</text>
<text text-anchor="end" x="164.213" y="-325.8" font-family="Times,serif" font-size="8.00">0.0 (0.0%)</text>
<text text-anchor="end" x="164.213" y="-316.2" font-family="Times,serif" font-size="8.00">of 26.5 (10.3%)</text>
</g>
<!-- N14&#45;&gt;N15 -->
<g id="edge15" class="edge"><title>N14&#45;&gt;N15</title>
<path fill="none" stroke="black" d="M135,-423.656C135,-406.002 135,-378.365 135,-357.681"/>
<polygon fill="black" stroke="black" points="138.5,-357.588 135,-347.588 131.5,-357.588 138.5,-357.588"/>
<text text-anchor="middle" x="147.25" y="-369.4" font-family="Times,serif" font-size="14.00">26.5</text>
</g>
<!-- N16 -->
<g id="node17" class="node"><title>N16</title>
<polygon fill="none" stroke="black" points="207.076,-255.861 62.9244,-255.861 62.9244,-190.139 207.076,-190.139 207.076,-255.861"/>
<text text-anchor="middle" x="135" y="-227.78" font-family="Times,serif" font-size="23.90">runtime.malg</text>
<text text-anchor="end" x="199.05" y="-199.1" font-family="Times,serif" font-size="23.90">26.0 (10.1%)</text>
</g>
<!-- N15&#45;&gt;N16 -->
<g id="edge26" class="edge"><title>N15&#45;&gt;N16</title>
<path fill="none" stroke="black" d="M135,-310.358C135,-298.304 135,-281.791 135,-266.432"/>
<polygon fill="black" stroke="black" points="138.5,-266.052 135,-256.052 131.5,-266.052 138.5,-266.052"/>
<text text-anchor="middle" x="147.25" y="-277.4" font-family="Times,serif" font-size="14.00">26.0</text>
</g>
<!-- N18 -->
<g id="node19" class="node"><title>N18</title>
<polygon fill="none" stroke="black" points="750.306,-460.301 553.694,-460.301 553.694,-423.699 750.306,-423.699 750.306,-460.301"/>
<text text-anchor="middle" x="652" y="-448.4" font-family="Times,serif" font-size="8.00">github.com/aybabtme/dskvs.(*collections).getCollection</text>
<text text-anchor="end" x="742.537" y="-438.8" font-family="Times,serif" font-size="8.00">0.0 (0.0%)</text>
<text text-anchor="end" x="742.537" y="-429.2" font-family="Times,serif" font-size="8.00">of 14.5 (5.6%)</text>
</g>
<!-- N17&#45;&gt;N18 -->
<g id="edge11" class="edge"><title>N17&#45;&gt;N18</title>
<path fill="none" stroke="black" d="M703.017,-541.634C693.12,-522.499 677.089,-491.506 665.639,-469.37"/>
<polygon fill="black" stroke="black" points="668.747,-467.759 661.044,-460.485 662.53,-470.975 668.747,-467.759"/>
<text text-anchor="middle" x="702.25" y="-503.4" font-family="Times,serif" font-size="14.00">14.5</text>
</g>
<!-- N19 -->
<g id="node20" class="node"><title>N19</title>
<polygon fill="none" stroke="black" points="744.138,-347.301 559.862,-347.301 559.862,-310.699 744.138,-310.699 744.138,-347.301"/>
<text text-anchor="middle" x="652" y="-335.4" font-family="Times,serif" font-size="8.00">github.com/aybabtme/dskvs.(*member).getMembers</text>
<text text-anchor="end" x="736.758" y="-325.8" font-family="Times,serif" font-size="8.00">0.0 (0.0%)</text>
<text text-anchor="end" x="736.758" y="-316.2" font-family="Times,serif" font-size="8.00">of 14.5 (5.6%)</text>
</g>
<!-- N18&#45;&gt;N19 -->
<g id="edge16" class="edge"><title>N18&#45;&gt;N19</title>
<path fill="none" stroke="black" d="M652,-423.656C652,-406.002 652,-378.365 652,-357.681"/>
<polygon fill="black" stroke="black" points="655.5,-357.588 652,-347.588 648.5,-357.588 655.5,-357.588"/>
<text text-anchor="middle" x="664.25" y="-369.4" font-family="Times,serif" font-size="14.00">14.5</text>
</g>
<!-- N19&#45;&gt;N3 -->
<g id="edge10" class="edge"><title>N19&#45;&gt;N3</title>
<path fill="none" stroke="black" d="M652,-310.358C652,-294.274 652,-270.253 652,-251.625"/>
<polygon fill="black" stroke="black" points="655.5,-251.382 652,-241.382 648.5,-251.382 655.5,-251.382"/>
<text text-anchor="middle" x="664.25" y="-277.4" font-family="Times,serif" font-size="14.00">14.5</text>
</g>
<!-- N21 -->
<g id="node22" class="node"><title>N21</title>
<polygon fill="none" stroke="black" points="1187.4,-675.301 1042.6,-675.301 1042.6,-638.699 1187.4,-638.699 1187.4,-675.301"/>
<text text-anchor="middle" x="1115" y="-663.4" font-family="Times,serif" font-size="8.00">github.com/aybabtme/dskvs.writeToFile</text>
<text text-anchor="end" x="1179.6" y="-653.8" font-family="Times,serif" font-size="8.00">0.0 (0.0%)</text>
<text text-anchor="end" x="1179.6" y="-644.2" font-family="Times,serif" font-size="8.00">of 3.5 (1.4%)</text>
</g>
<!-- N20&#45;&gt;N21 -->
<g id="edge12" class="edge"><title>N20&#45;&gt;N21</title>
<path fill="none" stroke="black" d="M1114.19,-730.647C1114.33,-717.905 1114.53,-700.334 1114.69,-685.665"/>
<polygon fill="black" stroke="black" points="1118.19,-685.645 1114.8,-675.607 1111.19,-685.567 1118.19,-685.645"/>
<text text-anchor="middle" x="1122.75" y="-697.4" font-family="Times,serif" font-size="14.00">3.5</text>
</g>
<!-- N22 -->
<g id="node23" class="node"><title>N22</title>
<polygon fill="none" stroke="black" points="1244.23,-578.301 1079.77,-578.301 1079.77,-541.699 1244.23,-541.699 1244.23,-578.301"/>
<text text-anchor="middle" x="1162" y="-566.4" font-family="Times,serif" font-size="8.00">github.com/aybabtme/dskvs.fromPageToBytes</text>
<text text-anchor="end" x="1236.82" y="-556.8" font-family="Times,serif" font-size="8.00">0.0 (0.0%)</text>
<text text-anchor="end" x="1236.82" y="-547.2" font-family="Times,serif" font-size="8.00">of 3.0 (1.2%)</text>
</g>
<!-- N21&#45;&gt;N22 -->
<g id="edge3" class="edge"><title>N21&#45;&gt;N22</title>
<path fill="none" stroke="black" d="M1123.62,-638.576C1130.71,-624.247 1140.87,-603.715 1148.95,-587.373"/>
<polygon fill="black" stroke="black" points="1152.14,-588.829 1153.43,-578.314 1145.86,-585.725 1152.14,-588.829"/>
<text text-anchor="middle" x="1149.75" y="-605.4" font-family="Times,serif" font-size="14.00">3.0</text>
</g>
<!-- N22&#45;&gt;N3 -->
<g id="edge6" class="edge"><title>N22&#45;&gt;N3</title>
<path fill="none" stroke="black" d="M1164.84,-541.479C1168.9,-510.213 1172.81,-444.145 1142,-402 1036.5,-257.688 802.119,-230.102 700.526,-225.03"/>
<polygon fill="black" stroke="black" points="700.396,-221.521 690.25,-224.572 700.084,-228.514 700.396,-221.521"/>
<text text-anchor="middle" x="1133.75" y="-369.4" font-family="Times,serif" font-size="14.00">1.0</text>
</g>
<!-- N25 -->
<g id="node26" class="node"><title>N25</title>
<polygon fill="none" stroke="black" points="1346.14,-460.301 1189.86,-460.301 1189.86,-423.699 1346.14,-423.699 1346.14,-460.301"/>
<text text-anchor="middle" x="1268" y="-448.4" font-family="Times,serif" font-size="8.00">github.com/aybabtme/dskvs.newFileHeader</text>
<text text-anchor="end" x="1338.43" y="-438.8" font-family="Times,serif" font-size="8.00">0.0 (0.0%)</text>
<text text-anchor="end" x="1338.43" y="-429.2" font-family="Times,serif" font-size="8.00">of 2.0 (0.8%)</text>
</g>
<!-- N22&#45;&gt;N25 -->
<g id="edge21" class="edge"><title>N22&#45;&gt;N25</title>
<path fill="none" stroke="black" d="M1177.87,-541.634C1195.74,-522.072 1224.94,-490.117 1245.25,-467.901"/>
<polygon fill="black" stroke="black" points="1247.86,-470.228 1252.02,-460.485 1242.69,-465.506 1247.86,-470.228"/>
<text text-anchor="middle" x="1223.75" y="-503.4" font-family="Times,serif" font-size="14.00">2.0</text>
</g>
<!-- N23 -->
<g id="node24" class="node"><title>N23</title>
<polygon fill="none" stroke="black" points="493.953,-347.761 418.047,-347.761 418.047,-310.239 493.953,-310.239 493.953,-347.761"/>
<text text-anchor="middle" x="456" y="-331.48" font-family="Times,serif" font-size="12.40">concatstring</text>
<text text-anchor="end" x="486.301" y="-316.6" font-family="Times,serif" font-size="12.40">2.0 (0.8%)</text>
</g>
<!-- N24 -->
<g id="node25" class="node"><title>N24</title>
<polygon fill="none" stroke="black" points="1297.33,-347.301 1196.67,-347.301 1196.67,-310.699 1297.33,-310.699 1297.33,-347.301"/>
<text text-anchor="middle" x="1247" y="-335.4" font-family="Times,serif" font-size="8.00">crypto/sha1.(*digest).Sum</text>
<text text-anchor="end" x="1289.22" y="-325.8" font-family="Times,serif" font-size="8.00">0.0 (0.0%)</text>
<text text-anchor="end" x="1289.22" y="-316.2" font-family="Times,serif" font-size="8.00">of 2.0 (0.8%)</text>
</g>
<!-- N24&#45;&gt;N3 -->
<g id="edge7" class="edge"><title>N24&#45;&gt;N3</title>
<path fill="none" stroke="black" d="M1230.05,-310.699C1216.64,-298.191 1196.77,-282.12 1176,-274 1089.96,-240.361 812.967,-228.669 700.32,-225.24"/>
<polygon fill="black" stroke="black" points="700.361,-221.74 690.261,-224.943 700.154,-228.737 700.361,-221.74"/>
<text text-anchor="middle" x="1213.75" y="-277.4" font-family="Times,serif" font-size="14.00">2.0</text>
</g>
<!-- N25&#45;&gt;N24 -->
<g id="edge1" class="edge"><title>N25&#45;&gt;N24</title>
<path fill="none" stroke="black" d="M1264.72,-423.656C1261.38,-406.002 1256.15,-378.365 1252.24,-357.681"/>
<polygon fill="black" stroke="black" points="1255.63,-356.763 1250.33,-347.588 1248.75,-358.065 1255.63,-356.763"/>
<text text-anchor="middle" x="1264.75" y="-369.4" font-family="Times,serif" font-size="14.00">2.0</text>
</g>
<!-- N26&#45;&gt;N23 -->
<g id="edge30" class="edge"><title>N26&#45;&gt;N23</title>
<path fill="none" stroke="black" d="M456,-423.656C456,-406.106 456,-378.69 456,-358.047"/>
<polygon fill="black" stroke="black" points="459.5,-357.957 456,-347.957 452.5,-357.957 459.5,-357.957"/>
<text text-anchor="middle" x="464.75" y="-369.4" font-family="Times,serif" font-size="14.00">2.0</text>
</g>
<!-- N27&#45;&gt;N6 -->
<g id="edge17" class="edge"><title>N27&#45;&gt;N6</title>
<path fill="none" stroke="black" d="M437.247,-638.52C444.321,-627.323 454.421,-612.903 465.5,-602 471.927,-595.676 479.435,-589.671 486.91,-584.304"/>
<polygon fill="black" stroke="black" points="489.354,-586.871 495.605,-578.317 485.384,-581.106 489.354,-586.871"/>
<text text-anchor="middle" x="474.75" y="-605.4" font-family="Times,serif" font-size="14.00">1.5</text>
</g>
</g>
</g></svg>
