<?xml version="1.0" encoding="UTF-8" standalone="no"?>
<!DOCTYPE svg PUBLIC "-//W3C//DTD SVG 1.1//EN"
 "http://www.w3.org/Graphics/SVG/1.1/DTD/svg11.dtd">
<!-- Generated by graphviz version 2.30.1 (20130612.0156)
 -->
<!-- Title: dskvs.test; 34.0 MB Pages: 1 -->
<svg width="100%" height="100%"
  xmlns="http://www.w3.org/2000/svg" xmlns:xlink="http://www.w3.org/1999/xlink">
<script type="text/ecmascript"><![CDATA[
// SVGPan
// http://www.cyberz.org/blog/2009/12/08/svgpan-a-javascript-svg-panzoomdrag-library/
// Local modification: if(true || ...) below to force panning, never moving.
// Local modification: add clamping to fix bug in handleMouseWheel.

/**
 *  SVGPan library 1.2
 * ====================
 *
 * Given an unique existing element with id "viewport", including the
 * the library into any SVG adds the following capabilities:
 *
 *  - Mouse panning
 *  - Mouse zooming (using the wheel)
 *  - Object dargging
 *
 * Known issues:
 *
 *  - Zooming (while panning) on Safari has still some issues
 *
 * Releases:
 *
 * 1.2, Sat Mar 20 08:42:50 GMT 2010, Zeng Xiaohui
 *	Fixed a bug with browser mouse handler interaction
 *
 * 1.1, Wed Feb  3 17:39:33 GMT 2010, Zeng Xiaohui
 *	Updated the zoom code to support the mouse wheel on Safari/Chrome
 *
 * 1.0, Andrea Leofreddi
 *	First release
 *
 * This code is licensed under the following BSD license:
 *
 * Copyright 2009-2010 Andrea Leofreddi <a.leofreddi@itcharm.com>. All rights reserved.
 *
 * Redistribution and use in source and binary forms, with or without modification, are
 * permitted provided that the following conditions are met:
 *
 *    1. Redistributions of source code must retain the above copyright notice, this list of
 *       conditions and the following disclaimer.
 *
 *    2. Redistributions in binary form must reproduce the above copyright notice, this list
 *       of conditions and the following disclaimer in the documentation and/or other materials
 *       provided with the distribution.
 *
 * THIS SOFTWARE IS PROVIDED BY Andrea Leofreddi ``AS IS'' AND ANY EXPRESS OR IMPLIED
 * WARRANTIES, INCLUDING, BUT NOT LIMITED TO, THE IMPLIED WARRANTIES OF MERCHANTABILITY AND
 * FITNESS FOR A PARTICULAR PURPOSE ARE DISCLAIMED. IN NO EVENT SHALL Andrea Leofreddi OR
 * CONTRIBUTORS BE LIABLE FOR ANY DIRECT, INDIRECT, INCIDENTAL, SPECIAL, EXEMPLARY, OR
 * CONSEQUENTIAL DAMAGES (INCLUDING, BUT NOT LIMITED TO, PROCUREMENT OF SUBSTITUTE GOODS OR
 * SERVICES; LOSS OF USE, DATA, OR PROFITS; OR BUSINESS INTERRUPTION) HOWEVER CAUSED AND ON
 * ANY THEORY OF LIABILITY, WHETHER IN CONTRACT, STRICT LIABILITY, OR TORT (INCLUDING
 * NEGLIGENCE OR OTHERWISE) ARISING IN ANY WAY OUT OF THE USE OF THIS SOFTWARE, EVEN IF
 * ADVISED OF THE POSSIBILITY OF SUCH DAMAGE.
 *
 * The views and conclusions contained in the software and documentation are those of the
 * authors and should not be interpreted as representing official policies, either expressed
 * or implied, of Andrea Leofreddi.
 */

var root = document.documentElement;

var state = 'none', stateTarget, stateOrigin, stateTf;

setupHandlers(root);

/**
 * Register handlers
 */
function setupHandlers(root){
	setAttributes(root, {
		"onmouseup" : "add(evt)",
		"onmousedown" : "handleMouseDown(evt)",
		"onmousemove" : "handleMouseMove(evt)",
		"onmouseup" : "handleMouseUp(evt)",
		//"onmouseout" : "handleMouseUp(evt)", // Decomment this to stop the pan functionality when dragging out of the SVG element
	});

	if(navigator.userAgent.toLowerCase().indexOf('webkit') >= 0)
		window.addEventListener('mousewheel', handleMouseWheel, false); // Chrome/Safari
	else
		window.addEventListener('DOMMouseScroll', handleMouseWheel, false); // Others

	var g = svgDoc.getElementById("svg");
	g.width = "100%";
	g.height = "100%";
}

/**
 * Instance an SVGPoint object with given event coordinates.
 */
function getEventPoint(evt) {
	var p = root.createSVGPoint();

	p.x = evt.clientX;
	p.y = evt.clientY;

	return p;
}

/**
 * Sets the current transform matrix of an element.
 */
function setCTM(element, matrix) {
	var s = "matrix(" + matrix.a + "," + matrix.b + "," + matrix.c + "," + matrix.d + "," + matrix.e + "," + matrix.f + ")";

	element.setAttribute("transform", s);
}

/**
 * Dumps a matrix to a string (useful for debug).
 */
function dumpMatrix(matrix) {
	var s = "[ " + matrix.a + ", " + matrix.c + ", " + matrix.e + "\n  " + matrix.b + ", " + matrix.d + ", " + matrix.f + "\n  0, 0, 1 ]";

	return s;
}

/**
 * Sets attributes of an element.
 */
function setAttributes(element, attributes){
	for (i in attributes)
		element.setAttributeNS(null, i, attributes[i]);
}

/**
 * Handle mouse move event.
 */
function handleMouseWheel(evt) {
	if(evt.preventDefault)
		evt.preventDefault();

	evt.returnValue = false;

	var svgDoc = evt.target.ownerDocument;

	var delta;

	if(evt.wheelDelta)
		delta = evt.wheelDelta / 3600; // Chrome/Safari
	else
		delta = evt.detail / -90; // Mozilla

	var z = 1 + delta; // Zoom factor: 0.9/1.1

	// Clamp to reasonable values.
	// The 0.1 check is important because
	// a very large scroll can turn into a
	// negative z, which rotates the image 180 degrees.
	if(z < 0.1)
		z = 0.1;
	if(z > 10.0)
		z = 10.0;

	var g = svgDoc.getElementById("viewport");

	var p = getEventPoint(evt);

	p = p.matrixTransform(g.getCTM().inverse());

	// Compute new scale matrix in current mouse position
	var k = root.createSVGMatrix().translate(p.x, p.y).scale(z).translate(-p.x, -p.y);

        setCTM(g, g.getCTM().multiply(k));

	stateTf = stateTf.multiply(k.inverse());
}

/**
 * Handle mouse move event.
 */
function handleMouseMove(evt) {
	if(evt.preventDefault)
		evt.preventDefault();

	evt.returnValue = false;

	var svgDoc = evt.target.ownerDocument;

	var g = svgDoc.getElementById("viewport");

	if(state == 'pan') {
		// Pan mode
		var p = getEventPoint(evt).matrixTransform(stateTf);

		setCTM(g, stateTf.inverse().translate(p.x - stateOrigin.x, p.y - stateOrigin.y));
	} else if(state == 'move') {
		// Move mode
		var p = getEventPoint(evt).matrixTransform(g.getCTM().inverse());

		setCTM(stateTarget, root.createSVGMatrix().translate(p.x - stateOrigin.x, p.y - stateOrigin.y).multiply(g.getCTM().inverse()).multiply(stateTarget.getCTM()));

		stateOrigin = p;
	}
}

/**
 * Handle click event.
 */
function handleMouseDown(evt) {
	if(evt.preventDefault)
		evt.preventDefault();

	evt.returnValue = false;

	var svgDoc = evt.target.ownerDocument;

	var g = svgDoc.getElementById("viewport");

	if(true || evt.target.tagName == "svg") {
		// Pan mode
		state = 'pan';

		stateTf = g.getCTM().inverse();

		stateOrigin = getEventPoint(evt).matrixTransform(stateTf);
	} else {
		// Move mode
		state = 'move';

		stateTarget = evt.target;

		stateTf = g.getCTM().inverse();

		stateOrigin = getEventPoint(evt).matrixTransform(stateTf);
	}
}

/**
 * Handle mouse button release event.
 */
function handleMouseUp(evt) {
	if(evt.preventDefault)
		evt.preventDefault();

	evt.returnValue = false;

	var svgDoc = evt.target.ownerDocument;

	if(state == 'pan' || state == 'move') {
		// Quit pan mode
		state = '';
	}
}

]]></script>
<g id="viewport" transform="translate(0,0)">
<g id="viewport" class="graph" transform="scale(1 1) rotate(0) translate(4 1918)">
<title>dskvs.test; 34.0 MB</title>
<polygon fill="white" stroke="white" points="-4,5 -4,-1918 1260,-1918 1260,5 -4,5"/>
<!-- Legend -->
<g id="node1" class="node"><title>Legend</title>
<text text-anchor="start" x="7.48438" y="-1886" font-family="Times,serif" font-size="24.00">dskvs.test</text>
<text text-anchor="start" x="7.48438" y="-1857.2" font-family="Times,serif" font-size="24.00">Total MB: 34.0</text>
<text text-anchor="start" x="7.48438" y="-1828.4" font-family="Times,serif" font-size="24.00">Focusing on: 34.0</text>
<text text-anchor="start" x="7.48438" y="-1799.6" font-family="Times,serif" font-size="24.00">Dropped nodes with &lt;= 0.2 abs(MB)</text>
<text text-anchor="start" x="7.48438" y="-1770.8" font-family="Times,serif" font-size="24.00">Dropped edges with &lt;= 0.0 MB</text>
</g>
<!-- N1 -->
<g id="node2" class="node"><title>N1</title>
<polygon fill="none" stroke="black" points="458.994,-1856.3 389.006,-1856.3 389.006,-1819.7 458.994,-1819.7 458.994,-1856.3"/>
<text text-anchor="middle" x="424" y="-1844.4" font-family="Times,serif" font-size="8.00">gosched0</text>
<text text-anchor="end" x="451.328" y="-1834.8" font-family="Times,serif" font-size="8.00">0.0 (0.0%)</text>
<text text-anchor="end" x="451.328" y="-1825.2" font-family="Times,serif" font-size="8.00">of 34.0 (100.0%)</text>
</g>
<!-- N2 -->
<g id="node3" class="node"><title>N2</title>
<polygon fill="none" stroke="black" points="456.994,-1707.3 391.006,-1707.3 391.006,-1670.7 456.994,-1670.7 456.994,-1707.3"/>
<text text-anchor="middle" x="424" y="-1695.4" font-family="Times,serif" font-size="8.00">testing.tRunner</text>
<text text-anchor="end" x="449.328" y="-1685.8" font-family="Times,serif" font-size="8.00">0.0 (0.0%)</text>
<text text-anchor="end" x="449.328" y="-1676.2" font-family="Times,serif" font-size="8.00">of 33.5 (98.5%)</text>
</g>
<!-- N1&#45;&gt;N2 -->
<g id="edge4" class="edge"><title>N1&#45;&gt;N2</title>
<path fill="none" stroke="black" stroke-width="2" d="M424,-1819.56C424,-1794.36 424,-1747.52 424,-1717.6"/>
<polygon fill="black" stroke="black" points="427.5,-1717.42 424,-1707.42 420.5,-1717.42 427.5,-1717.42"/>
<text text-anchor="middle" x="436.25" y="-1729.4" font-family="Times,serif" font-size="14.00">33.5</text>
</g>
<!-- N27 -->
<g id="node28" class="node"><title>N27</title>
<polygon fill="none" stroke="black" points="892.152,-1651.3 755.848,-1651.3 755.848,-1614.7 892.152,-1614.7 892.152,-1651.3"/>
<text text-anchor="middle" x="824" y="-1639.4" font-family="Times,serif" font-size="8.00">github.com/aybabtme/dskvs.func·001</text>
<text text-anchor="end" x="884.102" y="-1629.8" font-family="Times,serif" font-size="8.00">0.0 (0.0%)</text>
<text text-anchor="end" x="884.102" y="-1620.2" font-family="Times,serif" font-size="8.00">of 0.5 (1.5%)</text>
</g>
<!-- N1&#45;&gt;N27 -->
<g id="edge8" class="edge"><title>N1&#45;&gt;N27</title>
<path fill="none" stroke="black" d="M458.104,-1819.69C530.632,-1782.88 700.101,-1696.88 780.365,-1656.14"/>
<polygon fill="black" stroke="black" points="782.366,-1659.05 789.699,-1651.41 779.198,-1652.81 782.366,-1659.05"/>
<text text-anchor="middle" x="649.75" y="-1729.4" font-family="Times,serif" font-size="14.00">0.5</text>
</g>
<!-- N8 -->
<g id="node9" class="node"><title>N8</title>
<polygon fill="none" stroke="black" points="818.223,-1595.3 577.777,-1595.3 577.777,-1558.7 818.223,-1558.7 818.223,-1595.3"/>
<text text-anchor="middle" x="698" y="-1583.4" font-family="Times,serif" font-size="8.00">github.com/aybabtme/dskvs.TestMultipleOperationsPersistAfterClose</text>
<text text-anchor="end" x="810.148" y="-1573.8" font-family="Times,serif" font-size="8.00">0.0 (0.0%)</text>
<text text-anchor="end" x="810.148" y="-1564.2" font-family="Times,serif" font-size="8.00">of 6.5 (19.1%)</text>
</g>
<!-- N2&#45;&gt;N8 -->
<g id="edge2" class="edge"><title>N2&#45;&gt;N8</title>
<path fill="none" stroke="black" stroke-width="1.14706" d="M457.051,-1674.73C503.74,-1655.99 589.504,-1621.56 645.111,-1599.23"/>
<polygon fill="black" stroke="black" points="646.469,-1602.46 654.446,-1595.49 643.861,-1595.96 646.469,-1602.46"/>
<text text-anchor="middle" x="609.75" y="-1627.4" font-family="Times,serif" font-size="14.00">6.5</text>
</g>
<!-- N3 -->
<g id="node4" class="node"><title>N3</title>
<polygon fill="none" stroke="black" points="559.138,-1595.3 288.862,-1595.3 288.862,-1558.7 559.138,-1558.7 559.138,-1595.3"/>
<text text-anchor="middle" x="424" y="-1583.4" font-family="Times,serif" font-size="8.00">github.com/aybabtme/dskvs.TestOneOperationWithMultipleConcurrentRequest</text>
<text text-anchor="end" x="551.758" y="-1573.8" font-family="Times,serif" font-size="8.00">0.0 (0.0%)</text>
<text text-anchor="end" x="551.758" y="-1564.2" font-family="Times,serif" font-size="8.00">of 27.0 (79.4%)</text>
</g>
<!-- N2&#45;&gt;N3 -->
<g id="edge26" class="edge"><title>N2&#45;&gt;N3</title>
<path fill="none" stroke="black" stroke-width="2" d="M424,-1670.33C424,-1652.93 424,-1626.09 424,-1605.83"/>
<polygon fill="black" stroke="black" points="427.5,-1605.63 424,-1595.63 420.5,-1605.63 427.5,-1605.63"/>
<text text-anchor="middle" x="436.25" y="-1627.4" font-family="Times,serif" font-size="14.00">27.0</text>
</g>
<!-- N4 -->
<g id="node5" class="node"><title>N4</title>
<polygon fill="none" stroke="black" points="489.401,-1483.3 358.599,-1483.3 358.599,-1446.7 489.401,-1446.7 489.401,-1483.3"/>
<text text-anchor="middle" x="424" y="-1471.4" font-family="Times,serif" font-size="8.00">github.com/aybabtme/dskvs.runTest</text>
<text text-anchor="end" x="481.934" y="-1461.8" font-family="Times,serif" font-size="8.00">0.0 (0.0%)</text>
<text text-anchor="end" x="481.934" y="-1452.2" font-family="Times,serif" font-size="8.00">of 27.0 (79.4%)</text>
</g>
<!-- N3&#45;&gt;N4 -->
<g id="edge10" class="edge"><title>N3&#45;&gt;N4</title>
<path fill="none" stroke="black" stroke-width="2" d="M424,-1558.33C424,-1540.93 424,-1514.09 424,-1493.83"/>
<polygon fill="black" stroke="black" points="427.5,-1493.63 424,-1483.63 420.5,-1493.63 427.5,-1493.63"/>
<text text-anchor="middle" x="436.25" y="-1515.4" font-family="Times,serif" font-size="14.00">27.0</text>
</g>
<!-- N5 -->
<g id="node6" class="node"><title>N5</title>
<polygon fill="none" stroke="black" points="459.32,-1364.3 388.68,-1364.3 388.68,-1327.7 459.32,-1327.7 459.32,-1364.3"/>
<text text-anchor="middle" x="424" y="-1352.4" font-family="Times,serif" font-size="8.00">runtime.newproc</text>
<text text-anchor="end" x="451.213" y="-1342.8" font-family="Times,serif" font-size="8.00">0.0 (0.0%)</text>
<text text-anchor="end" x="451.213" y="-1333.2" font-family="Times,serif" font-size="8.00">of 27.0 (79.4%)</text>
</g>
<!-- N4&#45;&gt;N5 -->
<g id="edge19" class="edge"><title>N4&#45;&gt;N5</title>
<path fill="none" stroke="black" stroke-width="2" d="M424,-1446.48C424,-1427.53 424,-1397.04 424,-1374.8"/>
<polygon fill="black" stroke="black" points="427.5,-1374.64 424,-1364.64 420.5,-1374.64 427.5,-1374.64"/>
<text text-anchor="middle" x="436.25" y="-1403.4" font-family="Times,serif" font-size="14.00">27.0</text>
</g>
<!-- N6 -->
<g id="node7" class="node"><title>N6</title>
<polygon fill="none" stroke="black" points="461.32,-1236.3 386.68,-1236.3 386.68,-1199.7 461.32,-1199.7 461.32,-1236.3"/>
<text text-anchor="middle" x="424" y="-1224.4" font-family="Times,serif" font-size="8.00">runtime.newproc1</text>
<text text-anchor="end" x="453.213" y="-1214.8" font-family="Times,serif" font-size="8.00">0.0 (0.0%)</text>
<text text-anchor="end" x="453.213" y="-1205.2" font-family="Times,serif" font-size="8.00">of 27.0 (79.4%)</text>
</g>
<!-- N5&#45;&gt;N6 -->
<g id="edge16" class="edge"><title>N5&#45;&gt;N6</title>
<path fill="none" stroke="black" stroke-width="2" d="M424,-1327.48C424,-1306.51 424,-1271.15 424,-1246.52"/>
<polygon fill="black" stroke="black" points="427.5,-1246.37 424,-1236.37 420.5,-1246.37 427.5,-1246.37"/>
<text text-anchor="middle" x="436.25" y="-1277.4" font-family="Times,serif" font-size="14.00">27.0</text>
</g>
<!-- N23 -->
<g id="node24" class="node"><title>N23</title>
<polygon fill="none" stroke="black" points="651.994,-139.301 594.006,-139.301 594.006,-102.699 651.994,-102.699 651.994,-139.301"/>
<text text-anchor="middle" x="623" y="-127.4" font-family="Times,serif" font-size="8.00">runqput</text>
<text text-anchor="end" x="644.328" y="-117.8" font-family="Times,serif" font-size="8.00">0.0 (0.0%)</text>
<text text-anchor="end" x="644.328" y="-108.2" font-family="Times,serif" font-size="8.00">of 1.0 (2.9%)</text>
</g>
<!-- N6&#45;&gt;N23 -->
<g id="edge5" class="edge"><title>N6&#45;&gt;N23</title>
<path fill="none" stroke="black" d="M461.266,-1201.99C496.774,-1185.84 549.246,-1156.86 580,-1116 598.433,-1091.51 600,-1080.65 600,-1050 600,-1050 600,-1050 600,-212 600,-190.43 606.278,-166.832 612.274,-149.213"/>
<polygon fill="black" stroke="black" points="615.644,-150.185 615.723,-139.591 609.054,-147.824 615.644,-150.185"/>
<text text-anchor="middle" x="608.75" y="-601.4" font-family="Times,serif" font-size="14.00">0.5</text>
</g>
<!-- N7 -->
<g id="node8" class="node"><title>N7</title>
<polygon fill="none" stroke="black" points="571.436,-1115.54 276.564,-1115.54 276.564,-982.46 571.436,-982.46 571.436,-1115.54"/>
<text text-anchor="middle" x="424" y="-1059.42" font-family="Times,serif" font-size="52.10">runtime.malg</text>
<text text-anchor="end" x="563.624" y="-996.9" font-family="Times,serif" font-size="52.10">26.5 (77.9%)</text>
</g>
<!-- N6&#45;&gt;N7 -->
<g id="edge27" class="edge"><title>N6&#45;&gt;N7</title>
<path fill="none" stroke="black" stroke-width="2" d="M424,-1199.44C424,-1181.77 424,-1153.27 424,-1125.87"/>
<polygon fill="black" stroke="black" points="427.5,-1125.85 424,-1115.85 420.5,-1125.85 427.5,-1125.85"/>
<text text-anchor="middle" x="436.25" y="-1147.4" font-family="Times,serif" font-size="14.00">26.5</text>
</g>
<!-- N14 -->
<g id="node15" class="node"><title>N14</title>
<polygon fill="none" stroke="black" points="921.99,-1483.3 796.01,-1483.3 796.01,-1446.7 921.99,-1446.7 921.99,-1483.3"/>
<text text-anchor="middle" x="859" y="-1471.4" font-family="Times,serif" font-size="8.00">github.com/aybabtme/dskvs.setUp</text>
<text text-anchor="end" x="914.326" y="-1461.8" font-family="Times,serif" font-size="8.00">0.0 (0.0%)</text>
<text text-anchor="end" x="914.326" y="-1452.2" font-family="Times,serif" font-size="8.00">of 2.5 (7.4%)</text>
</g>
<!-- N8&#45;&gt;N14 -->
<g id="edge9" class="edge"><title>N8&#45;&gt;N14</title>
<path fill="none" stroke="black" d="M723.511,-1558.57C750.949,-1539.82 794.714,-1509.92 825.047,-1489.2"/>
<polygon fill="black" stroke="black" points="827.326,-1491.88 833.608,-1483.35 823.377,-1486.1 827.326,-1491.88"/>
<text text-anchor="middle" x="810.75" y="-1515.4" font-family="Times,serif" font-size="14.00">2.5</text>
</g>
<!-- N21 -->
<g id="node22" class="node"><title>N21</title>
<polygon fill="none" stroke="black" points="1105.13,-1483.3 954.865,-1483.3 954.865,-1446.7 1105.13,-1446.7 1105.13,-1483.3"/>
<text text-anchor="middle" x="1030" y="-1471.4" font-family="Times,serif" font-size="8.00">github.com/aybabtme/dskvs.generateData</text>
<text text-anchor="end" x="1097.09" y="-1461.8" font-family="Times,serif" font-size="8.00">0.0 (0.0%)</text>
<text text-anchor="end" x="1097.09" y="-1452.2" font-family="Times,serif" font-size="8.00">of 1.5 (4.4%)</text>
</g>
<!-- N8&#45;&gt;N21 -->
<g id="edge14" class="edge"><title>N8&#45;&gt;N21</title>
<path fill="none" stroke="black" d="M761.184,-1558.64C781.048,-1552.96 803.011,-1546.44 823,-1540 874.728,-1523.32 932.961,-1502.3 974.454,-1486.93"/>
<polygon fill="black" stroke="black" points="975.68,-1490.21 983.835,-1483.44 973.242,-1483.65 975.68,-1490.21"/>
<text text-anchor="middle" x="938.75" y="-1515.4" font-family="Times,serif" font-size="14.00">1.5</text>
</g>
<!-- N10 -->
<g id="node11" class="node"><title>N10</title>
<polygon fill="none" stroke="black" points="1055.14,-743.301 978.856,-743.301 978.856,-706.699 1055.14,-706.699 1055.14,-743.301"/>
<text text-anchor="middle" x="1017" y="-731.4" font-family="Times,serif" font-size="8.00">runtime.cnewarray</text>
<text text-anchor="end" x="1047.1" y="-721.8" font-family="Times,serif" font-size="8.00">0.0 (0.0%)</text>
<text text-anchor="end" x="1047.1" y="-712.2" font-family="Times,serif" font-size="8.00">of 3.5 (10.3%)</text>
</g>
<!-- N8&#45;&gt;N10 -->
<g id="edge18" class="edge"><title>N8&#45;&gt;N10</title>
<path fill="none" stroke="black" d="M615.375,-1558.64C568.056,-1543.33 518,-1515.44 518,-1466 518,-1466 518,-1466 518,-1282 518,-1240.25 507.863,-1219.9 537,-1190 561.526,-1164.83 590.67,-1198.28 614,-1172 678.118,-1099.76 638,-1052.59 638,-956 638,-956 638,-956 638,-816 638,-748.737 866.828,-731.665 968.874,-727.396"/>
<polygon fill="black" stroke="black" points="969.07,-730.891 978.925,-727 968.795,-723.896 969.07,-730.891"/>
<text text-anchor="middle" x="647.75" y="-1147.4" font-family="Times,serif" font-size="14.00">0.5</text>
</g>
<!-- N17 -->
<g id="node18" class="node"><title>N17</title>
<polygon fill="none" stroke="black" points="771.156,-1483.3 624.844,-1483.3 624.844,-1446.7 771.156,-1446.7 771.156,-1483.3"/>
<text text-anchor="middle" x="698" y="-1471.4" font-family="Times,serif" font-size="8.00">github.com/aybabtme/dskvs.(*Store).Put</text>
<text text-anchor="end" x="763.438" y="-1461.8" font-family="Times,serif" font-size="8.00">0.0 (0.0%)</text>
<text text-anchor="end" x="763.438" y="-1452.2" font-family="Times,serif" font-size="8.00">of 2.0 (5.9%)</text>
</g>
<!-- N8&#45;&gt;N17 -->
<g id="edge33" class="edge"><title>N8&#45;&gt;N17</title>
<path fill="none" stroke="black" d="M698,-1558.33C698,-1540.93 698,-1514.09 698,-1493.83"/>
<polygon fill="black" stroke="black" points="701.5,-1493.63 698,-1483.63 694.5,-1493.63 701.5,-1493.63"/>
<text text-anchor="middle" x="706.75" y="-1515.4" font-family="Times,serif" font-size="14.00">2.0</text>
</g>
<!-- N9 -->
<g id="node10" class="node"><title>N9</title>
<polygon fill="none" stroke="black" points="1091.17,-652.441 942.833,-652.441 942.833,-561.559 1091.17,-561.559 1091.17,-652.441"/>
<text text-anchor="middle" x="1017" y="-625.32" font-family="Times,serif" font-size="22.90">cnew</text>
<text text-anchor="end" x="1083.78" y="-597.84" font-family="Times,serif" font-size="22.90">3.0 (8.8%)</text>
<text text-anchor="end" x="1083.78" y="-570.36" font-family="Times,serif" font-size="22.90">of 3.5 (10.3%)</text>
</g>
<!-- N31 -->
<g id="node32" class="node"><title>N31</title>
<polygon fill="none" stroke="black" points="866.994,-507.301 809.006,-507.301 809.006,-470.699 866.994,-470.699 866.994,-507.301"/>
<text text-anchor="middle" x="838" y="-495.4" font-family="Times,serif" font-size="8.00">runtime.gc</text>
<text text-anchor="end" x="859.328" y="-485.8" font-family="Times,serif" font-size="8.00">0.0 (0.0%)</text>
<text text-anchor="end" x="859.328" y="-476.2" font-family="Times,serif" font-size="8.00">of 0.5 (1.5%)</text>
</g>
<!-- N9&#45;&gt;N31 -->
<g id="edge21" class="edge"><title>N9&#45;&gt;N31</title>
<path fill="none" stroke="black" d="M948.562,-561.649C922.885,-545.009 894.757,-526.781 873.298,-512.874"/>
<polygon fill="black" stroke="black" points="875.127,-509.889 864.831,-507.388 871.32,-515.764 875.127,-509.889"/>
<text text-anchor="middle" x="924.75" y="-529.4" font-family="Times,serif" font-size="14.00">0.5</text>
</g>
<!-- N10&#45;&gt;N9 -->
<g id="edge34" class="edge"><title>N10&#45;&gt;N9</title>
<path fill="none" stroke="black" d="M1017,-706.634C1017,-694.864 1017,-678.609 1017,-662.688"/>
<polygon fill="black" stroke="black" points="1020.5,-662.325 1017,-652.325 1013.5,-662.325 1020.5,-662.325"/>
<text text-anchor="middle" x="1025.75" y="-673.4" font-family="Times,serif" font-size="14.00">3.5</text>
</g>
<!-- N11 -->
<g id="node12" class="node"><title>N11</title>
<polygon fill="none" stroke="black" points="949.981,-1364.3 798.019,-1364.3 798.019,-1327.7 949.981,-1327.7 949.981,-1364.3"/>
<text text-anchor="middle" x="874" y="-1352.4" font-family="Times,serif" font-size="8.00">github.com/aybabtme/dskvs.(*Store).Load</text>
<text text-anchor="end" x="942.32" y="-1342.8" font-family="Times,serif" font-size="8.00">0.0 (0.0%)</text>
<text text-anchor="end" x="942.32" y="-1333.2" font-family="Times,serif" font-size="8.00">of 2.5 (7.4%)</text>
</g>
<!-- N12 -->
<g id="node13" class="node"><title>N12</title>
<polygon fill="none" stroke="black" points="1102.14,-1236.3 931.855,-1236.3 931.855,-1199.7 1102.14,-1199.7 1102.14,-1236.3"/>
<text text-anchor="middle" x="1017" y="-1224.4" font-family="Times,serif" font-size="8.00">github.com/aybabtme/dskvs.(*janitor).loadStore</text>
<text text-anchor="end" x="1094.43" y="-1214.8" font-family="Times,serif" font-size="8.00">0.0 (0.0%)</text>
<text text-anchor="end" x="1094.43" y="-1205.2" font-family="Times,serif" font-size="8.00">of 2.5 (7.4%)</text>
</g>
<!-- N11&#45;&gt;N12 -->
<g id="edge32" class="edge"><title>N11&#45;&gt;N12</title>
<path fill="none" stroke="black" d="M893.884,-1327.48C918.75,-1305.57 961.45,-1267.95 989.453,-1243.27"/>
<polygon fill="black" stroke="black" points="992.096,-1245.61 997.285,-1236.37 987.468,-1240.36 992.096,-1245.61"/>
<text text-anchor="middle" x="970.75" y="-1277.4" font-family="Times,serif" font-size="14.00">2.5</text>
</g>
<!-- N13 -->
<g id="node14" class="node"><title>N13</title>
<polygon fill="none" stroke="black" points="1092.15,-1067.3 941.847,-1067.3 941.847,-1030.7 1092.15,-1030.7 1092.15,-1067.3"/>
<text text-anchor="middle" x="1017" y="-1055.4" font-family="Times,serif" font-size="8.00">github.com/aybabtme/dskvs.readFromFile</text>
<text text-anchor="end" x="1084.77" y="-1045.8" font-family="Times,serif" font-size="8.00">0.0 (0.0%)</text>
<text text-anchor="end" x="1084.77" y="-1036.2" font-family="Times,serif" font-size="8.00">of 2.5 (7.4%)</text>
</g>
<!-- N12&#45;&gt;N13 -->
<g id="edge20" class="edge"><title>N12&#45;&gt;N13</title>
<path fill="none" stroke="black" d="M1017,-1199.44C1017,-1170.43 1017,-1112.24 1017,-1077.65"/>
<polygon fill="black" stroke="black" points="1020.5,-1077.32 1017,-1067.32 1013.5,-1077.32 1020.5,-1077.32"/>
<text text-anchor="middle" x="1025.75" y="-1147.4" font-family="Times,serif" font-size="14.00">2.5</text>
</g>
<!-- N15 -->
<g id="node16" class="node"><title>N15</title>
<polygon fill="none" stroke="black" points="1053.16,-927.301 980.836,-927.301 980.836,-890.699 1053.16,-890.699 1053.16,-927.301"/>
<text text-anchor="middle" x="1017" y="-915.4" font-family="Times,serif" font-size="8.00">io/ioutil.ReadFile</text>
<text text-anchor="end" x="1045.11" y="-905.8" font-family="Times,serif" font-size="8.00">0.0 (0.0%)</text>
<text text-anchor="end" x="1045.11" y="-896.2" font-family="Times,serif" font-size="8.00">of 2.5 (7.4%)</text>
</g>
<!-- N13&#45;&gt;N15 -->
<g id="edge23" class="edge"><title>N13&#45;&gt;N15</title>
<path fill="none" stroke="black" d="M1017,-1030.52C1017,-1007.09 1017,-965.233 1017,-937.539"/>
<polygon fill="black" stroke="black" points="1020.5,-937.336 1017,-927.336 1013.5,-937.336 1020.5,-937.336"/>
<text text-anchor="middle" x="1025.75" y="-949.4" font-family="Times,serif" font-size="14.00">2.5</text>
</g>
<!-- N14&#45;&gt;N11 -->
<g id="edge15" class="edge"><title>N14&#45;&gt;N11</title>
<path fill="none" stroke="black" d="M861.246,-1446.48C863.676,-1427.53 867.585,-1397.04 870.436,-1374.8"/>
<polygon fill="black" stroke="black" points="873.939,-1375 871.739,-1364.64 866.996,-1374.11 873.939,-1375"/>
<text text-anchor="middle" x="876.75" y="-1403.4" font-family="Times,serif" font-size="14.00">2.5</text>
</g>
<!-- N16 -->
<g id="node17" class="node"><title>N16</title>
<polygon fill="none" stroke="black" points="1050.49,-835.301 983.508,-835.301 983.508,-798.699 1050.49,-798.699 1050.49,-835.301"/>
<text text-anchor="middle" x="1017" y="-823.4" font-family="Times,serif" font-size="8.00">io/ioutil.readAll</text>
<text text-anchor="end" x="1042.66" y="-813.8" font-family="Times,serif" font-size="8.00">0.0 (0.0%)</text>
<text text-anchor="end" x="1042.66" y="-804.2" font-family="Times,serif" font-size="8.00">of 2.5 (7.4%)</text>
</g>
<!-- N15&#45;&gt;N16 -->
<g id="edge31" class="edge"><title>N15&#45;&gt;N16</title>
<path fill="none" stroke="black" d="M1017,-890.647C1017,-877.905 1017,-860.334 1017,-845.665"/>
<polygon fill="black" stroke="black" points="1020.5,-845.607 1017,-835.607 1013.5,-845.607 1020.5,-845.607"/>
<text text-anchor="middle" x="1025.75" y="-857.4" font-family="Times,serif" font-size="14.00">2.5</text>
</g>
<!-- N16&#45;&gt;N10 -->
<g id="edge30" class="edge"><title>N16&#45;&gt;N10</title>
<path fill="none" stroke="black" d="M1017,-798.647C1017,-785.905 1017,-768.334 1017,-753.665"/>
<polygon fill="black" stroke="black" points="1020.5,-753.607 1017,-743.607 1013.5,-753.607 1020.5,-753.607"/>
<text text-anchor="middle" x="1025.75" y="-765.4" font-family="Times,serif" font-size="14.00">2.5</text>
</g>
<!-- N18 -->
<g id="node19" class="node"><title>N18</title>
<polygon fill="none" stroke="black" points="780.147,-1364.3 615.853,-1364.3 615.853,-1327.7 780.147,-1327.7 780.147,-1364.3"/>
<text text-anchor="middle" x="698" y="-1352.4" font-family="Times,serif" font-size="8.00">github.com/aybabtme/dskvs.(*collections).put</text>
<text text-anchor="end" x="772.098" y="-1342.8" font-family="Times,serif" font-size="8.00">0.0 (0.0%)</text>
<text text-anchor="end" x="772.098" y="-1333.2" font-family="Times,serif" font-size="8.00">of 2.0 (5.9%)</text>
</g>
<!-- N17&#45;&gt;N18 -->
<g id="edge6" class="edge"><title>N17&#45;&gt;N18</title>
<path fill="none" stroke="black" d="M698,-1446.48C698,-1427.53 698,-1397.04 698,-1374.8"/>
<polygon fill="black" stroke="black" points="701.5,-1374.64 698,-1364.64 694.5,-1374.64 701.5,-1374.64"/>
<text text-anchor="middle" x="706.75" y="-1403.4" font-family="Times,serif" font-size="14.00">2.0</text>
</g>
<!-- N19 -->
<g id="node20" class="node"><title>N19</title>
<polygon fill="none" stroke="black" points="913.341,-1246.24 546.659,-1246.24 546.659,-1189.76 913.341,-1189.76 913.341,-1246.24"/>
<text text-anchor="middle" x="730" y="-1222.02" font-family="Times,serif" font-size="20.10">github.com/aybabtme/dskvs.(*member).put</text>
<text text-anchor="end" x="905.561" y="-1197.9" font-family="Times,serif" font-size="20.10">2.0 (5.9%)</text>
</g>
<!-- N18&#45;&gt;N19 -->
<g id="edge13" class="edge"><title>N18&#45;&gt;N19</title>
<path fill="none" stroke="black" d="M702.449,-1327.48C707.087,-1309.22 714.496,-1280.05 720.464,-1256.55"/>
<polygon fill="black" stroke="black" points="723.935,-1257.1 723.005,-1246.54 717.151,-1255.37 723.935,-1257.1"/>
<text text-anchor="middle" x="725.75" y="-1277.4" font-family="Times,serif" font-size="14.00">2.0</text>
</g>
<!-- N20 -->
<g id="node21" class="node"><title>N20</title>
<polygon fill="none" stroke="black" points="1153.28,-1372.4 968.721,-1372.4 968.721,-1319.6 1153.28,-1319.6 1153.28,-1372.4"/>
<text text-anchor="middle" x="1061" y="-1349.7" font-family="Times,serif" font-size="18.50">encoding/json.Marshal</text>
<text text-anchor="end" x="1145.52" y="-1327.5" font-family="Times,serif" font-size="18.50">1.5 (4.4%)</text>
</g>
<!-- N21&#45;&gt;N20 -->
<g id="edge17" class="edge"><title>N21&#45;&gt;N20</title>
<path fill="none" stroke="black" d="M1034.64,-1446.48C1039.13,-1429.53 1046.07,-1403.36 1051.7,-1382.11"/>
<polygon fill="black" stroke="black" points="1055.08,-1383.01 1054.26,-1372.44 1048.31,-1381.21 1055.08,-1383.01"/>
<text text-anchor="middle" x="1057.75" y="-1403.4" font-family="Times,serif" font-size="14.00">1.5</text>
</g>
<!-- N22 -->
<g id="node23" class="node"><title>N22</title>
<polygon fill="none" stroke="black" points="665.902,-47.8403 580.098,-47.8403 580.098,-0.159733 665.902,-0.159733 665.902,-47.8403"/>
<text text-anchor="middle" x="623" y="-27.32" font-family="Times,serif" font-size="16.60">runqgrow</text>
<text text-anchor="end" x="658.267" y="-7.4" font-family="Times,serif" font-size="16.60">1.0 (2.9%)</text>
</g>
<!-- N23&#45;&gt;N22 -->
<g id="edge24" class="edge"><title>N23&#45;&gt;N22</title>
<path fill="none" stroke="black" d="M623,-102.576C623,-90.2479 623,-73.3289 623,-58.4369"/>
<polygon fill="black" stroke="black" points="626.5,-58.0461 623,-48.0461 619.5,-58.0461 626.5,-58.0461"/>
<text text-anchor="middle" x="631.75" y="-69.4" font-family="Times,serif" font-size="14.00">1.0</text>
</g>
<!-- N24 -->
<g id="node25" class="node"><title>N24</title>
<polygon fill="none" stroke="black" points="1193.33,-1171.3 1092.67,-1171.3 1092.67,-1134.7 1193.33,-1134.7 1193.33,-1171.3"/>
<text text-anchor="middle" x="1143" y="-1159.4" font-family="Times,serif" font-size="8.00">crypto/sha1.(*digest).Sum</text>
<text text-anchor="end" x="1185.22" y="-1149.8" font-family="Times,serif" font-size="8.00">0.0 (0.0%)</text>
<text text-anchor="end" x="1185.22" y="-1140.2" font-family="Times,serif" font-size="8.00">of 0.5 (1.5%)</text>
</g>
<!-- N24&#45;&gt;N10 -->
<g id="edge7" class="edge"><title>N24&#45;&gt;N10</title>
<path fill="none" stroke="black" d="M1140.75,-1134.47C1136.57,-1100.22 1128,-1022.04 1128,-956 1128,-956 1128,-956 1128,-816 1128,-781.151 1094.58,-757.448 1064.42,-743.153"/>
<polygon fill="black" stroke="black" points="1065.76,-739.918 1055.2,-739.016 1062.89,-746.304 1065.76,-739.918"/>
<text text-anchor="middle" x="1136.75" y="-903.4" font-family="Times,serif" font-size="14.00">0.5</text>
</g>
<!-- N25 -->
<g id="node26" class="node"><title>N25</title>
<polygon fill="none" stroke="black" points="737.994,-415.301 680.006,-415.301 680.006,-378.699 737.994,-378.699 737.994,-415.301"/>
<text text-anchor="middle" x="709" y="-403.4" font-family="Times,serif" font-size="8.00">gc</text>
<text text-anchor="end" x="730.328" y="-393.8" font-family="Times,serif" font-size="8.00">0.0 (0.0%)</text>
<text text-anchor="end" x="730.328" y="-384.2" font-family="Times,serif" font-size="8.00">of 0.5 (1.5%)</text>
</g>
<!-- N32 -->
<g id="node33" class="node"><title>N32</title>
<polygon fill="none" stroke="black" points="718.32,-323.301 633.68,-323.301 633.68,-286.699 718.32,-286.699 718.32,-323.301"/>
<text text-anchor="middle" x="676" y="-311.4" font-family="Times,serif" font-size="8.00">runtime.starttheworld</text>
<text text-anchor="end" x="710.547" y="-301.8" font-family="Times,serif" font-size="8.00">0.0 (0.0%)</text>
<text text-anchor="end" x="710.547" y="-292.2" font-family="Times,serif" font-size="8.00">of 0.5 (1.5%)</text>
</g>
<!-- N25&#45;&gt;N32 -->
<g id="edge12" class="edge"><title>N25&#45;&gt;N32</title>
<path fill="none" stroke="black" d="M702.637,-378.647C697.92,-365.781 691.397,-347.993 685.987,-333.239"/>
<polygon fill="black" stroke="black" points="689.184,-331.791 682.456,-323.607 682.612,-334.2 689.184,-331.791"/>
<text text-anchor="middle" x="703.75" y="-345.4" font-family="Times,serif" font-size="14.00">0.5</text>
</g>
<!-- N26 -->
<g id="node27" class="node"><title>N26</title>
<polygon fill="none" stroke="black" points="1251.23,-1427.3 1086.77,-1427.3 1086.77,-1390.7 1251.23,-1390.7 1251.23,-1427.3"/>
<text text-anchor="middle" x="1169" y="-1415.4" font-family="Times,serif" font-size="8.00">github.com/aybabtme/dskvs.fromPageToBytes</text>
<text text-anchor="end" x="1243.82" y="-1405.8" font-family="Times,serif" font-size="8.00">0.0 (0.0%)</text>
<text text-anchor="end" x="1243.82" y="-1396.2" font-family="Times,serif" font-size="8.00">of 0.5 (1.5%)</text>
</g>
<!-- N28 -->
<g id="node29" class="node"><title>N28</title>
<polygon fill="none" stroke="black" points="1255.14,-1301.3 1098.86,-1301.3 1098.86,-1264.7 1255.14,-1264.7 1255.14,-1301.3"/>
<text text-anchor="middle" x="1177" y="-1289.4" font-family="Times,serif" font-size="8.00">github.com/aybabtme/dskvs.newFileHeader</text>
<text text-anchor="end" x="1247.43" y="-1279.8" font-family="Times,serif" font-size="8.00">0.0 (0.0%)</text>
<text text-anchor="end" x="1247.43" y="-1270.2" font-family="Times,serif" font-size="8.00">of 0.5 (1.5%)</text>
</g>
<!-- N26&#45;&gt;N28 -->
<g id="edge22" class="edge"><title>N26&#45;&gt;N28</title>
<path fill="none" stroke="black" d="M1170.13,-1390.5C1171.45,-1370 1173.66,-1335.8 1175.21,-1311.69"/>
<polygon fill="black" stroke="black" points="1178.73,-1311.62 1175.88,-1301.41 1171.74,-1311.17 1178.73,-1311.62"/>
<text text-anchor="middle" x="1182.75" y="-1340.4" font-family="Times,serif" font-size="14.00">0.5</text>
</g>
<!-- N29 -->
<g id="node30" class="node"><title>N29</title>
<polygon fill="none" stroke="black" points="1164.4,-1539.3 1019.6,-1539.3 1019.6,-1502.7 1164.4,-1502.7 1164.4,-1539.3"/>
<text text-anchor="middle" x="1092" y="-1527.4" font-family="Times,serif" font-size="8.00">github.com/aybabtme/dskvs.writeToFile</text>
<text text-anchor="end" x="1156.6" y="-1517.8" font-family="Times,serif" font-size="8.00">0.0 (0.0%)</text>
<text text-anchor="end" x="1156.6" y="-1508.2" font-family="Times,serif" font-size="8.00">of 0.5 (1.5%)</text>
</g>
<!-- N27&#45;&gt;N29 -->
<g id="edge11" class="edge"><title>N27&#45;&gt;N29</title>
<path fill="none" stroke="black" d="M866.17,-1614.69C913.254,-1595.37 989.483,-1564.08 1040.17,-1543.27"/>
<polygon fill="black" stroke="black" points="1041.71,-1546.42 1049.63,-1539.39 1039.05,-1539.95 1041.71,-1546.42"/>
<text text-anchor="middle" x="1005.75" y="-1571.4" font-family="Times,serif" font-size="14.00">0.5</text>
</g>
<!-- N28&#45;&gt;N24 -->
<g id="edge1" class="edge"><title>N28&#45;&gt;N24</title>
<path fill="none" stroke="black" d="M1172.34,-1264.47C1166.62,-1242.93 1156.85,-1206.14 1150.17,-1180.98"/>
<polygon fill="black" stroke="black" points="1153.55,-1180.08 1147.6,-1171.32 1146.78,-1181.88 1153.55,-1180.08"/>
<text text-anchor="middle" x="1174.75" y="-1212.4" font-family="Times,serif" font-size="14.00">0.5</text>
</g>
<!-- N29&#45;&gt;N26 -->
<g id="edge3" class="edge"><title>N29&#45;&gt;N26</title>
<path fill="none" stroke="black" d="M1104.37,-1502.33C1116.94,-1484.37 1136.56,-1456.35 1150.88,-1435.89"/>
<polygon fill="black" stroke="black" points="1153.79,-1437.83 1156.66,-1427.63 1148.06,-1433.81 1153.79,-1437.83"/>
<text text-anchor="middle" x="1149.75" y="-1459.4" font-family="Times,serif" font-size="14.00">0.5</text>
</g>
<!-- N30 -->
<g id="node31" class="node"><title>N30</title>
<polygon fill="none" stroke="black" points="690.994,-231.301 633.006,-231.301 633.006,-194.699 690.994,-194.699 690.994,-231.301"/>
<text text-anchor="middle" x="662" y="-219.4" font-family="Times,serif" font-size="8.00">procresize</text>
<text text-anchor="end" x="683.328" y="-209.8" font-family="Times,serif" font-size="8.00">0.0 (0.0%)</text>
<text text-anchor="end" x="683.328" y="-200.2" font-family="Times,serif" font-size="8.00">of 0.5 (1.5%)</text>
</g>
<!-- N30&#45;&gt;N23 -->
<g id="edge29" class="edge"><title>N30&#45;&gt;N23</title>
<path fill="none" stroke="black" d="M654.48,-194.647C648.852,-181.658 641.048,-163.65 634.619,-148.814"/>
<polygon fill="black" stroke="black" points="637.817,-147.391 630.63,-139.607 631.394,-150.174 637.817,-147.391"/>
<text text-anchor="middle" x="653.75" y="-161.4" font-family="Times,serif" font-size="14.00">0.5</text>
</g>
<!-- N31&#45;&gt;N25 -->
<g id="edge28" class="edge"><title>N31&#45;&gt;N25</title>
<path fill="none" stroke="black" d="M813.128,-470.647C793.091,-456.668 764.724,-436.877 742.657,-421.482"/>
<polygon fill="black" stroke="black" points="744.44,-418.458 734.236,-415.607 740.435,-424.199 744.44,-418.458"/>
<text text-anchor="middle" x="793.75" y="-437.4" font-family="Times,serif" font-size="14.00">0.5</text>
</g>
<!-- N32&#45;&gt;N30 -->
<g id="edge25" class="edge"><title>N32&#45;&gt;N30</title>
<path fill="none" stroke="black" d="M673.301,-286.647C671.319,-273.905 668.585,-256.334 666.303,-241.665"/>
<polygon fill="black" stroke="black" points="669.734,-240.95 664.739,-231.607 662.818,-242.026 669.734,-240.95"/>
<text text-anchor="middle" x="678.75" y="-253.4" font-family="Times,serif" font-size="14.00">0.5</text>
</g>
</g>
</g></svg>
