<?xml version="1.0" encoding="UTF-8" standalone="no"?>
<!DOCTYPE svg PUBLIC "-//W3C//DTD SVG 1.1//EN"
 "http://www.w3.org/Graphics/SVG/1.1/DTD/svg11.dtd">
<!-- Generated by graphviz version 2.30.1 (20130612.0156)
 -->
<!-- Title: dskvs.test; 31.5 MB Pages: 1 -->
<svg width="100%" height="100%"
  xmlns="http://www.w3.org/2000/svg" xmlns:xlink="http://www.w3.org/1999/xlink">
<script type="text/ecmascript"><![CDATA[
// SVGPan
// http://www.cyberz.org/blog/2009/12/08/svgpan-a-javascript-svg-panzoomdrag-library/
// Local modification: if(true || ...) below to force panning, never moving.
// Local modification: add clamping to fix bug in handleMouseWheel.

/**
 *  SVGPan library 1.2
 * ====================
 *
 * Given an unique existing element with id "viewport", including the
 * the library into any SVG adds the following capabilities:
 *
 *  - Mouse panning
 *  - Mouse zooming (using the wheel)
 *  - Object dargging
 *
 * Known issues:
 *
 *  - Zooming (while panning) on Safari has still some issues
 *
 * Releases:
 *
 * 1.2, Sat Mar 20 08:42:50 GMT 2010, Zeng Xiaohui
 *	Fixed a bug with browser mouse handler interaction
 *
 * 1.1, Wed Feb  3 17:39:33 GMT 2010, Zeng Xiaohui
 *	Updated the zoom code to support the mouse wheel on Safari/Chrome
 *
 * 1.0, Andrea Leofreddi
 *	First release
 *
 * This code is licensed under the following BSD license:
 *
 * Copyright 2009-2010 Andrea Leofreddi <a.leofreddi@itcharm.com>. All rights reserved.
 *
 * Redistribution and use in source and binary forms, with or without modification, are
 * permitted provided that the following conditions are met:
 *
 *    1. Redistributions of source code must retain the above copyright notice, this list of
 *       conditions and the following disclaimer.
 *
 *    2. Redistributions in binary form must reproduce the above copyright notice, this list
 *       of conditions and the following disclaimer in the documentation and/or other materials
 *       provided with the distribution.
 *
 * THIS SOFTWARE IS PROVIDED BY Andrea Leofreddi ``AS IS'' AND ANY EXPRESS OR IMPLIED
 * WARRANTIES, INCLUDING, BUT NOT LIMITED TO, THE IMPLIED WARRANTIES OF MERCHANTABILITY AND
 * FITNESS FOR A PARTICULAR PURPOSE ARE DISCLAIMED. IN NO EVENT SHALL Andrea Leofreddi OR
 * CONTRIBUTORS BE LIABLE FOR ANY DIRECT, INDIRECT, INCIDENTAL, SPECIAL, EXEMPLARY, OR
 * CONSEQUENTIAL DAMAGES (INCLUDING, BUT NOT LIMITED TO, PROCUREMENT OF SUBSTITUTE GOODS OR
 * SERVICES; LOSS OF USE, DATA, OR PROFITS; OR BUSINESS INTERRUPTION) HOWEVER CAUSED AND ON
 * ANY THEORY OF LIABILITY, WHETHER IN CONTRACT, STRICT LIABILITY, OR TORT (INCLUDING
 * NEGLIGENCE OR OTHERWISE) ARISING IN ANY WAY OUT OF THE USE OF THIS SOFTWARE, EVEN IF
 * ADVISED OF THE POSSIBILITY OF SUCH DAMAGE.
 *
 * The views and conclusions contained in the software and documentation are those of the
 * authors and should not be interpreted as representing official policies, either expressed
 * or implied, of Andrea Leofreddi.
 */

var root = document.documentElement;

var state = 'none', stateTarget, stateOrigin, stateTf;

setupHandlers(root);

/**
 * Register handlers
 */
function setupHandlers(root){
	setAttributes(root, {
		"onmouseup" : "add(evt)",
		"onmousedown" : "handleMouseDown(evt)",
		"onmousemove" : "handleMouseMove(evt)",
		"onmouseup" : "handleMouseUp(evt)",
		//"onmouseout" : "handleMouseUp(evt)", // Decomment this to stop the pan functionality when dragging out of the SVG element
	});

	if(navigator.userAgent.toLowerCase().indexOf('webkit') >= 0)
		window.addEventListener('mousewheel', handleMouseWheel, false); // Chrome/Safari
	else
		window.addEventListener('DOMMouseScroll', handleMouseWheel, false); // Others

	var g = svgDoc.getElementById("svg");
	g.width = "100%";
	g.height = "100%";
}

/**
 * Instance an SVGPoint object with given event coordinates.
 */
function getEventPoint(evt) {
	var p = root.createSVGPoint();

	p.x = evt.clientX;
	p.y = evt.clientY;

	return p;
}

/**
 * Sets the current transform matrix of an element.
 */
function setCTM(element, matrix) {
	var s = "matrix(" + matrix.a + "," + matrix.b + "," + matrix.c + "," + matrix.d + "," + matrix.e + "," + matrix.f + ")";

	element.setAttribute("transform", s);
}

/**
 * Dumps a matrix to a string (useful for debug).
 */
function dumpMatrix(matrix) {
	var s = "[ " + matrix.a + ", " + matrix.c + ", " + matrix.e + "\n  " + matrix.b + ", " + matrix.d + ", " + matrix.f + "\n  0, 0, 1 ]";

	return s;
}

/**
 * Sets attributes of an element.
 */
function setAttributes(element, attributes){
	for (i in attributes)
		element.setAttributeNS(null, i, attributes[i]);
}

/**
 * Handle mouse move event.
 */
function handleMouseWheel(evt) {
	if(evt.preventDefault)
		evt.preventDefault();

	evt.returnValue = false;

	var svgDoc = evt.target.ownerDocument;

	var delta;

	if(evt.wheelDelta)
		delta = evt.wheelDelta / 3600; // Chrome/Safari
	else
		delta = evt.detail / -90; // Mozilla

	var z = 1 + delta; // Zoom factor: 0.9/1.1

	// Clamp to reasonable values.
	// The 0.1 check is important because
	// a very large scroll can turn into a
	// negative z, which rotates the image 180 degrees.
	if(z < 0.1)
		z = 0.1;
	if(z > 10.0)
		z = 10.0;

	var g = svgDoc.getElementById("viewport");

	var p = getEventPoint(evt);

	p = p.matrixTransform(g.getCTM().inverse());

	// Compute new scale matrix in current mouse position
	var k = root.createSVGMatrix().translate(p.x, p.y).scale(z).translate(-p.x, -p.y);

        setCTM(g, g.getCTM().multiply(k));

	stateTf = stateTf.multiply(k.inverse());
}

/**
 * Handle mouse move event.
 */
function handleMouseMove(evt) {
	if(evt.preventDefault)
		evt.preventDefault();

	evt.returnValue = false;

	var svgDoc = evt.target.ownerDocument;

	var g = svgDoc.getElementById("viewport");

	if(state == 'pan') {
		// Pan mode
		var p = getEventPoint(evt).matrixTransform(stateTf);

		setCTM(g, stateTf.inverse().translate(p.x - stateOrigin.x, p.y - stateOrigin.y));
	} else if(state == 'move') {
		// Move mode
		var p = getEventPoint(evt).matrixTransform(g.getCTM().inverse());

		setCTM(stateTarget, root.createSVGMatrix().translate(p.x - stateOrigin.x, p.y - stateOrigin.y).multiply(g.getCTM().inverse()).multiply(stateTarget.getCTM()));

		stateOrigin = p;
	}
}

/**
 * Handle click event.
 */
function handleMouseDown(evt) {
	if(evt.preventDefault)
		evt.preventDefault();

	evt.returnValue = false;

	var svgDoc = evt.target.ownerDocument;

	var g = svgDoc.getElementById("viewport");

	if(true || evt.target.tagName == "svg") {
		// Pan mode
		state = 'pan';

		stateTf = g.getCTM().inverse();

		stateOrigin = getEventPoint(evt).matrixTransform(stateTf);
	} else {
		// Move mode
		state = 'move';

		stateTarget = evt.target;

		stateTf = g.getCTM().inverse();

		stateOrigin = getEventPoint(evt).matrixTransform(stateTf);
	}
}

/**
 * Handle mouse button release event.
 */
function handleMouseUp(evt) {
	if(evt.preventDefault)
		evt.preventDefault();

	evt.returnValue = false;

	var svgDoc = evt.target.ownerDocument;

	if(state == 'pan' || state == 'move') {
		// Quit pan mode
		state = '';
	}
}

]]></script>
<g id="viewport" transform="translate(0,0)">
<g id="viewport" class="graph" transform="scale(1 1) rotate(0) translate(4 1314)">
<title>dskvs.test; 31.5 MB</title>
<polygon fill="white" stroke="white" points="-4,5 -4,-1314 1107,-1314 1107,5 -4,5"/>
<!-- Legend -->
<g id="node1" class="node"><title>Legend</title>
<text text-anchor="start" x="274.484" y="-1282" font-family="Times,serif" font-size="24.00">dskvs.test</text>
<text text-anchor="start" x="274.484" y="-1253.2" font-family="Times,serif" font-size="24.00">Total MB: 31.5</text>
<text text-anchor="start" x="274.484" y="-1224.4" font-family="Times,serif" font-size="24.00">Focusing on: 31.5</text>
<text text-anchor="start" x="274.484" y="-1195.6" font-family="Times,serif" font-size="24.00">Dropped nodes with &lt;= 0.2 abs(MB)</text>
<text text-anchor="start" x="274.484" y="-1166.8" font-family="Times,serif" font-size="24.00">Dropped edges with &lt;= 0.0 MB</text>
</g>
<!-- N1 -->
<g id="node2" class="node"><title>N1</title>
<polygon fill="none" stroke="black" points="725.994,-1252.3 656.006,-1252.3 656.006,-1215.7 725.994,-1215.7 725.994,-1252.3"/>
<text text-anchor="middle" x="691" y="-1240.4" font-family="Times,serif" font-size="8.00">gosched0</text>
<text text-anchor="end" x="718.328" y="-1230.8" font-family="Times,serif" font-size="8.00">0.0 (0.0%)</text>
<text text-anchor="end" x="718.328" y="-1221.2" font-family="Times,serif" font-size="8.00">of 31.5 (100.0%)</text>
</g>
<!-- N5 -->
<g id="node6" class="node"><title>N5</title>
<polygon fill="none" stroke="black" points="661.994,-1103.3 596.006,-1103.3 596.006,-1066.7 661.994,-1066.7 661.994,-1103.3"/>
<text text-anchor="middle" x="629" y="-1091.4" font-family="Times,serif" font-size="8.00">testing.tRunner</text>
<text text-anchor="end" x="654.328" y="-1081.8" font-family="Times,serif" font-size="8.00">0.0 (0.0%)</text>
<text text-anchor="end" x="654.328" y="-1072.2" font-family="Times,serif" font-size="8.00">of 16.0 (50.8%)</text>
</g>
<!-- N1&#45;&gt;N5 -->
<g id="edge4" class="edge"><title>N1&#45;&gt;N5</title>
<path fill="none" stroke="black" stroke-width="2" d="M683.644,-1215.56C672.924,-1190.14 652.915,-1142.7 640.312,-1112.82"/>
<polygon fill="black" stroke="black" points="643.457,-1111.27 636.346,-1103.42 637.007,-1113.99 643.457,-1111.27"/>
<text text-anchor="middle" x="662.25" y="-1125.4" font-family="Times,serif" font-size="14.00">16.0</text>
</g>
<!-- N7 -->
<g id="node8" class="node"><title>N7</title>
<polygon fill="none" stroke="black" points="840.326,-1047.3 687.674,-1047.3 687.674,-1010.7 840.326,-1010.7 840.326,-1047.3"/>
<text text-anchor="middle" x="764" y="-1035.4" font-family="Times,serif" font-size="8.00">github.com/aybabtme/dskvs.doPutRequest</text>
<text text-anchor="end" x="832.217" y="-1025.8" font-family="Times,serif" font-size="8.00">0.0 (0.0%)</text>
<text text-anchor="end" x="832.217" y="-1016.2" font-family="Times,serif" font-size="8.00">of 15.5 (49.2%)</text>
</g>
<!-- N1&#45;&gt;N7 -->
<g id="edge24" class="edge"><title>N1&#45;&gt;N7</title>
<path fill="none" stroke="black" stroke-width="2" d="M697.224,-1215.69C709.933,-1180.35 738.953,-1099.65 754.211,-1057.22"/>
<polygon fill="black" stroke="black" points="757.598,-1058.15 757.688,-1047.55 751.011,-1055.78 757.598,-1058.15"/>
<text text-anchor="middle" x="742.25" y="-1125.4" font-family="Times,serif" font-size="14.00">15.5</text>
</g>
<!-- N2 -->
<g id="node3" class="node"><title>N2</title>
<polygon fill="none" stroke="black" points="874.156,-899.301 727.844,-899.301 727.844,-862.699 874.156,-862.699 874.156,-899.301"/>
<text text-anchor="middle" x="801" y="-887.4" font-family="Times,serif" font-size="8.00">github.com/aybabtme/dskvs.(*Store).Put</text>
<text text-anchor="end" x="866.438" y="-877.8" font-family="Times,serif" font-size="8.00">0.0 (0.0%)</text>
<text text-anchor="end" x="866.438" y="-868.2" font-family="Times,serif" font-size="8.00">of 16.5 (52.4%)</text>
</g>
<!-- N3 -->
<g id="node4" class="node"><title>N3</title>
<polygon fill="none" stroke="black" points="883.147,-799.301 718.853,-799.301 718.853,-762.699 883.147,-762.699 883.147,-799.301"/>
<text text-anchor="middle" x="801" y="-787.4" font-family="Times,serif" font-size="8.00">github.com/aybabtme/dskvs.(*collections).put</text>
<text text-anchor="end" x="875.098" y="-777.8" font-family="Times,serif" font-size="8.00">0.0 (0.0%)</text>
<text text-anchor="end" x="875.098" y="-768.2" font-family="Times,serif" font-size="8.00">of 16.5 (52.4%)</text>
</g>
<!-- N2&#45;&gt;N3 -->
<g id="edge6" class="edge"><title>N2&#45;&gt;N3</title>
<path fill="none" stroke="black" stroke-width="2" d="M801,-862.48C801,-847.847 801,-826.719 801,-809.783"/>
<polygon fill="black" stroke="black" points="804.5,-809.369 801,-799.369 797.5,-809.369 804.5,-809.369"/>
<text text-anchor="middle" x="813.25" y="-829.4" font-family="Times,serif" font-size="14.00">16.5</text>
</g>
<!-- N4 -->
<g id="node5" class="node"><title>N4</title>
<polygon fill="none" stroke="black" points="956.416,-699.34 645.584,-699.34 645.584,-630.66 956.416,-630.66 956.416,-699.34"/>
<text text-anchor="middle" x="801" y="-678.52" font-family="Times,serif" font-size="16.90">github.com/aybabtme/dskvs.(*member).put</text>
<text text-anchor="end" x="948.611" y="-658.24" font-family="Times,serif" font-size="16.90">1.0 (3.2%)</text>
<text text-anchor="end" x="948.611" y="-637.96" font-family="Times,serif" font-size="16.90">of 16.5 (52.4%)</text>
</g>
<!-- N3&#45;&gt;N4 -->
<g id="edge9" class="edge"><title>N3&#45;&gt;N4</title>
<path fill="none" stroke="black" stroke-width="2" d="M801,-762.686C801,-748.601 801,-728.098 801,-709.594"/>
<polygon fill="black" stroke="black" points="804.5,-709.573 801,-699.573 797.5,-709.573 804.5,-709.573"/>
<text text-anchor="middle" x="813.25" y="-721.4" font-family="Times,serif" font-size="14.00">16.5</text>
</g>
<!-- N6 -->
<g id="node7" class="node"><title>N6</title>
<polygon fill="none" stroke="black" points="872.478,-553.301 729.522,-553.301 729.522,-516.699 872.478,-516.699 872.478,-553.301"/>
<text text-anchor="middle" x="801" y="-541.4" font-family="Times,serif" font-size="8.00">github.com/aybabtme/dskvs.(*page).set</text>
<text text-anchor="end" x="864.652" y="-531.8" font-family="Times,serif" font-size="8.00">0.0 (0.0%)</text>
<text text-anchor="end" x="864.652" y="-522.2" font-family="Times,serif" font-size="8.00">of 15.5 (49.2%)</text>
</g>
<!-- N4&#45;&gt;N6 -->
<g id="edge13" class="edge"><title>N4&#45;&gt;N6</title>
<path fill="none" stroke="black" stroke-width="2" d="M801,-630.37C801,-609.495 801,-583.01 801,-563.415"/>
<polygon fill="black" stroke="black" points="804.5,-563.317 801,-553.317 797.5,-563.317 804.5,-563.317"/>
<text text-anchor="middle" x="813.25" y="-597.4" font-family="Times,serif" font-size="14.00">15.5</text>
</g>
<!-- N10 -->
<g id="node11" class="node"><title>N10</title>
<polygon fill="none" stroke="black" points="475.223,-991.301 234.777,-991.301 234.777,-954.699 475.223,-954.699 475.223,-991.301"/>
<text text-anchor="middle" x="355" y="-979.4" font-family="Times,serif" font-size="8.00">github.com/aybabtme/dskvs.TestMultipleOperationsPersistAfterClose</text>
<text text-anchor="end" x="467.148" y="-969.8" font-family="Times,serif" font-size="8.00">0.0 (0.0%)</text>
<text text-anchor="end" x="467.148" y="-960.2" font-family="Times,serif" font-size="8.00">of 13.0 (41.3%)</text>
</g>
<!-- N5&#45;&gt;N10 -->
<g id="edge1" class="edge"><title>N5&#45;&gt;N10</title>
<path fill="none" stroke="black" stroke-width="2" d="M595.949,-1070.73C549.26,-1051.99 463.496,-1017.56 407.889,-995.233"/>
<polygon fill="black" stroke="black" points="409.139,-991.963 398.554,-991.485 406.531,-998.459 409.139,-991.963"/>
<text text-anchor="middle" x="545.25" y="-1023.4" font-family="Times,serif" font-size="14.00">13.0</text>
</g>
<!-- N19 -->
<g id="node20" class="node"><title>N19</title>
<polygon fill="none" stroke="black" points="764.138,-991.301 493.862,-991.301 493.862,-954.699 764.138,-954.699 764.138,-991.301"/>
<text text-anchor="middle" x="629" y="-979.4" font-family="Times,serif" font-size="8.00">github.com/aybabtme/dskvs.TestOneOperationWithMultipleConcurrentRequest</text>
<text text-anchor="end" x="756.758" y="-969.8" font-family="Times,serif" font-size="8.00">0.0 (0.0%)</text>
<text text-anchor="end" x="756.758" y="-960.2" font-family="Times,serif" font-size="8.00">of 3.0 (9.5%)</text>
</g>
<!-- N5&#45;&gt;N19 -->
<g id="edge22" class="edge"><title>N5&#45;&gt;N19</title>
<path fill="none" stroke="black" d="M629,-1066.33C629,-1048.93 629,-1022.09 629,-1001.83"/>
<polygon fill="black" stroke="black" points="632.5,-1001.63 629,-991.63 625.5,-1001.63 632.5,-1001.63"/>
<text text-anchor="middle" x="637.75" y="-1023.4" font-family="Times,serif" font-size="14.00">3.0</text>
</g>
<!-- N9 -->
<g id="node10" class="node"><title>N9</title>
<polygon fill="none" stroke="black" points="837.149,-437.301 764.851,-437.301 764.851,-400.699 837.149,-400.699 837.149,-437.301"/>
<text text-anchor="middle" x="801" y="-425.4" font-family="Times,serif" font-size="8.00">runtime.deferproc</text>
<text text-anchor="end" x="829.764" y="-415.8" font-family="Times,serif" font-size="8.00">0.0 (0.0%)</text>
<text text-anchor="end" x="829.764" y="-406.2" font-family="Times,serif" font-size="8.00">of 15.5 (49.2%)</text>
</g>
<!-- N6&#45;&gt;N9 -->
<g id="edge26" class="edge"><title>N6&#45;&gt;N9</title>
<path fill="none" stroke="black" stroke-width="2" d="M801,-516.686C801,-498.356 801,-469.156 801,-447.637"/>
<polygon fill="black" stroke="black" points="804.5,-447.477 801,-437.477 797.5,-447.477 804.5,-447.477"/>
<text text-anchor="middle" x="813.25" y="-461.4" font-family="Times,serif" font-size="14.00">15.5</text>
</g>
<!-- N7&#45;&gt;N2 -->
<g id="edge3" class="edge"><title>N7&#45;&gt;N2</title>
<path fill="none" stroke="black" stroke-width="2" d="M768.39,-1010.68C774.725,-985.678 786.497,-939.228 794.029,-909.507"/>
<polygon fill="black" stroke="black" points="797.437,-910.308 796.501,-899.754 790.651,-908.588 797.437,-910.308"/>
<text text-anchor="middle" x="794.25" y="-967.4" font-family="Times,serif" font-size="14.00">15.5</text>
</g>
<!-- N8 -->
<g id="node9" class="node"><title>N8</title>
<polygon fill="none" stroke="black" points="922.175,-343.941 679.825,-343.941 679.825,-232.059 922.175,-232.059 922.175,-343.941"/>
<text text-anchor="middle" x="801" y="-296.62" font-family="Times,serif" font-size="43.10">newdefer</text>
<text text-anchor="end" x="914.116" y="-244.9" font-family="Times,serif" font-size="43.10">15.5 (49.2%)</text>
</g>
<!-- N9&#45;&gt;N8 -->
<g id="edge25" class="edge"><title>N9&#45;&gt;N8</title>
<path fill="none" stroke="black" stroke-width="2" d="M801,-400.602C801,-388.357 801,-371.132 801,-353.871"/>
<polygon fill="black" stroke="black" points="804.5,-353.741 801,-343.741 797.5,-353.741 804.5,-353.741"/>
<text text-anchor="middle" x="813.25" y="-365.4" font-family="Times,serif" font-size="14.00">15.5</text>
</g>
<!-- N13 -->
<g id="node14" class="node"><title>N13</title>
<polygon fill="none" stroke="black" points="351.99,-899.301 226.01,-899.301 226.01,-862.699 351.99,-862.699 351.99,-899.301"/>
<text text-anchor="middle" x="289" y="-887.4" font-family="Times,serif" font-size="8.00">github.com/aybabtme/dskvs.setUp</text>
<text text-anchor="end" x="344.326" y="-877.8" font-family="Times,serif" font-size="8.00">0.0 (0.0%)</text>
<text text-anchor="end" x="344.326" y="-868.2" font-family="Times,serif" font-size="8.00">of 9.5 (30.2%)</text>
</g>
<!-- N10&#45;&gt;N13 -->
<g id="edge7" class="edge"><title>N10&#45;&gt;N13</title>
<path fill="none" stroke="black" stroke-width="1.80952" d="M342.275,-954.647C332.567,-941.41 319.039,-922.962 308.044,-907.97"/>
<polygon fill="black" stroke="black" points="310.648,-905.601 301.912,-899.607 305.003,-909.741 310.648,-905.601"/>
<text text-anchor="middle" x="336.75" y="-921.4" font-family="Times,serif" font-size="14.00">9.5</text>
</g>
<!-- N25 -->
<g id="node26" class="node"><title>N25</title>
<polygon fill="none" stroke="black" points="524.135,-899.301 373.865,-899.301 373.865,-862.699 524.135,-862.699 524.135,-899.301"/>
<text text-anchor="middle" x="449" y="-887.4" font-family="Times,serif" font-size="8.00">github.com/aybabtme/dskvs.generateData</text>
<text text-anchor="end" x="516.09" y="-877.8" font-family="Times,serif" font-size="8.00">0.0 (0.0%)</text>
<text text-anchor="end" x="516.09" y="-868.2" font-family="Times,serif" font-size="8.00">of 1.5 (4.8%)</text>
</g>
<!-- N10&#45;&gt;N25 -->
<g id="edge10" class="edge"><title>N10&#45;&gt;N25</title>
<path fill="none" stroke="black" d="M373.124,-954.647C387.337,-941.039 407.302,-921.924 423.185,-906.717"/>
<polygon fill="black" stroke="black" points="425.808,-909.051 430.611,-899.607 420.967,-903.994 425.808,-909.051"/>
<text text-anchor="middle" x="419.75" y="-921.4" font-family="Times,serif" font-size="14.00">1.5</text>
</g>
<!-- N16 -->
<g id="node17" class="node"><title>N16</title>
<polygon fill="none" stroke="black" points="314.144,-177.301 237.856,-177.301 237.856,-140.699 314.144,-140.699 314.144,-177.301"/>
<text text-anchor="middle" x="276" y="-165.4" font-family="Times,serif" font-size="8.00">runtime.cnewarray</text>
<text text-anchor="end" x="306.096" y="-155.8" font-family="Times,serif" font-size="8.00">0.0 (0.0%)</text>
<text text-anchor="end" x="306.096" y="-146.2" font-family="Times,serif" font-size="8.00">of 7.5 (23.8%)</text>
</g>
<!-- N10&#45;&gt;N16 -->
<g id="edge14" class="edge"><title>N10&#45;&gt;N16</title>
<path fill="none" stroke="black" d="M447.952,-954.645C529.34,-938.607 636.799,-915.05 651,-900 695.948,-852.363 689.574,-816.806 671,-754 662.889,-726.574 646.747,-726.504 636,-700 619.656,-659.693 617,-647.494 617,-604 617,-604 617,-604 617,-287 617,-225.271 418.285,-183.779 324.243,-167.599"/>
<polygon fill="black" stroke="black" points="324.568,-164.104 314.124,-165.886 323.4,-171.006 324.568,-164.104"/>
<text text-anchor="middle" x="626.75" y="-597.4" font-family="Times,serif" font-size="14.00">0.5</text>
</g>
<!-- N30 -->
<g id="node31" class="node"><title>N30</title>
<polygon fill="none" stroke="black" points="642.485,-899.301 561.515,-899.301 561.515,-862.699 642.485,-862.699 642.485,-899.301"/>
<text text-anchor="middle" x="602" y="-887.4" font-family="Times,serif" font-size="8.00">runtime.concatstring</text>
<text text-anchor="end" x="634.99" y="-877.8" font-family="Times,serif" font-size="8.00">0.0 (0.0%)</text>
<text text-anchor="end" x="634.99" y="-868.2" font-family="Times,serif" font-size="8.00">of 0.5 (1.6%)</text>
</g>
<!-- N10&#45;&gt;N30 -->
<g id="edge20" class="edge"><title>N10&#45;&gt;N30</title>
<path fill="none" stroke="black" d="M402.624,-954.647C445.502,-939.023 508.304,-916.14 551.922,-900.247"/>
<polygon fill="black" stroke="black" points="553.275,-903.479 561.472,-896.767 550.878,-896.902 553.275,-903.479"/>
<text text-anchor="middle" x="509.75" y="-921.4" font-family="Times,serif" font-size="14.00">0.5</text>
</g>
<!-- N10&#45;&gt;N2 -->
<g id="edge31" class="edge"><title>N10&#45;&gt;N2</title>
<path fill="none" stroke="black" d="M475.138,-955.009C478.121,-954.661 481.078,-954.324 484,-954 581.068,-943.247 609.495,-964.19 703,-936 715.424,-932.255 741.569,-917.712 763.731,-904.662"/>
<polygon fill="black" stroke="black" points="765.807,-907.5 772.618,-899.385 762.233,-901.481 765.807,-907.5"/>
<text text-anchor="middle" x="747.75" y="-921.4" font-family="Times,serif" font-size="14.00">1.0</text>
</g>
<!-- N11 -->
<g id="node12" class="node"><title>N11</title>
<polygon fill="none" stroke="black" points="351.981,-799.301 200.019,-799.301 200.019,-762.699 351.981,-762.699 351.981,-799.301"/>
<text text-anchor="middle" x="276" y="-787.4" font-family="Times,serif" font-size="8.00">github.com/aybabtme/dskvs.(*Store).Load</text>
<text text-anchor="end" x="344.32" y="-777.8" font-family="Times,serif" font-size="8.00">0.0 (0.0%)</text>
<text text-anchor="end" x="344.32" y="-768.2" font-family="Times,serif" font-size="8.00">of 9.5 (30.2%)</text>
</g>
<!-- N12 -->
<g id="node13" class="node"><title>N12</title>
<polygon fill="none" stroke="black" points="361.145,-683.301 190.855,-683.301 190.855,-646.699 361.145,-646.699 361.145,-683.301"/>
<text text-anchor="middle" x="276" y="-671.4" font-family="Times,serif" font-size="8.00">github.com/aybabtme/dskvs.(*janitor).loadStore</text>
<text text-anchor="end" x="353.43" y="-661.8" font-family="Times,serif" font-size="8.00">0.0 (0.0%)</text>
<text text-anchor="end" x="353.43" y="-652.2" font-family="Times,serif" font-size="8.00">of 9.5 (30.2%)</text>
</g>
<!-- N11&#45;&gt;N12 -->
<g id="edge30" class="edge"><title>N11&#45;&gt;N12</title>
<path fill="none" stroke="black" stroke-width="1.80952" d="M276,-762.686C276,-744.356 276,-715.156 276,-693.637"/>
<polygon fill="black" stroke="black" points="279.5,-693.477 276,-683.477 272.5,-693.477 279.5,-693.477"/>
<text text-anchor="middle" x="284.75" y="-721.4" font-family="Times,serif" font-size="14.00">9.5</text>
</g>
<!-- N14 -->
<g id="node15" class="node"><title>N14</title>
<polygon fill="none" stroke="black" points="458.252,-576.16 93.7477,-576.16 93.7477,-493.84 458.252,-493.84 458.252,-576.16"/>
<text text-anchor="middle" x="276" y="-551.48" font-family="Times,serif" font-size="20.60">github.com/aybabtme/dskvs.readFromFile</text>
<text text-anchor="end" x="450.502" y="-526.76" font-family="Times,serif" font-size="20.60">2.0 (6.3%)</text>
<text text-anchor="end" x="450.502" y="-502.04" font-family="Times,serif" font-size="20.60">of 9.0 (28.6%)</text>
</g>
<!-- N12&#45;&gt;N14 -->
<g id="edge17" class="edge"><title>N12&#45;&gt;N14</title>
<path fill="none" stroke="black" stroke-width="1.71429" d="M276,-646.471C276,-630.996 276,-607.656 276,-586.411"/>
<polygon fill="black" stroke="black" points="279.5,-586.193 276,-576.193 272.5,-586.193 279.5,-586.193"/>
<text text-anchor="middle" x="284.75" y="-597.4" font-family="Times,serif" font-size="14.00">9.0</text>
</g>
<!-- N27 -->
<g id="node28" class="node"><title>N27</title>
<polygon fill="none" stroke="black" points="75.4953,-553.301 4.50468,-553.301 4.50468,-516.699 75.4953,-516.699 75.4953,-553.301"/>
<text text-anchor="middle" x="40" y="-541.4" font-family="Times,serif" font-size="8.00">path/filepath.Join</text>
<text text-anchor="end" x="67.6641" y="-531.8" font-family="Times,serif" font-size="8.00">0.0 (0.0%)</text>
<text text-anchor="end" x="67.6641" y="-522.2" font-family="Times,serif" font-size="8.00">of 0.5 (1.6%)</text>
</g>
<!-- N12&#45;&gt;N27 -->
<g id="edge19" class="edge"><title>N12&#45;&gt;N27</title>
<path fill="none" stroke="black" d="M227.708,-646.67C187.536,-631.151 129.739,-606.215 84,-576 77.2166,-571.519 70.4429,-566.01 64.3149,-560.529"/>
<polygon fill="black" stroke="black" points="66.6539,-557.924 56.9459,-553.681 61.8888,-563.052 66.6539,-557.924"/>
<text text-anchor="middle" x="153.75" y="-597.4" font-family="Times,serif" font-size="14.00">0.5</text>
</g>
<!-- N13&#45;&gt;N11 -->
<g id="edge11" class="edge"><title>N13&#45;&gt;N11</title>
<path fill="none" stroke="black" stroke-width="1.80952" d="M286.676,-862.48C284.716,-847.708 281.879,-826.316 279.621,-809.3"/>
<polygon fill="black" stroke="black" points="283.089,-808.822 278.304,-799.369 276.15,-809.742 283.089,-808.822"/>
<text text-anchor="middle" x="293.75" y="-829.4" font-family="Times,serif" font-size="14.00">9.5</text>
</g>
<!-- N17 -->
<g id="node18" class="node"><title>N17</title>
<polygon fill="none" stroke="black" points="312.164,-437.301 239.836,-437.301 239.836,-400.699 312.164,-400.699 312.164,-437.301"/>
<text text-anchor="middle" x="276" y="-425.4" font-family="Times,serif" font-size="8.00">io/ioutil.ReadFile</text>
<text text-anchor="end" x="304.109" y="-415.8" font-family="Times,serif" font-size="8.00">0.0 (0.0%)</text>
<text text-anchor="end" x="304.109" y="-406.2" font-family="Times,serif" font-size="8.00">of 7.0 (22.2%)</text>
</g>
<!-- N14&#45;&gt;N17 -->
<g id="edge18" class="edge"><title>N14&#45;&gt;N17</title>
<path fill="none" stroke="black" stroke-width="1.33333" d="M276,-493.808C276,-478.633 276,-461.713 276,-447.905"/>
<polygon fill="black" stroke="black" points="279.5,-447.592 276,-437.592 272.5,-447.592 279.5,-447.592"/>
<text text-anchor="middle" x="284.75" y="-461.4" font-family="Times,serif" font-size="14.00">7.0</text>
</g>
<!-- N15 -->
<g id="node16" class="node"><title>N15</title>
<polygon fill="none" stroke="black" points="360.402,-85.7603 191.598,-85.7603 191.598,-0.239665 360.402,-0.239665 360.402,-85.7603"/>
<text text-anchor="middle" x="276" y="-49.48" font-family="Times,serif" font-size="32.40">cnew</text>
<text text-anchor="end" x="352.934" y="-10.6" font-family="Times,serif" font-size="32.40">7.5 (23.8%)</text>
</g>
<!-- N16&#45;&gt;N15 -->
<g id="edge32" class="edge"><title>N16&#45;&gt;N15</title>
<path fill="none" stroke="black" stroke-width="1.42857" d="M276,-140.686C276,-128.832 276,-112.432 276,-96.5028"/>
<polygon fill="black" stroke="black" points="279.5,-96.1558 276,-86.1558 272.5,-96.1559 279.5,-96.1558"/>
<text text-anchor="middle" x="284.75" y="-107.4" font-family="Times,serif" font-size="14.00">7.5</text>
</g>
<!-- N18 -->
<g id="node19" class="node"><title>N18</title>
<polygon fill="none" stroke="black" points="309.492,-306.301 242.508,-306.301 242.508,-269.699 309.492,-269.699 309.492,-306.301"/>
<text text-anchor="middle" x="276" y="-294.4" font-family="Times,serif" font-size="8.00">io/ioutil.readAll</text>
<text text-anchor="end" x="301.662" y="-284.8" font-family="Times,serif" font-size="8.00">0.0 (0.0%)</text>
<text text-anchor="end" x="301.662" y="-275.2" font-family="Times,serif" font-size="8.00">of 7.0 (22.2%)</text>
</g>
<!-- N17&#45;&gt;N18 -->
<g id="edge29" class="edge"><title>N17&#45;&gt;N18</title>
<path fill="none" stroke="black" stroke-width="1.33333" d="M276,-400.602C276,-379.06 276,-342.102 276,-316.656"/>
<polygon fill="black" stroke="black" points="279.5,-316.534 276,-306.534 272.5,-316.534 279.5,-316.534"/>
<text text-anchor="middle" x="284.75" y="-365.4" font-family="Times,serif" font-size="14.00">7.0</text>
</g>
<!-- N18&#45;&gt;N16 -->
<g id="edge27" class="edge"><title>N18&#45;&gt;N16</title>
<path fill="none" stroke="black" stroke-width="1.33333" d="M276,-269.607C276,-248.541 276,-212.784 276,-187.86"/>
<polygon fill="black" stroke="black" points="279.5,-187.59 276,-177.59 272.5,-187.59 279.5,-187.59"/>
<text text-anchor="middle" x="284.75" y="-199.4" font-family="Times,serif" font-size="14.00">7.0</text>
</g>
<!-- N20 -->
<g id="node21" class="node"><title>N20</title>
<polygon fill="none" stroke="black" points="1026.4,-899.301 895.599,-899.301 895.599,-862.699 1026.4,-862.699 1026.4,-899.301"/>
<text text-anchor="middle" x="961" y="-887.4" font-family="Times,serif" font-size="8.00">github.com/aybabtme/dskvs.runTest</text>
<text text-anchor="end" x="1018.93" y="-877.8" font-family="Times,serif" font-size="8.00">0.0 (0.0%)</text>
<text text-anchor="end" x="1018.93" y="-868.2" font-family="Times,serif" font-size="8.00">of 3.0 (9.5%)</text>
</g>
<!-- N19&#45;&gt;N20 -->
<g id="edge8" class="edge"><title>N19&#45;&gt;N20</title>
<path fill="none" stroke="black" d="M693.013,-954.647C748.498,-939.606 828.804,-917.836 887.027,-902.053"/>
<polygon fill="black" stroke="black" points="888.165,-905.371 896.901,-899.376 886.334,-898.615 888.165,-905.371"/>
<text text-anchor="middle" x="832.75" y="-921.4" font-family="Times,serif" font-size="14.00">3.0</text>
</g>
<!-- N21 -->
<g id="node22" class="node"><title>N21</title>
<polygon fill="none" stroke="black" points="1016.32,-799.301 945.68,-799.301 945.68,-762.699 1016.32,-762.699 1016.32,-799.301"/>
<text text-anchor="middle" x="981" y="-787.4" font-family="Times,serif" font-size="8.00">runtime.newproc</text>
<text text-anchor="end" x="1008.21" y="-777.8" font-family="Times,serif" font-size="8.00">0.0 (0.0%)</text>
<text text-anchor="end" x="1008.21" y="-768.2" font-family="Times,serif" font-size="8.00">of 3.0 (9.5%)</text>
</g>
<!-- N20&#45;&gt;N21 -->
<g id="edge16" class="edge"><title>N20&#45;&gt;N21</title>
<path fill="none" stroke="black" d="M964.576,-862.48C967.59,-847.708 971.956,-826.316 975.429,-809.3"/>
<polygon fill="black" stroke="black" points="978.885,-809.867 977.455,-799.369 972.026,-808.467 978.885,-809.867"/>
<text text-anchor="middle" x="979.75" y="-829.4" font-family="Times,serif" font-size="14.00">3.0</text>
</g>
<!-- N22 -->
<g id="node23" class="node"><title>N22</title>
<polygon fill="none" stroke="black" points="1049.32,-683.301 974.68,-683.301 974.68,-646.699 1049.32,-646.699 1049.32,-683.301"/>
<text text-anchor="middle" x="1012" y="-671.4" font-family="Times,serif" font-size="8.00">runtime.newproc1</text>
<text text-anchor="end" x="1041.21" y="-661.8" font-family="Times,serif" font-size="8.00">0.0 (0.0%)</text>
<text text-anchor="end" x="1041.21" y="-652.2" font-family="Times,serif" font-size="8.00">of 3.0 (9.5%)</text>
</g>
<!-- N21&#45;&gt;N22 -->
<g id="edge12" class="edge"><title>N21&#45;&gt;N22</title>
<path fill="none" stroke="black" d="M985.708,-762.686C990.715,-744.272 998.706,-714.889 1004.56,-693.343"/>
<polygon fill="black" stroke="black" points="1008,-694.045 1007.25,-683.477 1001.25,-692.208 1008,-694.045"/>
<text text-anchor="middle" x="1005.75" y="-721.4" font-family="Times,serif" font-size="14.00">3.0</text>
</g>
<!-- N29 -->
<g id="node30" class="node"><title>N29</title>
<polygon fill="none" stroke="black" points="948.994,-553.301 891.006,-553.301 891.006,-516.699 948.994,-516.699 948.994,-553.301"/>
<text text-anchor="middle" x="920" y="-541.4" font-family="Times,serif" font-size="8.00">runqput</text>
<text text-anchor="end" x="941.328" y="-531.8" font-family="Times,serif" font-size="8.00">0.0 (0.0%)</text>
<text text-anchor="end" x="941.328" y="-522.2" font-family="Times,serif" font-size="8.00">of 0.5 (1.6%)</text>
</g>
<!-- N22&#45;&gt;N29 -->
<g id="edge5" class="edge"><title>N22&#45;&gt;N29</title>
<path fill="none" stroke="black" d="M999.401,-646.471C983.641,-624.544 956.533,-586.828 938.438,-561.653"/>
<polygon fill="black" stroke="black" points="941.126,-559.395 932.447,-553.318 935.441,-563.481 941.126,-559.395"/>
<text text-anchor="middle" x="982.75" y="-597.4" font-family="Times,serif" font-size="14.00">0.5</text>
</g>
<!-- N23 -->
<g id="node24" class="node"><title>N23</title>
<polygon fill="none" stroke="black" points="1102.34,-565.54 967.66,-565.54 967.66,-504.46 1102.34,-504.46 1102.34,-565.54"/>
<text text-anchor="middle" x="1035" y="-539.42" font-family="Times,serif" font-size="22.10">runtime.malg</text>
<text text-anchor="end" x="1094.23" y="-512.9" font-family="Times,serif" font-size="22.10">2.5 (7.9%)</text>
</g>
<!-- N22&#45;&gt;N23 -->
<g id="edge23" class="edge"><title>N22&#45;&gt;N23</title>
<path fill="none" stroke="black" d="M1015.15,-646.471C1018.41,-628.339 1023.61,-599.412 1027.87,-575.706"/>
<polygon fill="black" stroke="black" points="1031.36,-576.038 1029.69,-565.577 1024.47,-574.8 1031.36,-576.038"/>
<text text-anchor="middle" x="1032.75" y="-597.4" font-family="Times,serif" font-size="14.00">2.5</text>
</g>
<!-- N24 -->
<g id="node25" class="node"><title>N24</title>
<polygon fill="none" stroke="black" points="559.02,-807.861 370.98,-807.861 370.98,-754.139 559.02,-754.139 559.02,-807.861"/>
<text text-anchor="middle" x="465" y="-784.78" font-family="Times,serif" font-size="18.90">encoding/json.Marshal</text>
<text text-anchor="end" x="551.347" y="-762.1" font-family="Times,serif" font-size="18.90">1.5 (4.8%)</text>
</g>
<!-- N25&#45;&gt;N24 -->
<g id="edge15" class="edge"><title>N25&#45;&gt;N24</title>
<path fill="none" stroke="black" d="M451.86,-862.48C453.876,-850.133 456.647,-833.164 459.124,-817.989"/>
<polygon fill="black" stroke="black" points="462.623,-818.282 460.78,-807.848 455.714,-817.154 462.623,-818.282"/>
<text text-anchor="middle" x="466.75" y="-829.4" font-family="Times,serif" font-size="14.00">1.5</text>
</g>
<!-- N26 -->
<g id="node27" class="node"><title>N26</title>
<polygon fill="none" stroke="black" points="662.416,-802.321 577.584,-802.321 577.584,-759.679 662.416,-759.679 662.416,-802.321"/>
<text text-anchor="middle" x="620" y="-783.86" font-family="Times,serif" font-size="14.30">concatstring</text>
<text text-anchor="end" x="654.944" y="-766.7" font-family="Times,serif" font-size="14.30">0.5 (1.6%)</text>
</g>
<!-- N31 -->
<g id="node32" class="node"><title>N31</title>
<polygon fill="none" stroke="black" points="80.1666,-440.321 -0.166585,-440.321 -0.166585,-397.679 80.1666,-397.679 80.1666,-440.321"/>
<text text-anchor="middle" x="40" y="-421.86" font-family="Times,serif" font-size="14.30">strings.Join</text>
<text text-anchor="end" x="72.7755" y="-404.7" font-family="Times,serif" font-size="14.30">0.5 (1.6%)</text>
</g>
<!-- N27&#45;&gt;N31 -->
<g id="edge2" class="edge"><title>N27&#45;&gt;N31</title>
<path fill="none" stroke="black" d="M40,-516.686C40,-499.102 40,-471.515 40,-450.301"/>
<polygon fill="black" stroke="black" points="43.5001,-450.174 40,-440.174 36.5001,-450.174 43.5001,-450.174"/>
<text text-anchor="middle" x="48.75" y="-461.4" font-family="Times,serif" font-size="14.00">0.5</text>
</g>
<!-- N28 -->
<g id="node29" class="node"><title>N28</title>
<polygon fill="none" stroke="black" points="958.072,-440.321 881.928,-440.321 881.928,-397.679 958.072,-397.679 958.072,-440.321"/>
<text text-anchor="middle" x="920" y="-421.86" font-family="Times,serif" font-size="14.30">runqgrow</text>
<text text-anchor="end" x="950.381" y="-404.7" font-family="Times,serif" font-size="14.30">0.5 (1.6%)</text>
</g>
<!-- N29&#45;&gt;N28 -->
<g id="edge21" class="edge"><title>N29&#45;&gt;N28</title>
<path fill="none" stroke="black" d="M920,-516.686C920,-499.102 920,-471.515 920,-450.301"/>
<polygon fill="black" stroke="black" points="923.5,-450.174 920,-440.174 916.5,-450.174 923.5,-450.174"/>
<text text-anchor="middle" x="928.75" y="-461.4" font-family="Times,serif" font-size="14.00">0.5</text>
</g>
<!-- N30&#45;&gt;N26 -->
<g id="edge28" class="edge"><title>N30&#45;&gt;N26</title>
<path fill="none" stroke="black" d="M605.218,-862.48C607.756,-848.66 611.359,-829.047 614.372,-812.643"/>
<polygon fill="black" stroke="black" points="617.885,-812.887 616.25,-802.419 611.001,-811.622 617.885,-812.887"/>
<text text-anchor="middle" x="620.75" y="-829.4" font-family="Times,serif" font-size="14.00">0.5</text>
</g>
</g>
</g></svg>
